M48
;Layer_Color=9474304
;FILE_FORMAT=2:5
INCH,LZ
;TYPE=PLATED
T1F00S00C0.02362
T2F00S00C0.02953
T3F00S00C0.03150
T4F00S00C0.03543
T5F00S00C0.03937
T6F00S00C0.04724
T7F00S00C0.11811
%
T01
X0126319Y0020472
Y0025591
Y0030709
X0148366Y0040354
X0312992Y0097441
Y0102559
Y0107677
X0363583Y0109449
Y0104331
Y0099213
X0239173Y009941
Y0104528
Y0109646
X0187402Y0109449
Y0104331
Y0099213
X0148957Y0076968
Y007185
Y0066732
X0148366Y0050591
Y0045472
X0110236Y0060236
X0105118
X01
T02
X0115669Y0110866
Y0120866
Y0130866
Y0140866
Y0150866
Y0160866
Y0170866
Y0180866
X0145669
Y0170866
Y0160866
Y0150866
Y0140866
Y0130866
Y0120866
Y0110866
T03
X0186024Y0033071
X0195079Y0027953
X0205315Y0028346
X0214764Y0033071
X0323819
X0332874Y0027953
X034311Y0028346
X0352559Y0033071
X0358465Y0041732
X0359646Y0051968
X0355709Y0061811
X0347835Y0068504
X0337992Y0070866
X0327756Y006811
X0319882Y0061417
X0316493Y0051794
X0317913Y0041339
X0220669Y0041732
X022185Y0051968
X0217913Y0061811
X0210039Y0068504
X0200197Y0070866
X0189961Y006811
X0182087Y0061417
X0178698Y0051794
X0180118Y0041339
X008563Y0049803
Y0109646
X0084646Y011811
X0099409
Y0137795
X0084646
X0027559Y0124016
Y0104331
Y0094488
Y0074803
T04
X0041102Y0051142
Y0061142
Y0071142
Y0081142
Y0091142
Y0101142
Y0111142
Y0121142
Y0131142
Y0141142
Y0151142
Y0161142
Y0171142
Y0181142
X0071102
Y0171142
Y0161142
Y0151142
Y0141142
Y0131142
Y0121142
Y0111142
Y0101142
Y0091142
Y0081142
Y0071142
Y0061142
Y0051142
T05
X0010827Y0025591
Y0035591
X0126496Y000748
X0136496
X0259567Y0012992
X0269567
X0266024Y0180709
X0256024
X0242402
X0232402
X0218386
X0208386
X0194764
X0184764
X0171142
X0161142
X0011811Y0162559
Y0152559
X0010827Y0121221
Y0111221
Y0093504
Y0083504
Y0065118
Y0055118
T06
X0038386Y0012795
Y0022638
Y003248
T07
X0007874Y0007874
X0385827
Y0188976
X0007874
M30
