G04 Layer_Color=255*
%FSLAX25Y25*%
%MOIN*%
G70*
G01*
G75*
%ADD12R,0.06299X0.03937*%
%ADD13R,0.03937X0.06299*%
%ADD16C,0.05905*%
%ADD17R,0.05905X0.05905*%
%ADD18R,0.05905X0.05905*%
%ADD19O,0.05512X0.03937*%
%ADD20C,0.05315*%
%ADD21R,0.05315X0.05315*%
%ADD22C,0.07874*%
%ADD23O,0.03937X0.05512*%
%ADD24R,0.06693X0.06693*%
%ADD25C,0.06693*%
%ADD26R,0.06693X0.06693*%
D12*
X132874Y40354D02*
D03*
Y52165D02*
D03*
X122047D02*
D03*
Y40354D02*
D03*
X152559Y12795D02*
D03*
Y24606D02*
D03*
D13*
X93504Y25591D02*
D03*
X105315D02*
D03*
X93504Y36417D02*
D03*
X105315D02*
D03*
D16*
X319882Y61417D02*
D03*
X327756Y68110D02*
D03*
X316493Y51794D02*
D03*
X317913Y41339D02*
D03*
X323819Y33071D02*
D03*
X332874Y27953D02*
D03*
X343110Y28346D02*
D03*
X352559Y33071D02*
D03*
X358465Y41732D02*
D03*
X359646Y51968D02*
D03*
X355709Y61811D02*
D03*
X347835Y68504D02*
D03*
X182087Y61417D02*
D03*
X189961Y68110D02*
D03*
X178698Y51794D02*
D03*
X180118Y41339D02*
D03*
X186024Y33071D02*
D03*
X195079Y27953D02*
D03*
X205315Y28346D02*
D03*
X214764Y33071D02*
D03*
X220669Y41732D02*
D03*
X221850Y51968D02*
D03*
X217913Y61811D02*
D03*
X210039Y68504D02*
D03*
X71102Y51142D02*
D03*
Y61142D02*
D03*
Y71142D02*
D03*
Y81142D02*
D03*
Y91142D02*
D03*
Y101142D02*
D03*
Y111142D02*
D03*
Y121142D02*
D03*
Y131142D02*
D03*
Y141142D02*
D03*
Y151142D02*
D03*
Y161142D02*
D03*
Y171142D02*
D03*
Y181142D02*
D03*
X41102Y51142D02*
D03*
Y61142D02*
D03*
Y71142D02*
D03*
Y81142D02*
D03*
Y91142D02*
D03*
Y101142D02*
D03*
Y111142D02*
D03*
Y121142D02*
D03*
Y131142D02*
D03*
Y141142D02*
D03*
Y151142D02*
D03*
Y161142D02*
D03*
Y171142D02*
D03*
X84646Y137795D02*
D03*
Y118110D02*
D03*
X99409Y137795D02*
D03*
Y118110D02*
D03*
X385827Y7874D02*
D03*
X7874D02*
D03*
X85630Y49803D02*
D03*
Y109646D02*
D03*
X27559Y104331D02*
D03*
Y124016D02*
D03*
Y94488D02*
D03*
Y74803D02*
D03*
X7874Y188976D02*
D03*
X385827D02*
D03*
D17*
X337992Y70866D02*
D03*
X200197D02*
D03*
D18*
X41102Y181142D02*
D03*
D19*
X363583Y99213D02*
D03*
Y104331D02*
D03*
Y109449D02*
D03*
X312992Y97441D02*
D03*
Y102559D02*
D03*
Y107677D02*
D03*
X148957Y66732D02*
D03*
Y71850D02*
D03*
Y76968D02*
D03*
X126319Y20472D02*
D03*
Y25591D02*
D03*
Y30709D02*
D03*
X148366Y40354D02*
D03*
Y45472D02*
D03*
Y50591D02*
D03*
X187402Y99213D02*
D03*
Y104331D02*
D03*
Y109449D02*
D03*
X239173Y99410D02*
D03*
Y104528D02*
D03*
Y109646D02*
D03*
D20*
X145669Y180866D02*
D03*
Y170866D02*
D03*
Y160866D02*
D03*
Y150866D02*
D03*
Y140866D02*
D03*
Y130866D02*
D03*
Y120866D02*
D03*
Y110866D02*
D03*
X115669D02*
D03*
Y120866D02*
D03*
Y130866D02*
D03*
Y140866D02*
D03*
Y150866D02*
D03*
Y160866D02*
D03*
Y170866D02*
D03*
D21*
Y180866D02*
D03*
D22*
X38386Y12795D02*
D03*
Y22638D02*
D03*
Y32480D02*
D03*
D23*
X110236Y60236D02*
D03*
X105118D02*
D03*
X100000D02*
D03*
D24*
X10827Y111221D02*
D03*
Y93504D02*
D03*
Y25591D02*
D03*
Y65118D02*
D03*
X11811Y162559D02*
D03*
D25*
X10827Y121221D02*
D03*
Y83504D02*
D03*
Y35591D02*
D03*
Y55118D02*
D03*
X269567Y12992D02*
D03*
X11811Y152559D02*
D03*
X126496Y7480D02*
D03*
X161142Y180709D02*
D03*
X184764D02*
D03*
X208386D02*
D03*
X232402D02*
D03*
X256024D02*
D03*
D26*
X259567Y12992D02*
D03*
X136496Y7480D02*
D03*
X171142Y180709D02*
D03*
X194764D02*
D03*
X218386D02*
D03*
X242402D02*
D03*
X266024D02*
D03*
M02*
