G04 Layer_Color=16777215*
%FSLAX25Y25*%
%MOIN*%
G70*
G01*
G75*
%ADD27C,0.00787*%
%ADD28C,0.01968*%
%ADD29C,0.00984*%
G36*
X320644Y182741D02*
X320744Y182723D01*
X320854Y182687D01*
X320981Y182632D01*
X321100Y182559D01*
X321218Y182459D01*
X321227Y182450D01*
X321264Y182404D01*
X321319Y182341D01*
X321373Y182259D01*
X321428Y182149D01*
X321482Y182022D01*
X321519Y181876D01*
X321528Y181721D01*
Y179389D01*
Y179380D01*
Y179352D01*
X321519Y179307D01*
X321492Y179261D01*
X321464Y179216D01*
X321419Y179170D01*
X321355Y179143D01*
X321264Y179134D01*
X319952D01*
X319897Y179143D01*
X319815Y179152D01*
X319715Y179170D01*
X319597Y179207D01*
X319478Y179261D01*
X319351Y179325D01*
X319232Y179425D01*
X319223Y179444D01*
X319187Y179480D01*
X319141Y179544D01*
X319087Y179635D01*
X319023Y179735D01*
X318977Y179863D01*
X318941Y180008D01*
X318932Y180163D01*
Y180172D01*
Y180209D01*
X318941Y180263D01*
X318950Y180336D01*
X318968Y180418D01*
X318986Y180500D01*
X319023Y180591D01*
X319068Y180683D01*
Y180692D01*
X319087Y180701D01*
X319096Y180728D01*
X319123Y180765D01*
X319196Y180847D01*
X319287Y180947D01*
X319414Y181038D01*
X319569Y181120D01*
X319660Y181156D01*
X319761Y181184D01*
X319861Y181193D01*
X319970Y181202D01*
X321009D01*
Y181721D01*
Y181730D01*
Y181757D01*
X321000Y181794D01*
X320990Y181849D01*
X320972Y181903D01*
X320945Y181967D01*
X320908Y182031D01*
X320854Y182086D01*
X320845Y182095D01*
X320827Y182113D01*
X320799Y182131D01*
X320754Y182167D01*
X320699Y182195D01*
X320635Y182213D01*
X320571Y182231D01*
X320490Y182240D01*
X319414D01*
X319369Y182259D01*
X319323Y182277D01*
X319278Y182304D01*
X319232Y182350D01*
X319205Y182413D01*
X319196Y182495D01*
Y182505D01*
Y182541D01*
X319214Y182577D01*
X319232Y182632D01*
X319260Y182678D01*
X319305Y182723D01*
X319369Y182750D01*
X319451Y182760D01*
X320562D01*
X320644Y182741D01*
D02*
G37*
G36*
X313584Y184299D02*
X313639Y184272D01*
X313684Y184245D01*
X313730Y184199D01*
X313757Y184135D01*
X313766Y184044D01*
Y179908D01*
Y179899D01*
Y179872D01*
X313785Y179844D01*
X313803Y179799D01*
X313830Y179753D01*
X313876Y179717D01*
X313939Y179671D01*
X314021Y179644D01*
X314031D01*
X314058Y179635D01*
X314103Y179617D01*
X314149Y179589D01*
X314194Y179562D01*
X314240Y179516D01*
X314267Y179462D01*
X314277Y179389D01*
Y179380D01*
Y179352D01*
X314267Y179307D01*
X314249Y179261D01*
X314213Y179216D01*
X314167Y179170D01*
X314103Y179143D01*
X314021Y179134D01*
X313967D01*
X313903Y179143D01*
X313821Y179161D01*
X313730Y179179D01*
X313639Y179216D01*
X313548Y179271D01*
X313457Y179334D01*
X313447Y179343D01*
X313420Y179371D01*
X313393Y179416D01*
X313356Y179489D01*
X313311Y179571D01*
X313283Y179662D01*
X313256Y179781D01*
X313247Y179908D01*
Y184044D01*
Y184053D01*
Y184090D01*
X313265Y184126D01*
X313283Y184181D01*
X313311Y184226D01*
X313356Y184272D01*
X313420Y184299D01*
X313502Y184308D01*
X313548D01*
X313584Y184299D01*
D02*
G37*
G36*
X311006Y182750D02*
X311106Y182741D01*
X311234Y182714D01*
X311370Y182668D01*
X311525Y182596D01*
X311680Y182505D01*
X311826Y182377D01*
X311844Y182359D01*
X311890Y182313D01*
X311944Y182231D01*
X312017Y182122D01*
X312090Y181985D01*
X312145Y181830D01*
X312190Y181657D01*
X312209Y181457D01*
Y180428D01*
Y180418D01*
Y180400D01*
Y180373D01*
X312199Y180336D01*
X312190Y180236D01*
X312163Y180109D01*
X312117Y179963D01*
X312045Y179817D01*
X311953Y179653D01*
X311826Y179507D01*
X311808Y179489D01*
X311762Y179453D01*
X311680Y179389D01*
X311571Y179325D01*
X311434Y179252D01*
X311279Y179189D01*
X311106Y179152D01*
X310915Y179134D01*
X310860D01*
X310824Y179143D01*
X310723Y179152D01*
X310596Y179179D01*
X310450Y179225D01*
X310304Y179289D01*
X310140Y179380D01*
X309995Y179507D01*
X309977Y179526D01*
X309940Y179580D01*
X309876Y179653D01*
X309813Y179762D01*
X309740Y179899D01*
X309676Y180054D01*
X309640Y180236D01*
X309621Y180428D01*
Y181457D01*
Y181466D01*
Y181484D01*
Y181512D01*
X309630Y181548D01*
X309640Y181648D01*
X309667Y181776D01*
X309712Y181922D01*
X309776Y182076D01*
X309867Y182231D01*
X309995Y182377D01*
X310013Y182395D01*
X310068Y182441D01*
X310140Y182495D01*
X310250Y182568D01*
X310386Y182641D01*
X310541Y182696D01*
X310723Y182741D01*
X310915Y182760D01*
X310969D01*
X311006Y182750D01*
D02*
G37*
G36*
X340003Y184308D02*
X340058Y184281D01*
X340103Y184254D01*
X340149Y184208D01*
X340176Y184144D01*
X340185Y184053D01*
Y184044D01*
Y184017D01*
X340176Y183971D01*
X340149Y183926D01*
X340122Y183880D01*
X340076Y183835D01*
X340012Y183807D01*
X339921Y183798D01*
X338117D01*
Y182240D01*
X339447D01*
X339493Y182231D01*
X339539Y182204D01*
X339584Y182177D01*
X339630Y182131D01*
X339657Y182067D01*
X339666Y181976D01*
Y181967D01*
Y181940D01*
X339657Y181894D01*
X339639Y181849D01*
X339602Y181803D01*
X339557Y181757D01*
X339493Y181730D01*
X339411Y181721D01*
X338117D01*
Y179653D01*
X339967D01*
X340003Y179644D01*
X340058Y179617D01*
X340103Y179589D01*
X340149Y179544D01*
X340176Y179480D01*
X340185Y179389D01*
Y179380D01*
Y179352D01*
X340176Y179307D01*
X340149Y179261D01*
X340122Y179216D01*
X340076Y179170D01*
X340012Y179143D01*
X339921Y179134D01*
X337817D01*
X337771Y179152D01*
X337726Y179170D01*
X337680Y179198D01*
X337634Y179243D01*
X337607Y179307D01*
X337598Y179389D01*
Y184053D01*
Y184062D01*
Y184099D01*
X337616Y184135D01*
X337634Y184190D01*
X337662Y184236D01*
X337707Y184281D01*
X337771Y184308D01*
X337853Y184318D01*
X339967D01*
X340003Y184308D01*
D02*
G37*
G36*
X336377Y184299D02*
X336432Y184272D01*
X336477Y184245D01*
X336523Y184199D01*
X336550Y184135D01*
X336560Y184044D01*
Y179389D01*
Y179380D01*
Y179352D01*
X336550Y179307D01*
X336523Y179261D01*
X336496Y179216D01*
X336450Y179170D01*
X336386Y179143D01*
X336295Y179134D01*
X336259D01*
X336213Y179152D01*
X336168Y179170D01*
X336122Y179198D01*
X336077Y179243D01*
X336049Y179307D01*
X336040Y179389D01*
Y184044D01*
Y184053D01*
Y184090D01*
X336058Y184126D01*
X336077Y184181D01*
X336104Y184226D01*
X336150Y184272D01*
X336213Y184299D01*
X336295Y184308D01*
X336341D01*
X336377Y184299D01*
D02*
G37*
G36*
X330155D02*
X330210Y184272D01*
X330255Y184245D01*
X330301Y184199D01*
X330328Y184135D01*
X330337Y184044D01*
Y179389D01*
Y179380D01*
Y179352D01*
X330328Y179307D01*
X330301Y179261D01*
X330274Y179216D01*
X330228Y179170D01*
X330164Y179143D01*
X330073Y179134D01*
X330037D01*
X329991Y179152D01*
X329946Y179170D01*
X329900Y179198D01*
X329855Y179243D01*
X329827Y179307D01*
X329818Y179389D01*
Y184044D01*
Y184053D01*
Y184090D01*
X329836Y184126D01*
X329855Y184181D01*
X329882Y184226D01*
X329927Y184272D01*
X329991Y184299D01*
X330073Y184308D01*
X330119D01*
X330155Y184299D01*
D02*
G37*
G36*
X307371Y184308D02*
X307471Y184299D01*
X307599Y184272D01*
X307745Y184226D01*
X307899Y184153D01*
X308054Y184062D01*
X308200Y183935D01*
X308218Y183917D01*
X308264Y183871D01*
X308318Y183789D01*
X308391Y183680D01*
X308464Y183543D01*
X308519Y183388D01*
X308564Y183215D01*
X308583Y183015D01*
Y180428D01*
Y180418D01*
Y180400D01*
Y180373D01*
X308574Y180336D01*
X308564Y180236D01*
X308537Y180109D01*
X308492Y179963D01*
X308419Y179817D01*
X308328Y179653D01*
X308200Y179507D01*
X308182Y179489D01*
X308136Y179453D01*
X308054Y179389D01*
X307945Y179325D01*
X307808Y179252D01*
X307653Y179189D01*
X307471Y179152D01*
X307280Y179134D01*
X305695D01*
X305649Y179152D01*
X305604Y179170D01*
X305558Y179198D01*
X305513Y179243D01*
X305485Y179307D01*
X305476Y179389D01*
Y184053D01*
Y184062D01*
Y184099D01*
X305494Y184135D01*
X305513Y184190D01*
X305540Y184236D01*
X305586Y184281D01*
X305649Y184308D01*
X305731Y184318D01*
X307335D01*
X307371Y184308D01*
D02*
G37*
G36*
X363306Y176425D02*
X363361Y176398D01*
X363407Y176371D01*
X363452Y176325D01*
X363480Y176261D01*
X363489Y176170D01*
Y175915D01*
Y175906D01*
Y175879D01*
X363480Y175833D01*
X363452Y175787D01*
X363425Y175733D01*
X363379Y175696D01*
X363316Y175660D01*
X363225Y175651D01*
X363188D01*
X363142Y175669D01*
X363097Y175687D01*
X363051Y175715D01*
X363006Y175760D01*
X362979Y175824D01*
X362969Y175915D01*
Y176170D01*
Y176179D01*
Y176216D01*
X362988Y176252D01*
X363006Y176307D01*
X363033Y176352D01*
X363079Y176398D01*
X363142Y176425D01*
X363225Y176434D01*
X363270D01*
X363306Y176425D01*
D02*
G37*
G36*
X300639D02*
X300693Y176398D01*
X300739Y176371D01*
X300784Y176325D01*
X300812Y176261D01*
X300821Y176170D01*
Y175915D01*
Y175906D01*
Y175879D01*
X300812Y175833D01*
X300784Y175787D01*
X300757Y175733D01*
X300712Y175696D01*
X300648Y175660D01*
X300557Y175651D01*
X300520D01*
X300475Y175669D01*
X300429Y175687D01*
X300384Y175715D01*
X300338Y175760D01*
X300311Y175824D01*
X300302Y175915D01*
Y176170D01*
Y176179D01*
Y176216D01*
X300320Y176252D01*
X300338Y176307D01*
X300365Y176352D01*
X300411Y176398D01*
X300475Y176425D01*
X300557Y176434D01*
X300602D01*
X300639Y176425D01*
D02*
G37*
G36*
X304265Y174357D02*
X304319Y174330D01*
X304365Y174303D01*
X304410Y174257D01*
X304438Y174193D01*
X304447Y174102D01*
Y173847D01*
Y173838D01*
Y173811D01*
X304438Y173765D01*
X304410Y173720D01*
X304383Y173665D01*
X304337Y173628D01*
X304274Y173592D01*
X304183Y173583D01*
X304146D01*
X304101Y173601D01*
X304055Y173619D01*
X304010Y173647D01*
X303964Y173692D01*
X303937Y173756D01*
X303927Y173847D01*
Y174102D01*
Y174111D01*
Y174148D01*
X303946Y174184D01*
X303964Y174239D01*
X303991Y174284D01*
X304037Y174330D01*
X304101Y174357D01*
X304183Y174366D01*
X304228D01*
X304265Y174357D01*
D02*
G37*
G36*
X296503Y182750D02*
X296603Y182741D01*
X296731Y182714D01*
X296876Y182668D01*
X297031Y182596D01*
X297186Y182505D01*
X297332Y182377D01*
X297350Y182359D01*
X297387Y182313D01*
X297450Y182231D01*
X297523Y182122D01*
X297587Y181985D01*
X297651Y181830D01*
X297687Y181657D01*
X297705Y181457D01*
Y180683D01*
X295637D01*
Y180163D01*
Y180154D01*
Y180127D01*
X295647Y180090D01*
X295656Y180036D01*
X295674Y179981D01*
X295701Y179917D01*
X295738Y179863D01*
X295783Y179799D01*
X295792Y179790D01*
X295811Y179781D01*
X295847Y179753D01*
X295883Y179726D01*
X295938Y179699D01*
X296002Y179681D01*
X296075Y179662D01*
X296148Y179653D01*
X297487D01*
X297523Y179644D01*
X297578Y179617D01*
X297623Y179589D01*
X297669Y179544D01*
X297696Y179480D01*
X297705Y179389D01*
Y179380D01*
Y179352D01*
X297696Y179307D01*
X297669Y179261D01*
X297642Y179216D01*
X297596Y179170D01*
X297532Y179143D01*
X297441Y179134D01*
X296129D01*
X296075Y179143D01*
X295993Y179152D01*
X295893Y179170D01*
X295783Y179207D01*
X295656Y179261D01*
X295537Y179325D01*
X295419Y179425D01*
X295410Y179444D01*
X295373Y179480D01*
X295328Y179544D01*
X295273Y179635D01*
X295209Y179735D01*
X295164Y179863D01*
X295127Y180008D01*
X295118Y180163D01*
Y181457D01*
Y181466D01*
Y181484D01*
Y181512D01*
X295127Y181548D01*
X295136Y181648D01*
X295164Y181776D01*
X295209Y181922D01*
X295273Y182076D01*
X295364Y182231D01*
X295492Y182377D01*
X295510Y182395D01*
X295565Y182441D01*
X295637Y182495D01*
X295747Y182568D01*
X295883Y182641D01*
X296038Y182696D01*
X296220Y182741D01*
X296412Y182760D01*
X296466D01*
X296503Y182750D01*
D02*
G37*
G36*
X293387Y184299D02*
X293442Y184272D01*
X293487Y184245D01*
X293533Y184199D01*
X293560Y184135D01*
X293569Y184044D01*
Y179908D01*
Y179899D01*
Y179872D01*
X293588Y179844D01*
X293606Y179799D01*
X293633Y179753D01*
X293679Y179717D01*
X293742Y179671D01*
X293825Y179644D01*
X293834D01*
X293861Y179635D01*
X293906Y179617D01*
X293952Y179589D01*
X293998Y179562D01*
X294043Y179516D01*
X294071Y179462D01*
X294080Y179389D01*
Y179380D01*
Y179352D01*
X294071Y179307D01*
X294052Y179261D01*
X294016Y179216D01*
X293970Y179170D01*
X293906Y179143D01*
X293825Y179134D01*
X293770D01*
X293706Y179143D01*
X293624Y179161D01*
X293533Y179179D01*
X293442Y179216D01*
X293351Y179271D01*
X293260Y179334D01*
X293251Y179343D01*
X293223Y179371D01*
X293196Y179416D01*
X293160Y179489D01*
X293114Y179571D01*
X293087Y179662D01*
X293059Y179781D01*
X293050Y179908D01*
Y184044D01*
Y184053D01*
Y184090D01*
X293068Y184126D01*
X293087Y184181D01*
X293114Y184226D01*
X293160Y184272D01*
X293223Y184299D01*
X293305Y184308D01*
X293351D01*
X293387Y184299D01*
D02*
G37*
G36*
X290253D02*
X290290Y184281D01*
X290335Y184263D01*
X290381Y184226D01*
X290417Y184172D01*
X290445Y184108D01*
X291993Y179471D01*
Y179462D01*
X292003Y179444D01*
Y179389D01*
Y179380D01*
Y179352D01*
X291993Y179307D01*
X291975Y179261D01*
X291939Y179216D01*
X291893Y179170D01*
X291829Y179143D01*
X291747Y179134D01*
X291720D01*
X291684Y179143D01*
X291647Y179152D01*
X291602Y179179D01*
X291565Y179207D01*
X291529Y179252D01*
X291501Y179307D01*
X291128Y180428D01*
X289260D01*
X288887Y179307D01*
Y179298D01*
X288878Y179280D01*
X288832Y179225D01*
X288796Y179189D01*
X288759Y179161D01*
X288705Y179143D01*
X288641Y179134D01*
X288604D01*
X288559Y179152D01*
X288513Y179170D01*
X288459Y179198D01*
X288422Y179243D01*
X288386Y179307D01*
X288377Y179389D01*
Y179398D01*
Y179416D01*
X288395Y179471D01*
X289934Y184099D01*
Y184108D01*
X289953Y184135D01*
X289971Y184163D01*
X289998Y184208D01*
X290026Y184245D01*
X290071Y184272D01*
X290126Y184299D01*
X290190Y184308D01*
X290217D01*
X290253Y184299D01*
D02*
G37*
G36*
X346735Y184308D02*
X346790Y184281D01*
X346836Y184254D01*
X346881Y184208D01*
X346908Y184144D01*
X346918Y184053D01*
Y184044D01*
Y184017D01*
X346908Y183971D01*
X346881Y183926D01*
X346854Y183880D01*
X346808Y183835D01*
X346744Y183807D01*
X346653Y183798D01*
X345569D01*
X345505Y183789D01*
X345433Y183771D01*
X345342Y183744D01*
X345251Y183698D01*
X345159Y183643D01*
X345068Y183570D01*
X345059Y183561D01*
X345032Y183534D01*
X344995Y183479D01*
X344959Y183416D01*
X344922Y183334D01*
X344886Y183242D01*
X344859Y183133D01*
X344850Y183015D01*
Y180428D01*
Y180409D01*
Y180373D01*
X344859Y180309D01*
X344877Y180236D01*
X344904Y180145D01*
X344941Y180054D01*
X344995Y179963D01*
X345068Y179872D01*
X345077Y179863D01*
X345114Y179835D01*
X345159Y179799D01*
X345223Y179762D01*
X345305Y179726D01*
X345396Y179690D01*
X345505Y179662D01*
X345624Y179653D01*
X346699D01*
X346735Y179644D01*
X346790Y179617D01*
X346836Y179589D01*
X346881Y179544D01*
X346908Y179480D01*
X346918Y179389D01*
Y179380D01*
Y179352D01*
X346908Y179307D01*
X346881Y179261D01*
X346854Y179216D01*
X346808Y179170D01*
X346744Y179143D01*
X346653Y179134D01*
X345569D01*
X345533Y179143D01*
X345433Y179152D01*
X345305Y179179D01*
X345159Y179225D01*
X345014Y179289D01*
X344850Y179380D01*
X344704Y179507D01*
X344686Y179526D01*
X344649Y179580D01*
X344585Y179653D01*
X344522Y179762D01*
X344449Y179899D01*
X344385Y180054D01*
X344349Y180236D01*
X344330Y180428D01*
Y183015D01*
Y183024D01*
Y183042D01*
Y183069D01*
X344339Y183106D01*
X344349Y183206D01*
X344376Y183334D01*
X344421Y183479D01*
X344485Y183634D01*
X344576Y183789D01*
X344704Y183935D01*
X344722Y183953D01*
X344777Y183999D01*
X344850Y184053D01*
X344959Y184126D01*
X345096Y184199D01*
X345251Y184254D01*
X345433Y184299D01*
X345624Y184318D01*
X346699D01*
X346735Y184308D01*
D02*
G37*
G36*
X24671Y57290D02*
X24752Y57283D01*
X24854Y57261D01*
X24970Y57225D01*
X25094Y57166D01*
X25218Y57094D01*
X25335Y56991D01*
X25350Y56977D01*
X25386Y56940D01*
X25430Y56875D01*
X25488Y56787D01*
X25546Y56678D01*
X25590Y56554D01*
X25627Y56408D01*
X25641Y56255D01*
Y56248D01*
Y56233D01*
Y56204D01*
X25634Y56168D01*
X25627Y56124D01*
X25619Y56073D01*
X25590Y55956D01*
X25539Y55825D01*
X25510Y55759D01*
X25466Y55686D01*
X25415Y55621D01*
X25364Y55548D01*
X25298Y55482D01*
X25226Y55424D01*
X25233D01*
X25240Y55409D01*
X25262Y55395D01*
X25291Y55366D01*
X25357Y55300D01*
X25437Y55205D01*
X25510Y55081D01*
X25576Y54943D01*
X25605Y54863D01*
X25627Y54775D01*
X25634Y54688D01*
X25641Y54593D01*
Y54185D01*
Y54177D01*
Y54163D01*
Y54141D01*
X25634Y54112D01*
X25627Y54032D01*
X25605Y53930D01*
X25568Y53813D01*
X25510Y53696D01*
X25437Y53565D01*
X25335Y53448D01*
X25320Y53434D01*
X25284Y53405D01*
X25218Y53354D01*
X25131Y53303D01*
X25021Y53244D01*
X24897Y53193D01*
X24752Y53164D01*
X24599Y53150D01*
X23746D01*
X23709Y53164D01*
X23673Y53179D01*
X23629Y53201D01*
X23600Y53237D01*
X23571Y53288D01*
X23563Y53354D01*
Y53361D01*
Y53390D01*
X23578Y53419D01*
X23593Y53463D01*
X23615Y53500D01*
X23651Y53536D01*
X23702Y53558D01*
X23775Y53565D01*
X24642D01*
X24693Y53572D01*
X24752Y53587D01*
X24825Y53609D01*
X24897Y53638D01*
X24970Y53682D01*
X25043Y53740D01*
X25051Y53747D01*
X25073Y53777D01*
X25102Y53813D01*
X25138Y53864D01*
X25167Y53930D01*
X25196Y54002D01*
X25218Y54090D01*
X25226Y54185D01*
Y54593D01*
Y54608D01*
Y54637D01*
X25218Y54688D01*
X25204Y54746D01*
X25182Y54819D01*
X25145Y54892D01*
X25102Y54965D01*
X25043Y55038D01*
X25036Y55045D01*
X25014Y55067D01*
X24970Y55096D01*
X24919Y55133D01*
X24854Y55162D01*
X24781Y55191D01*
X24693Y55213D01*
X24599Y55220D01*
X24154D01*
X24117Y55235D01*
X24081Y55249D01*
X24045Y55271D01*
X24008Y55307D01*
X23986Y55358D01*
X23979Y55424D01*
Y55431D01*
Y55461D01*
X23993Y55490D01*
X24008Y55533D01*
X24030Y55570D01*
X24066Y55606D01*
X24117Y55628D01*
X24183Y55635D01*
X24642D01*
X24693Y55643D01*
X24752Y55657D01*
X24825Y55679D01*
X24897Y55708D01*
X24970Y55752D01*
X25043Y55810D01*
X25051Y55818D01*
X25073Y55847D01*
X25102Y55883D01*
X25138Y55934D01*
X25167Y56000D01*
X25196Y56073D01*
X25218Y56160D01*
X25226Y56255D01*
Y56270D01*
Y56299D01*
X25218Y56343D01*
X25204Y56408D01*
X25182Y56474D01*
X25145Y56547D01*
X25102Y56620D01*
X25043Y56693D01*
X25036Y56700D01*
X25014Y56722D01*
X24970Y56751D01*
X24919Y56787D01*
X24854Y56824D01*
X24781Y56853D01*
X24693Y56875D01*
X24599Y56882D01*
X23746D01*
X23709Y56897D01*
X23673Y56911D01*
X23629Y56933D01*
X23600Y56970D01*
X23571Y57021D01*
X23563Y57086D01*
Y57094D01*
Y57123D01*
X23578Y57152D01*
X23593Y57196D01*
X23615Y57232D01*
X23651Y57269D01*
X23702Y57290D01*
X23775Y57298D01*
X24642D01*
X24671Y57290D01*
D02*
G37*
G36*
X22594D02*
X22638Y57269D01*
X22674Y57247D01*
X22711Y57210D01*
X22732Y57159D01*
X22740Y57086D01*
Y57079D01*
Y57057D01*
X22732Y57021D01*
X22711Y56984D01*
X22689Y56948D01*
X22652Y56911D01*
X22601Y56889D01*
X22528Y56882D01*
X21661D01*
X21610Y56875D01*
X21551Y56860D01*
X21478Y56838D01*
X21406Y56802D01*
X21333Y56758D01*
X21260Y56700D01*
X21252Y56693D01*
X21231Y56671D01*
X21202Y56627D01*
X21172Y56576D01*
X21143Y56510D01*
X21114Y56437D01*
X21092Y56350D01*
X21085Y56255D01*
Y54185D01*
Y54170D01*
Y54141D01*
X21092Y54090D01*
X21107Y54032D01*
X21129Y53959D01*
X21158Y53886D01*
X21202Y53813D01*
X21260Y53740D01*
X21267Y53733D01*
X21296Y53711D01*
X21333Y53682D01*
X21384Y53653D01*
X21449Y53623D01*
X21522Y53594D01*
X21610Y53572D01*
X21704Y53565D01*
X22565D01*
X22594Y53558D01*
X22638Y53536D01*
X22674Y53514D01*
X22711Y53478D01*
X22732Y53427D01*
X22740Y53354D01*
Y53346D01*
Y53325D01*
X22732Y53288D01*
X22711Y53252D01*
X22689Y53215D01*
X22652Y53179D01*
X22601Y53157D01*
X22528Y53150D01*
X21661D01*
X21632Y53157D01*
X21551Y53164D01*
X21449Y53186D01*
X21333Y53223D01*
X21216Y53273D01*
X21085Y53346D01*
X20968Y53448D01*
X20954Y53463D01*
X20924Y53507D01*
X20873Y53565D01*
X20822Y53653D01*
X20764Y53762D01*
X20713Y53886D01*
X20684Y54032D01*
X20669Y54185D01*
Y56255D01*
Y56262D01*
Y56277D01*
Y56299D01*
X20677Y56328D01*
X20684Y56408D01*
X20706Y56510D01*
X20742Y56627D01*
X20793Y56751D01*
X20866Y56875D01*
X20968Y56991D01*
X20983Y57006D01*
X21026Y57042D01*
X21085Y57086D01*
X21172Y57144D01*
X21282Y57203D01*
X21406Y57247D01*
X21551Y57283D01*
X21704Y57298D01*
X22565D01*
X22594Y57290D01*
D02*
G37*
G36*
X334820Y184299D02*
X334865Y184272D01*
X334911Y184245D01*
X334956Y184199D01*
X334983Y184135D01*
X334993Y184044D01*
Y184035D01*
Y183999D01*
X334974Y183953D01*
X334956Y183898D01*
X333499Y181721D01*
X334956Y179535D01*
X334965Y179526D01*
X334974Y179489D01*
X334983Y179444D01*
X334993Y179389D01*
Y179380D01*
Y179352D01*
X334983Y179307D01*
X334965Y179261D01*
X334929Y179216D01*
X334883Y179170D01*
X334820Y179143D01*
X334737Y179134D01*
X334710D01*
X334655Y179152D01*
X334583Y179179D01*
X334546Y179207D01*
X334519Y179243D01*
X333180Y181247D01*
X331840Y179243D01*
X331831Y179225D01*
X331786Y179189D01*
X331722Y179152D01*
X331677Y179143D01*
X331631Y179134D01*
X331595D01*
X331549Y179152D01*
X331504Y179170D01*
X331449Y179198D01*
X331412Y179243D01*
X331376Y179307D01*
X331367Y179389D01*
Y179407D01*
X331376Y179435D01*
X331385Y179489D01*
X331412Y179535D01*
X332870Y181721D01*
X331412Y183898D01*
X331403Y183907D01*
X331394Y183944D01*
X331376Y183990D01*
X331367Y184044D01*
Y184053D01*
Y184090D01*
X331385Y184126D01*
X331403Y184181D01*
X331431Y184226D01*
X331476Y184272D01*
X331540Y184299D01*
X331631Y184308D01*
X331658D01*
X331713Y184290D01*
X331777Y184263D01*
X331813Y184226D01*
X331840Y184190D01*
X333180Y182186D01*
X334519Y184190D01*
Y184199D01*
X334537Y184208D01*
X334574Y184254D01*
X334646Y184290D01*
X334683Y184299D01*
X334737Y184308D01*
X334774D01*
X334820Y184299D01*
D02*
G37*
G36*
X243584Y50393D02*
X243627Y50371D01*
X243664Y50349D01*
X243700Y50313D01*
X243722Y50262D01*
X243729Y50189D01*
Y46464D01*
Y46457D01*
Y46435D01*
X243722Y46398D01*
X243700Y46362D01*
X243678Y46325D01*
X243642Y46289D01*
X243591Y46267D01*
X243518Y46260D01*
X243489D01*
X243453Y46274D01*
X243416Y46289D01*
X243380Y46311D01*
X243343Y46347D01*
X243321Y46398D01*
X243314Y46464D01*
Y49693D01*
X242833Y49212D01*
X242826Y49205D01*
X242796Y49183D01*
X242745Y49161D01*
X242687Y49154D01*
X242658D01*
X242621Y49169D01*
X242585Y49183D01*
X242548Y49205D01*
X242512Y49241D01*
X242490Y49292D01*
X242483Y49358D01*
Y49365D01*
Y49373D01*
X242490Y49409D01*
X242505Y49460D01*
X242541Y49504D01*
X243350Y50313D01*
X243358Y50320D01*
X243365Y50328D01*
X243401Y50357D01*
X243453Y50386D01*
X243489Y50401D01*
X243554D01*
X243584Y50393D01*
D02*
G37*
G36*
X24671Y10039D02*
X24708Y10017D01*
X24744Y9995D01*
X24781Y9959D01*
X24803Y9908D01*
X24810Y9835D01*
Y9827D01*
Y9820D01*
X24803Y9776D01*
X24045Y7152D01*
X25021D01*
Y7772D01*
Y7779D01*
Y7801D01*
X25036Y7837D01*
X25051Y7874D01*
X25073Y7910D01*
X25109Y7947D01*
X25160Y7969D01*
X25226Y7976D01*
X25262D01*
X25291Y7969D01*
X25335Y7954D01*
X25371Y7925D01*
X25408Y7888D01*
X25430Y7837D01*
X25437Y7772D01*
Y7152D01*
X25882D01*
X25911Y7145D01*
X25955Y7123D01*
X25991Y7101D01*
X26027Y7065D01*
X26049Y7014D01*
X26057Y6941D01*
Y6933D01*
Y6911D01*
X26049Y6875D01*
X26027Y6839D01*
X26006Y6802D01*
X25969Y6766D01*
X25918Y6744D01*
X25845Y6737D01*
X25437D01*
Y6110D01*
Y6102D01*
Y6081D01*
X25430Y6044D01*
X25408Y6008D01*
X25386Y5971D01*
X25350Y5935D01*
X25298Y5913D01*
X25226Y5906D01*
X25196D01*
X25160Y5920D01*
X25124Y5935D01*
X25087Y5957D01*
X25051Y5993D01*
X25029Y6044D01*
X25021Y6110D01*
Y6737D01*
X23746D01*
X23709Y6751D01*
X23673Y6766D01*
X23636Y6788D01*
X23600Y6824D01*
X23578Y6875D01*
X23571Y6941D01*
Y6948D01*
Y6963D01*
Y6999D01*
X24402Y9893D01*
Y9900D01*
X24409Y9915D01*
X24424Y9944D01*
X24445Y9973D01*
X24475Y9995D01*
X24504Y10024D01*
X24555Y10039D01*
X24606Y10046D01*
X24635D01*
X24671Y10039D01*
D02*
G37*
G36*
X22594Y10046D02*
X22638Y10024D01*
X22674Y10002D01*
X22711Y9966D01*
X22732Y9915D01*
X22740Y9842D01*
Y9835D01*
Y9813D01*
X22732Y9776D01*
X22711Y9740D01*
X22689Y9704D01*
X22652Y9667D01*
X22601Y9645D01*
X22528Y9638D01*
X21661D01*
X21610Y9631D01*
X21551Y9616D01*
X21478Y9594D01*
X21406Y9558D01*
X21333Y9514D01*
X21260Y9456D01*
X21252Y9448D01*
X21231Y9427D01*
X21202Y9383D01*
X21172Y9332D01*
X21143Y9266D01*
X21114Y9193D01*
X21092Y9106D01*
X21085Y9011D01*
Y6941D01*
Y6926D01*
Y6897D01*
X21092Y6846D01*
X21107Y6788D01*
X21129Y6715D01*
X21158Y6642D01*
X21202Y6569D01*
X21260Y6496D01*
X21267Y6489D01*
X21296Y6467D01*
X21333Y6438D01*
X21384Y6408D01*
X21449Y6379D01*
X21522Y6350D01*
X21610Y6328D01*
X21704Y6321D01*
X22565D01*
X22594Y6314D01*
X22638Y6292D01*
X22674Y6270D01*
X22711Y6234D01*
X22732Y6182D01*
X22740Y6110D01*
Y6102D01*
Y6081D01*
X22732Y6044D01*
X22711Y6008D01*
X22689Y5971D01*
X22652Y5935D01*
X22601Y5913D01*
X22528Y5906D01*
X21661D01*
X21632Y5913D01*
X21551Y5920D01*
X21449Y5942D01*
X21333Y5978D01*
X21216Y6029D01*
X21085Y6102D01*
X20968Y6204D01*
X20954Y6219D01*
X20924Y6263D01*
X20873Y6321D01*
X20822Y6408D01*
X20764Y6518D01*
X20713Y6642D01*
X20684Y6788D01*
X20669Y6941D01*
Y9011D01*
Y9018D01*
Y9033D01*
Y9055D01*
X20677Y9084D01*
X20684Y9164D01*
X20706Y9266D01*
X20742Y9383D01*
X20793Y9507D01*
X20866Y9631D01*
X20968Y9747D01*
X20983Y9762D01*
X21026Y9798D01*
X21085Y9842D01*
X21172Y9900D01*
X21282Y9959D01*
X21406Y10002D01*
X21551Y10039D01*
X21704Y10053D01*
X22565D01*
X22594Y10046D01*
D02*
G37*
G36*
X301149Y182750D02*
X301204Y182732D01*
X301249Y182696D01*
X301295Y182650D01*
X301322Y182587D01*
X301331Y182505D01*
Y182486D01*
X301322Y182450D01*
X301313Y182404D01*
X301286Y182350D01*
X300347Y180947D01*
X301286Y179535D01*
X301295Y179526D01*
X301313Y179489D01*
X301322Y179444D01*
X301331Y179389D01*
Y179380D01*
Y179352D01*
X301322Y179307D01*
X301295Y179261D01*
X301267Y179216D01*
X301222Y179170D01*
X301158Y179143D01*
X301067Y179134D01*
X301049D01*
X300985Y179152D01*
X300921Y179179D01*
X300885Y179207D01*
X300848Y179243D01*
X300028Y180473D01*
X299208Y179243D01*
X299199Y179225D01*
X299154Y179189D01*
X299090Y179152D01*
X299044Y179143D01*
X298999Y179134D01*
X298981D01*
X298935Y179143D01*
X298871Y179161D01*
X298808Y179207D01*
X298799Y179216D01*
X298771Y179261D01*
X298744Y179316D01*
X298735Y179389D01*
Y179407D01*
X298744Y179435D01*
X298753Y179489D01*
X298780Y179535D01*
X299719Y180947D01*
X298780Y182350D01*
X298771Y182359D01*
X298762Y182395D01*
X298744Y182441D01*
X298735Y182495D01*
Y182505D01*
Y182541D01*
X298753Y182577D01*
X298771Y182632D01*
X298799Y182678D01*
X298844Y182723D01*
X298908Y182750D01*
X298999Y182760D01*
X299026D01*
X299081Y182741D01*
X299145Y182714D01*
X299181Y182678D01*
X299208Y182641D01*
X300028Y181411D01*
X300848Y182641D01*
Y182650D01*
X300867Y182659D01*
X300903Y182705D01*
X300976Y182741D01*
X301021Y182750D01*
X301067Y182760D01*
X301113D01*
X301149Y182750D01*
D02*
G37*
G36*
X355545D02*
X355590Y182723D01*
X355636Y182696D01*
X355681Y182650D01*
X355709Y182587D01*
X355718Y182495D01*
Y182486D01*
Y182459D01*
X355709Y182413D01*
X355691Y182368D01*
X355654Y182322D01*
X355609Y182277D01*
X355545Y182249D01*
X355463Y182240D01*
X354643D01*
X354606Y182231D01*
X354552Y182222D01*
X354497Y182204D01*
X354433Y182177D01*
X354379Y182140D01*
X354315Y182086D01*
X354306Y182076D01*
X354297Y182058D01*
X354269Y182022D01*
X354242Y181985D01*
X354215Y181931D01*
X354197Y181867D01*
X354178Y181794D01*
X354169Y181721D01*
Y180163D01*
Y180154D01*
Y180127D01*
X354178Y180090D01*
X354187Y180036D01*
X354206Y179981D01*
X354233Y179917D01*
X354269Y179863D01*
X354315Y179799D01*
X354324Y179790D01*
X354342Y179781D01*
X354379Y179753D01*
X354415Y179726D01*
X354470Y179699D01*
X354534Y179681D01*
X354606Y179662D01*
X354679Y179653D01*
X355499D01*
X355545Y179644D01*
X355590Y179617D01*
X355636Y179589D01*
X355681Y179544D01*
X355709Y179480D01*
X355718Y179389D01*
Y179380D01*
Y179352D01*
X355709Y179307D01*
X355691Y179261D01*
X355654Y179216D01*
X355609Y179170D01*
X355545Y179143D01*
X355463Y179134D01*
X354661D01*
X354606Y179143D01*
X354524Y179152D01*
X354424Y179170D01*
X354315Y179207D01*
X354187Y179261D01*
X354069Y179325D01*
X353951Y179425D01*
X353941Y179444D01*
X353905Y179480D01*
X353859Y179544D01*
X353805Y179635D01*
X353741Y179735D01*
X353695Y179863D01*
X353659Y180008D01*
X353650Y180163D01*
Y181721D01*
Y181730D01*
Y181739D01*
X353659Y181794D01*
X353668Y181876D01*
X353686Y181976D01*
X353723Y182095D01*
X353777Y182213D01*
X353850Y182341D01*
X353951Y182459D01*
X353969Y182468D01*
X354005Y182505D01*
X354069Y182550D01*
X354151Y182614D01*
X354260Y182668D01*
X354388Y182714D01*
X354524Y182750D01*
X354679Y182760D01*
X355499D01*
X355545Y182750D01*
D02*
G37*
G36*
X351409D02*
X351509Y182741D01*
X351637Y182714D01*
X351773Y182668D01*
X351928Y182596D01*
X352083Y182505D01*
X352229Y182377D01*
X352247Y182359D01*
X352292Y182313D01*
X352347Y182231D01*
X352420Y182122D01*
X352493Y181985D01*
X352548Y181830D01*
X352593Y181657D01*
X352611Y181457D01*
Y180428D01*
Y180418D01*
Y180400D01*
Y180373D01*
X352602Y180336D01*
X352593Y180236D01*
X352566Y180109D01*
X352520Y179963D01*
X352447Y179817D01*
X352356Y179653D01*
X352229Y179507D01*
X352210Y179489D01*
X352165Y179453D01*
X352083Y179389D01*
X351974Y179325D01*
X351837Y179252D01*
X351682Y179189D01*
X351509Y179152D01*
X351318Y179134D01*
X351263D01*
X351227Y179143D01*
X351126Y179152D01*
X350999Y179179D01*
X350853Y179225D01*
X350707Y179289D01*
X350543Y179380D01*
X350398Y179507D01*
X350379Y179526D01*
X350343Y179580D01*
X350279Y179653D01*
X350215Y179762D01*
X350143Y179899D01*
X350079Y180054D01*
X350042Y180236D01*
X350024Y180428D01*
Y181457D01*
Y181466D01*
Y181484D01*
Y181512D01*
X350033Y181548D01*
X350042Y181648D01*
X350070Y181776D01*
X350115Y181922D01*
X350179Y182076D01*
X350270Y182231D01*
X350398Y182377D01*
X350416Y182395D01*
X350470Y182441D01*
X350543Y182495D01*
X350653Y182568D01*
X350789Y182641D01*
X350944Y182696D01*
X351126Y182741D01*
X351318Y182760D01*
X351372D01*
X351409Y182750D01*
D02*
G37*
G36*
X348293Y184299D02*
X348348Y184272D01*
X348393Y184245D01*
X348439Y184199D01*
X348466Y184135D01*
X348475Y184044D01*
Y179908D01*
Y179899D01*
Y179872D01*
X348494Y179844D01*
X348512Y179799D01*
X348539Y179753D01*
X348585Y179717D01*
X348649Y179671D01*
X348730Y179644D01*
X348740D01*
X348767Y179635D01*
X348813Y179617D01*
X348858Y179589D01*
X348904Y179562D01*
X348949Y179516D01*
X348976Y179462D01*
X348986Y179389D01*
Y179380D01*
Y179352D01*
X348976Y179307D01*
X348958Y179261D01*
X348922Y179216D01*
X348876Y179170D01*
X348813Y179143D01*
X348730Y179134D01*
X348676D01*
X348612Y179143D01*
X348530Y179161D01*
X348439Y179179D01*
X348348Y179216D01*
X348257Y179271D01*
X348166Y179334D01*
X348156Y179343D01*
X348129Y179371D01*
X348102Y179416D01*
X348065Y179489D01*
X348020Y179571D01*
X347993Y179662D01*
X347965Y179781D01*
X347956Y179908D01*
Y184044D01*
Y184053D01*
Y184090D01*
X347974Y184126D01*
X347993Y184181D01*
X348020Y184226D01*
X348065Y184272D01*
X348129Y184299D01*
X348211Y184308D01*
X348257D01*
X348293Y184299D01*
D02*
G37*
G36*
X328597D02*
X328652Y184272D01*
X328698Y184245D01*
X328743Y184199D01*
X328770Y184135D01*
X328780Y184044D01*
Y179389D01*
Y179380D01*
Y179352D01*
X328770Y179307D01*
X328743Y179261D01*
X328716Y179216D01*
X328670Y179170D01*
X328607Y179143D01*
X328515Y179134D01*
X328488D01*
X328461Y179143D01*
X328424Y179152D01*
X328351Y179189D01*
X328315Y179216D01*
X328288Y179261D01*
X326192Y183051D01*
Y179389D01*
Y179380D01*
Y179352D01*
X326183Y179307D01*
X326156Y179261D01*
X326129Y179216D01*
X326083Y179170D01*
X326019Y179143D01*
X325928Y179134D01*
X325892D01*
X325846Y179152D01*
X325801Y179170D01*
X325755Y179198D01*
X325710Y179243D01*
X325682Y179307D01*
X325673Y179389D01*
Y184044D01*
Y184053D01*
Y184090D01*
X325691Y184126D01*
X325710Y184181D01*
X325737Y184226D01*
X325782Y184272D01*
X325846Y184299D01*
X325928Y184308D01*
X325956D01*
X325983Y184299D01*
X326019Y184290D01*
X326056Y184272D01*
X326101Y184245D01*
X326138Y184208D01*
X326174Y184153D01*
X328260Y180391D01*
Y184044D01*
Y184053D01*
Y184090D01*
X328278Y184126D01*
X328297Y184181D01*
X328324Y184226D01*
X328370Y184272D01*
X328433Y184299D01*
X328515Y184308D01*
X328561D01*
X328597Y184299D01*
D02*
G37*
G36*
X317720Y182750D02*
X317775Y182723D01*
X317820Y182696D01*
X317866Y182650D01*
X317893Y182587D01*
X317902Y182495D01*
Y182486D01*
Y182468D01*
X317884Y182413D01*
X316335Y177758D01*
Y177749D01*
X316326Y177731D01*
X316281Y177667D01*
X316244Y177631D01*
X316208Y177603D01*
X316153Y177585D01*
X316089Y177576D01*
X315525D01*
X315479Y177594D01*
X315433Y177612D01*
X315388Y177640D01*
X315342Y177685D01*
X315315Y177749D01*
X315306Y177840D01*
Y177849D01*
Y177877D01*
X315315Y177913D01*
X315333Y177950D01*
X315360Y177995D01*
X315397Y178041D01*
X315452Y178068D01*
X315525Y178095D01*
X315898D01*
X316326Y179389D01*
X315324Y182413D01*
Y182423D01*
X315315Y182441D01*
X315306Y182495D01*
Y182505D01*
Y182541D01*
X315324Y182577D01*
X315342Y182632D01*
X315370Y182678D01*
X315415Y182723D01*
X315479Y182750D01*
X315570Y182760D01*
X315597D01*
X315634Y182750D01*
X315670Y182741D01*
X315707Y182714D01*
X315752Y182687D01*
X315789Y182641D01*
X315816Y182577D01*
X316599Y180209D01*
X317392Y182577D01*
Y182587D01*
X317401Y182605D01*
X317447Y182668D01*
X317474Y182705D01*
X317520Y182732D01*
X317574Y182750D01*
X317638Y182760D01*
X317684D01*
X317720Y182750D01*
D02*
G37*
G36*
X357093Y184299D02*
X357148Y184272D01*
X357194Y184245D01*
X357239Y184199D01*
X357266Y184135D01*
X357276Y184044D01*
Y181466D01*
X358925Y182705D01*
X358934Y182714D01*
X358970Y182732D01*
X359025Y182741D01*
X359079Y182750D01*
X359125D01*
X359161Y182741D01*
X359216Y182723D01*
X359262Y182687D01*
X359307Y182641D01*
X359334Y182577D01*
X359344Y182495D01*
Y182486D01*
Y182477D01*
X359334Y182423D01*
X359298Y182350D01*
X359280Y182313D01*
X359243Y182286D01*
X358232Y181530D01*
X359316Y179507D01*
X359325Y179498D01*
X359334Y179480D01*
X359344Y179435D01*
Y179389D01*
Y179371D01*
X359334Y179325D01*
X359307Y179271D01*
X359262Y179207D01*
X359253Y179198D01*
X359216Y179170D01*
X359152Y179143D01*
X359079Y179134D01*
X359052D01*
X358997Y179152D01*
X358961Y179170D01*
X358925Y179189D01*
X358888Y179225D01*
X358852Y179271D01*
X357813Y181220D01*
X357276Y180810D01*
Y179389D01*
Y179380D01*
Y179352D01*
X357266Y179307D01*
X357239Y179261D01*
X357212Y179216D01*
X357166Y179170D01*
X357103Y179143D01*
X357012Y179134D01*
X356975D01*
X356929Y179152D01*
X356884Y179170D01*
X356838Y179198D01*
X356793Y179243D01*
X356766Y179307D01*
X356756Y179389D01*
Y184044D01*
Y184053D01*
Y184090D01*
X356775Y184126D01*
X356793Y184181D01*
X356820Y184226D01*
X356866Y184272D01*
X356929Y184299D01*
X357012Y184308D01*
X357057D01*
X357093Y184299D01*
D02*
G37*
G36*
X323942Y176425D02*
X323997Y176398D01*
X324042Y176371D01*
X324088Y176325D01*
X324115Y176261D01*
X324124Y176170D01*
Y171515D01*
Y171506D01*
Y171478D01*
X324115Y171433D01*
X324088Y171387D01*
X324061Y171342D01*
X324015Y171296D01*
X323951Y171269D01*
X323860Y171260D01*
X322548D01*
X322494Y171269D01*
X322412Y171278D01*
X322311Y171296D01*
X322193Y171333D01*
X322075Y171387D01*
X321947Y171451D01*
X321829Y171551D01*
X321819Y171570D01*
X321783Y171606D01*
X321738Y171670D01*
X321683Y171761D01*
X321628Y171861D01*
X321583Y171989D01*
X321546Y172134D01*
X321537Y172289D01*
Y173847D01*
Y173856D01*
Y173893D01*
X321546Y173947D01*
X321555Y174020D01*
X321574Y174102D01*
X321592Y174184D01*
X321628Y174275D01*
X321674Y174366D01*
Y174375D01*
X321692Y174385D01*
X321701Y174412D01*
X321728Y174448D01*
X321801Y174530D01*
X321892Y174630D01*
X322020Y174722D01*
X322175Y174804D01*
X322257Y174840D01*
X322357Y174867D01*
X322457Y174876D01*
X322567Y174886D01*
X323605D01*
Y176170D01*
Y176179D01*
Y176216D01*
X323623Y176252D01*
X323641Y176307D01*
X323669Y176352D01*
X323714Y176398D01*
X323778Y176425D01*
X323860Y176434D01*
X323906D01*
X323942Y176425D01*
D02*
G37*
G36*
X315670Y174876D02*
X315771Y174867D01*
X315898Y174840D01*
X316044Y174794D01*
X316199Y174722D01*
X316354Y174630D01*
X316499Y174503D01*
X316517Y174485D01*
X316554Y174439D01*
X316618Y174357D01*
X316691Y174248D01*
X316754Y174111D01*
X316818Y173956D01*
X316855Y173783D01*
X316873Y173583D01*
Y172809D01*
X314805D01*
Y172289D01*
Y172280D01*
Y172253D01*
X314814Y172216D01*
X314823Y172162D01*
X314841Y172107D01*
X314869Y172043D01*
X314905Y171989D01*
X314951Y171925D01*
X314960Y171916D01*
X314978Y171907D01*
X315014Y171879D01*
X315051Y171852D01*
X315106Y171825D01*
X315169Y171806D01*
X315242Y171788D01*
X315315Y171779D01*
X316654D01*
X316691Y171770D01*
X316745Y171743D01*
X316791Y171715D01*
X316836Y171670D01*
X316864Y171606D01*
X316873Y171515D01*
Y171506D01*
Y171478D01*
X316864Y171433D01*
X316836Y171387D01*
X316809Y171342D01*
X316763Y171296D01*
X316700Y171269D01*
X316609Y171260D01*
X315297D01*
X315242Y171269D01*
X315160Y171278D01*
X315060Y171296D01*
X314951Y171333D01*
X314823Y171387D01*
X314705Y171451D01*
X314586Y171551D01*
X314577Y171570D01*
X314541Y171606D01*
X314495Y171670D01*
X314440Y171761D01*
X314377Y171861D01*
X314331Y171989D01*
X314295Y172134D01*
X314286Y172289D01*
Y173583D01*
Y173592D01*
Y173610D01*
Y173638D01*
X314295Y173674D01*
X314304Y173774D01*
X314331Y173902D01*
X314377Y174048D01*
X314440Y174202D01*
X314531Y174357D01*
X314659Y174503D01*
X314677Y174521D01*
X314732Y174567D01*
X314805Y174621D01*
X314914Y174694D01*
X315051Y174767D01*
X315206Y174822D01*
X315388Y174867D01*
X315579Y174886D01*
X315634D01*
X315670Y174876D01*
D02*
G37*
G36*
X312555Y176425D02*
X312609Y176398D01*
X312655Y176371D01*
X312700Y176325D01*
X312728Y176261D01*
X312737Y176170D01*
Y172034D01*
Y172025D01*
Y171998D01*
X312755Y171970D01*
X312773Y171925D01*
X312801Y171879D01*
X312846Y171843D01*
X312910Y171797D01*
X312992Y171770D01*
X313001D01*
X313028Y171761D01*
X313074Y171743D01*
X313120Y171715D01*
X313165Y171688D01*
X313211Y171642D01*
X313238Y171588D01*
X313247Y171515D01*
Y171506D01*
Y171478D01*
X313238Y171433D01*
X313220Y171387D01*
X313183Y171342D01*
X313138Y171296D01*
X313074Y171269D01*
X312992Y171260D01*
X312937D01*
X312874Y171269D01*
X312791Y171287D01*
X312700Y171305D01*
X312609Y171342D01*
X312518Y171397D01*
X312427Y171460D01*
X312418Y171469D01*
X312391Y171497D01*
X312363Y171542D01*
X312327Y171615D01*
X312281Y171697D01*
X312254Y171788D01*
X312227Y171907D01*
X312218Y172034D01*
Y176170D01*
Y176179D01*
Y176216D01*
X312236Y176252D01*
X312254Y176307D01*
X312281Y176352D01*
X312327Y176398D01*
X312391Y176425D01*
X312473Y176434D01*
X312518D01*
X312555Y176425D01*
D02*
G37*
G36*
X336186Y174867D02*
X336286Y174849D01*
X336396Y174813D01*
X336523Y174758D01*
X336642Y174685D01*
X336760Y174585D01*
X336769Y174576D01*
X336806Y174530D01*
X336860Y174467D01*
X336915Y174385D01*
X336969Y174275D01*
X337024Y174148D01*
X337061Y174002D01*
X337070Y173847D01*
Y171515D01*
Y171506D01*
Y171478D01*
X337061Y171433D01*
X337033Y171387D01*
X337006Y171342D01*
X336960Y171296D01*
X336897Y171269D01*
X336806Y171260D01*
X335494D01*
X335439Y171269D01*
X335357Y171278D01*
X335257Y171296D01*
X335138Y171333D01*
X335020Y171387D01*
X334892Y171451D01*
X334774Y171551D01*
X334765Y171570D01*
X334728Y171606D01*
X334683Y171670D01*
X334628Y171761D01*
X334564Y171861D01*
X334519Y171989D01*
X334482Y172134D01*
X334473Y172289D01*
Y172298D01*
Y172335D01*
X334482Y172389D01*
X334491Y172462D01*
X334510Y172544D01*
X334528Y172626D01*
X334564Y172717D01*
X334610Y172809D01*
Y172818D01*
X334628Y172827D01*
X334637Y172854D01*
X334665Y172890D01*
X334737Y172973D01*
X334829Y173073D01*
X334956Y173164D01*
X335111Y173246D01*
X335202Y173282D01*
X335302Y173310D01*
X335402Y173319D01*
X335512Y173328D01*
X336550D01*
Y173847D01*
Y173856D01*
Y173883D01*
X336541Y173920D01*
X336532Y173975D01*
X336514Y174029D01*
X336487Y174093D01*
X336450Y174157D01*
X336396Y174212D01*
X336386Y174221D01*
X336368Y174239D01*
X336341Y174257D01*
X336295Y174293D01*
X336241Y174321D01*
X336177Y174339D01*
X336113Y174357D01*
X336031Y174366D01*
X334956D01*
X334911Y174385D01*
X334865Y174403D01*
X334820Y174430D01*
X334774Y174476D01*
X334747Y174539D01*
X334737Y174621D01*
Y174630D01*
Y174667D01*
X334756Y174703D01*
X334774Y174758D01*
X334801Y174804D01*
X334847Y174849D01*
X334911Y174876D01*
X334993Y174886D01*
X336104D01*
X336186Y174867D01*
D02*
G37*
G36*
X329126Y176425D02*
X329180Y176398D01*
X329226Y176371D01*
X329272Y176325D01*
X329299Y176261D01*
X329308Y176170D01*
Y172034D01*
Y172025D01*
Y171998D01*
X329326Y171970D01*
X329344Y171925D01*
X329372Y171879D01*
X329417Y171843D01*
X329481Y171797D01*
X329563Y171770D01*
X329572D01*
X329599Y171761D01*
X329645Y171743D01*
X329691Y171715D01*
X329736Y171688D01*
X329782Y171642D01*
X329809Y171588D01*
X329818Y171515D01*
Y171506D01*
Y171478D01*
X329809Y171433D01*
X329791Y171387D01*
X329754Y171342D01*
X329709Y171296D01*
X329645Y171269D01*
X329563Y171260D01*
X329508D01*
X329445Y171269D01*
X329363Y171287D01*
X329272Y171305D01*
X329180Y171342D01*
X329089Y171397D01*
X328998Y171460D01*
X328989Y171469D01*
X328962Y171497D01*
X328934Y171542D01*
X328898Y171615D01*
X328852Y171697D01*
X328825Y171788D01*
X328798Y171907D01*
X328789Y172034D01*
Y176170D01*
Y176179D01*
Y176216D01*
X328807Y176252D01*
X328825Y176307D01*
X328852Y176352D01*
X328898Y176398D01*
X328962Y176425D01*
X329044Y176434D01*
X329089D01*
X329126Y176425D01*
D02*
G37*
G36*
X326548Y174876D02*
X326648Y174867D01*
X326775Y174840D01*
X326912Y174794D01*
X327067Y174722D01*
X327222Y174630D01*
X327367Y174503D01*
X327386Y174485D01*
X327431Y174439D01*
X327486Y174357D01*
X327559Y174248D01*
X327632Y174111D01*
X327686Y173956D01*
X327732Y173783D01*
X327750Y173583D01*
Y172554D01*
Y172544D01*
Y172526D01*
Y172499D01*
X327741Y172462D01*
X327732Y172362D01*
X327705Y172235D01*
X327659Y172089D01*
X327586Y171943D01*
X327495Y171779D01*
X327367Y171633D01*
X327349Y171615D01*
X327304Y171579D01*
X327222Y171515D01*
X327112Y171451D01*
X326976Y171378D01*
X326821Y171315D01*
X326648Y171278D01*
X326456Y171260D01*
X326402D01*
X326365Y171269D01*
X326265Y171278D01*
X326138Y171305D01*
X325992Y171351D01*
X325846Y171415D01*
X325682Y171506D01*
X325536Y171633D01*
X325518Y171652D01*
X325482Y171706D01*
X325418Y171779D01*
X325354Y171888D01*
X325281Y172025D01*
X325218Y172180D01*
X325181Y172362D01*
X325163Y172554D01*
Y173583D01*
Y173592D01*
Y173610D01*
Y173638D01*
X325172Y173674D01*
X325181Y173774D01*
X325208Y173902D01*
X325254Y174048D01*
X325318Y174202D01*
X325409Y174357D01*
X325536Y174503D01*
X325555Y174521D01*
X325609Y174567D01*
X325682Y174621D01*
X325792Y174694D01*
X325928Y174767D01*
X326083Y174822D01*
X326265Y174867D01*
X326456Y174886D01*
X326511D01*
X326548Y174876D01*
D02*
G37*
G36*
X310295Y174867D02*
X310396Y174849D01*
X310505Y174813D01*
X310632Y174758D01*
X310751Y174685D01*
X310869Y174585D01*
X310878Y174576D01*
X310915Y174530D01*
X310969Y174467D01*
X311024Y174385D01*
X311079Y174275D01*
X311134Y174148D01*
X311170Y174002D01*
X311179Y173847D01*
Y171515D01*
Y171506D01*
Y171478D01*
X311170Y171433D01*
X311143Y171387D01*
X311115Y171342D01*
X311070Y171296D01*
X311006Y171269D01*
X310915Y171260D01*
X309603D01*
X309548Y171269D01*
X309466Y171278D01*
X309366Y171296D01*
X309248Y171333D01*
X309129Y171387D01*
X309002Y171451D01*
X308883Y171551D01*
X308874Y171570D01*
X308838Y171606D01*
X308792Y171670D01*
X308738Y171761D01*
X308674Y171861D01*
X308628Y171989D01*
X308592Y172134D01*
X308583Y172289D01*
Y172298D01*
Y172335D01*
X308592Y172389D01*
X308601Y172462D01*
X308619Y172544D01*
X308637Y172626D01*
X308674Y172717D01*
X308719Y172809D01*
Y172818D01*
X308738Y172827D01*
X308747Y172854D01*
X308774Y172890D01*
X308847Y172973D01*
X308938Y173073D01*
X309066Y173164D01*
X309220Y173246D01*
X309312Y173282D01*
X309412Y173310D01*
X309512Y173319D01*
X309621Y173328D01*
X310660D01*
Y173847D01*
Y173856D01*
Y173883D01*
X310651Y173920D01*
X310642Y173975D01*
X310623Y174029D01*
X310596Y174093D01*
X310560Y174157D01*
X310505Y174212D01*
X310496Y174221D01*
X310478Y174239D01*
X310450Y174257D01*
X310405Y174293D01*
X310350Y174321D01*
X310286Y174339D01*
X310223Y174357D01*
X310140Y174366D01*
X309066D01*
X309020Y174385D01*
X308974Y174403D01*
X308929Y174430D01*
X308883Y174476D01*
X308856Y174539D01*
X308847Y174621D01*
Y174630D01*
Y174667D01*
X308865Y174703D01*
X308883Y174758D01*
X308911Y174804D01*
X308956Y174849D01*
X309020Y174876D01*
X309102Y174886D01*
X310213D01*
X310295Y174867D01*
D02*
G37*
G36*
X294763D02*
X294863Y174849D01*
X294972Y174813D01*
X295100Y174758D01*
X295218Y174685D01*
X295337Y174585D01*
X295346Y174576D01*
X295382Y174530D01*
X295437Y174467D01*
X295492Y174385D01*
X295546Y174275D01*
X295601Y174148D01*
X295637Y174002D01*
X295647Y173847D01*
Y171515D01*
Y171506D01*
Y171478D01*
X295637Y171433D01*
X295610Y171387D01*
X295583Y171342D01*
X295537Y171296D01*
X295473Y171269D01*
X295382Y171260D01*
X295346D01*
X295300Y171278D01*
X295255Y171296D01*
X295209Y171324D01*
X295164Y171369D01*
X295136Y171433D01*
X295127Y171515D01*
Y173847D01*
Y173856D01*
Y173883D01*
X295118Y173920D01*
X295109Y173975D01*
X295091Y174029D01*
X295063Y174093D01*
X295027Y174157D01*
X294972Y174212D01*
X294963Y174221D01*
X294945Y174239D01*
X294918Y174257D01*
X294872Y174293D01*
X294817Y174321D01*
X294754Y174339D01*
X294690Y174357D01*
X294608Y174366D01*
X294089D01*
Y171515D01*
Y171506D01*
Y171478D01*
X294080Y171433D01*
X294052Y171387D01*
X294025Y171342D01*
X293979Y171296D01*
X293916Y171269D01*
X293825Y171260D01*
X293788D01*
X293742Y171278D01*
X293697Y171296D01*
X293651Y171324D01*
X293606Y171369D01*
X293579Y171433D01*
X293569Y171515D01*
Y174366D01*
X292531D01*
Y171515D01*
Y171506D01*
Y171478D01*
X292522Y171433D01*
X292494Y171387D01*
X292467Y171342D01*
X292422Y171296D01*
X292358Y171269D01*
X292267Y171260D01*
X292230D01*
X292185Y171278D01*
X292139Y171296D01*
X292094Y171324D01*
X292048Y171369D01*
X292021Y171433D01*
X292012Y171515D01*
Y174621D01*
Y174630D01*
Y174667D01*
X292030Y174703D01*
X292048Y174758D01*
X292075Y174804D01*
X292121Y174849D01*
X292185Y174876D01*
X292267Y174886D01*
X294681D01*
X294763Y174867D01*
D02*
G37*
G36*
X289771Y174876D02*
X289871Y174867D01*
X289998Y174840D01*
X290144Y174794D01*
X290299Y174722D01*
X290454Y174630D01*
X290600Y174503D01*
X290618Y174485D01*
X290654Y174439D01*
X290718Y174357D01*
X290791Y174248D01*
X290855Y174111D01*
X290918Y173956D01*
X290955Y173783D01*
X290973Y173583D01*
Y172809D01*
X288905D01*
Y172289D01*
Y172280D01*
Y172253D01*
X288914Y172216D01*
X288923Y172162D01*
X288942Y172107D01*
X288969Y172043D01*
X289005Y171989D01*
X289051Y171925D01*
X289060Y171916D01*
X289078Y171907D01*
X289115Y171879D01*
X289151Y171852D01*
X289206Y171825D01*
X289269Y171806D01*
X289342Y171788D01*
X289415Y171779D01*
X290754D01*
X290791Y171770D01*
X290845Y171743D01*
X290891Y171715D01*
X290937Y171670D01*
X290964Y171606D01*
X290973Y171515D01*
Y171506D01*
Y171478D01*
X290964Y171433D01*
X290937Y171387D01*
X290909Y171342D01*
X290864Y171296D01*
X290800Y171269D01*
X290709Y171260D01*
X289397D01*
X289342Y171269D01*
X289260Y171278D01*
X289160Y171296D01*
X289051Y171333D01*
X288923Y171387D01*
X288805Y171451D01*
X288686Y171551D01*
X288677Y171570D01*
X288641Y171606D01*
X288595Y171670D01*
X288541Y171761D01*
X288477Y171861D01*
X288431Y171989D01*
X288395Y172134D01*
X288386Y172289D01*
Y173583D01*
Y173592D01*
Y173610D01*
Y173638D01*
X288395Y173674D01*
X288404Y173774D01*
X288431Y173902D01*
X288477Y174048D01*
X288541Y174202D01*
X288632Y174357D01*
X288759Y174503D01*
X288778Y174521D01*
X288832Y174567D01*
X288905Y174621D01*
X289014Y174694D01*
X289151Y174767D01*
X289306Y174822D01*
X289488Y174867D01*
X289679Y174886D01*
X289734D01*
X289771Y174876D01*
D02*
G37*
G36*
X353459D02*
X353513Y174849D01*
X353559Y174822D01*
X353604Y174776D01*
X353632Y174713D01*
X353641Y174621D01*
Y170741D01*
Y170731D01*
Y170722D01*
Y170668D01*
X353623Y170586D01*
X353604Y170485D01*
X353568Y170367D01*
X353513Y170249D01*
X353440Y170121D01*
X353340Y170003D01*
X353331Y169994D01*
X353286Y169957D01*
X353222Y169912D01*
X353140Y169857D01*
X353030Y169793D01*
X352903Y169748D01*
X352757Y169711D01*
X352602Y169702D01*
X351536D01*
X351491Y169720D01*
X351445Y169738D01*
X351391Y169766D01*
X351354Y169811D01*
X351318Y169875D01*
X351309Y169966D01*
Y169975D01*
Y170003D01*
X351327Y170048D01*
X351345Y170094D01*
X351372Y170139D01*
X351418Y170185D01*
X351482Y170212D01*
X351573Y170221D01*
X352639D01*
X352675Y170230D01*
X352730Y170239D01*
X352784Y170258D01*
X352848Y170285D01*
X352903Y170322D01*
X352967Y170376D01*
X352976Y170385D01*
X352994Y170404D01*
X353012Y170440D01*
X353049Y170476D01*
X353076Y170531D01*
X353094Y170595D01*
X353112Y170668D01*
X353121Y170741D01*
Y171260D01*
X352028D01*
X351983Y171269D01*
X351873Y171287D01*
X351746Y171324D01*
X351600Y171387D01*
X351454Y171478D01*
X351381Y171533D01*
X351309Y171606D01*
X351245Y171679D01*
X351190Y171770D01*
X351181Y171779D01*
X351172Y171816D01*
X351145Y171861D01*
X351126Y171925D01*
X351099Y171998D01*
X351072Y172089D01*
X351063Y172189D01*
X351054Y172289D01*
Y173847D01*
Y173856D01*
Y173865D01*
X351063Y173920D01*
X351072Y174002D01*
X351090Y174102D01*
X351126Y174221D01*
X351181Y174339D01*
X351245Y174467D01*
X351345Y174585D01*
X351363Y174594D01*
X351400Y174630D01*
X351464Y174676D01*
X351555Y174740D01*
X351655Y174794D01*
X351782Y174840D01*
X351928Y174876D01*
X352083Y174886D01*
X353422D01*
X353459Y174876D01*
D02*
G37*
G36*
X302197Y176425D02*
X302251Y176398D01*
X302297Y176371D01*
X302342Y176325D01*
X302370Y176261D01*
X302379Y176170D01*
Y172034D01*
Y172025D01*
Y171998D01*
X302397Y171970D01*
X302415Y171925D01*
X302443Y171879D01*
X302488Y171843D01*
X302552Y171797D01*
X302634Y171770D01*
X302643D01*
X302670Y171761D01*
X302716Y171743D01*
X302761Y171715D01*
X302807Y171688D01*
X302853Y171642D01*
X302880Y171588D01*
X302889Y171515D01*
Y171506D01*
Y171478D01*
X302880Y171433D01*
X302862Y171387D01*
X302825Y171342D01*
X302780Y171296D01*
X302716Y171269D01*
X302634Y171260D01*
X302579D01*
X302515Y171269D01*
X302433Y171287D01*
X302342Y171305D01*
X302251Y171342D01*
X302160Y171397D01*
X302069Y171460D01*
X302060Y171469D01*
X302033Y171497D01*
X302005Y171542D01*
X301969Y171615D01*
X301923Y171697D01*
X301896Y171788D01*
X301869Y171907D01*
X301859Y172034D01*
Y176170D01*
Y176179D01*
Y176216D01*
X301878Y176252D01*
X301896Y176307D01*
X301923Y176352D01*
X301969Y176398D01*
X302033Y176425D01*
X302115Y176434D01*
X302160D01*
X302197Y176425D01*
D02*
G37*
G36*
X300639Y174867D02*
X300693Y174849D01*
X300739Y174813D01*
X300784Y174767D01*
X300812Y174703D01*
X300821Y174621D01*
Y171515D01*
Y171506D01*
Y171478D01*
X300812Y171433D01*
X300784Y171387D01*
X300757Y171342D01*
X300712Y171296D01*
X300648Y171269D01*
X300557Y171260D01*
X300520D01*
X300475Y171278D01*
X300429Y171296D01*
X300384Y171324D01*
X300338Y171369D01*
X300311Y171433D01*
X300302Y171515D01*
Y174621D01*
Y174630D01*
Y174658D01*
X300320Y174703D01*
X300338Y174749D01*
X300365Y174794D01*
X300411Y174840D01*
X300475Y174867D01*
X300557Y174876D01*
X300602D01*
X300639Y174867D01*
D02*
G37*
G36*
X298379D02*
X298480Y174849D01*
X298589Y174813D01*
X298717Y174758D01*
X298835Y174685D01*
X298953Y174585D01*
X298962Y174576D01*
X298999Y174530D01*
X299054Y174467D01*
X299108Y174385D01*
X299163Y174275D01*
X299218Y174148D01*
X299254Y174002D01*
X299263Y173847D01*
Y171515D01*
Y171506D01*
Y171478D01*
X299254Y171433D01*
X299227Y171387D01*
X299199Y171342D01*
X299154Y171296D01*
X299090Y171269D01*
X298999Y171260D01*
X297687D01*
X297633Y171269D01*
X297551Y171278D01*
X297450Y171296D01*
X297332Y171333D01*
X297213Y171387D01*
X297086Y171451D01*
X296968Y171551D01*
X296958Y171570D01*
X296922Y171606D01*
X296876Y171670D01*
X296822Y171761D01*
X296758Y171861D01*
X296712Y171989D01*
X296676Y172134D01*
X296667Y172289D01*
Y172298D01*
Y172335D01*
X296676Y172389D01*
X296685Y172462D01*
X296703Y172544D01*
X296722Y172626D01*
X296758Y172717D01*
X296803Y172809D01*
Y172818D01*
X296822Y172827D01*
X296831Y172854D01*
X296858Y172890D01*
X296931Y172973D01*
X297022Y173073D01*
X297150Y173164D01*
X297305Y173246D01*
X297396Y173282D01*
X297496Y173310D01*
X297596Y173319D01*
X297705Y173328D01*
X298744D01*
Y173847D01*
Y173856D01*
Y173883D01*
X298735Y173920D01*
X298726Y173975D01*
X298708Y174029D01*
X298680Y174093D01*
X298644Y174157D01*
X298589Y174212D01*
X298580Y174221D01*
X298562Y174239D01*
X298534Y174257D01*
X298489Y174293D01*
X298434Y174321D01*
X298370Y174339D01*
X298307Y174357D01*
X298225Y174366D01*
X297150D01*
X297104Y174385D01*
X297059Y174403D01*
X297013Y174430D01*
X296968Y174476D01*
X296940Y174539D01*
X296931Y174621D01*
Y174630D01*
Y174667D01*
X296949Y174703D01*
X296968Y174758D01*
X296995Y174804D01*
X297040Y174849D01*
X297104Y174876D01*
X297186Y174886D01*
X298298D01*
X298379Y174867D01*
D02*
G37*
G36*
X339493Y176425D02*
X339593Y176416D01*
X339721Y176389D01*
X339857Y176343D01*
X340012Y176270D01*
X340167Y176179D01*
X340313Y176052D01*
X340331Y176033D01*
X340377Y175988D01*
X340431Y175906D01*
X340504Y175797D01*
X340577Y175669D01*
X340632Y175514D01*
X340677Y175332D01*
X340695Y175141D01*
Y173583D01*
Y173565D01*
Y173528D01*
X340686Y173455D01*
X340677Y173364D01*
X340659Y173255D01*
X340632Y173127D01*
X340595Y172982D01*
X340541Y172836D01*
X340477Y172672D01*
X340395Y172499D01*
X340295Y172326D01*
X340176Y172153D01*
X340039Y171979D01*
X339876Y171816D01*
X339684Y171652D01*
X339466Y171506D01*
X339447Y171497D01*
X339402Y171469D01*
X339329Y171424D01*
X339247Y171387D01*
X339156Y171342D01*
X339056Y171296D01*
X338965Y171269D01*
X338883Y171260D01*
X338864D01*
X338819Y171269D01*
X338764Y171287D01*
X338700Y171333D01*
X338691Y171351D01*
X338664Y171387D01*
X338637Y171442D01*
X338628Y171515D01*
Y171524D01*
Y171542D01*
X338637Y171579D01*
X338646Y171615D01*
X338682Y171688D01*
X338709Y171715D01*
X338755Y171734D01*
X338764Y171743D01*
X338801Y171752D01*
X338855Y171770D01*
X338919Y171797D01*
X339074Y171870D01*
X339147Y171907D01*
X339220Y171952D01*
X339229Y171961D01*
X339256Y171979D01*
X339302Y172007D01*
X339356Y172052D01*
X339420Y172107D01*
X339493Y172171D01*
X339566Y172244D01*
X339648Y172326D01*
X339739Y172417D01*
X339821Y172526D01*
X339894Y172635D01*
X339967Y172763D01*
X340030Y172890D01*
X340085Y173027D01*
X340131Y173173D01*
X340158Y173328D01*
X339338D01*
X339302Y173337D01*
X339201Y173346D01*
X339083Y173373D01*
X338937Y173419D01*
X338782Y173483D01*
X338628Y173574D01*
X338482Y173701D01*
X338463Y173720D01*
X338427Y173774D01*
X338363Y173847D01*
X338299Y173956D01*
X338227Y174093D01*
X338163Y174248D01*
X338126Y174430D01*
X338108Y174621D01*
Y175132D01*
Y175141D01*
Y175159D01*
Y175186D01*
X338117Y175223D01*
X338126Y175323D01*
X338154Y175450D01*
X338199Y175596D01*
X338263Y175751D01*
X338354Y175906D01*
X338482Y176052D01*
X338500Y176070D01*
X338555Y176116D01*
X338628Y176170D01*
X338737Y176243D01*
X338874Y176316D01*
X339028Y176371D01*
X339211Y176416D01*
X339402Y176434D01*
X339457D01*
X339493Y176425D01*
D02*
G37*
G36*
X304265Y172280D02*
X304319Y172253D01*
X304365Y172225D01*
X304410Y172180D01*
X304438Y172116D01*
X304447Y172025D01*
Y171770D01*
Y171761D01*
Y171734D01*
X304438Y171688D01*
X304410Y171642D01*
X304383Y171597D01*
X304337Y171551D01*
X304274Y171524D01*
X304183Y171515D01*
X304146D01*
X304101Y171533D01*
X304055Y171551D01*
X304010Y171579D01*
X303964Y171624D01*
X303937Y171688D01*
X303927Y171770D01*
Y172025D01*
Y172034D01*
Y172071D01*
X303946Y172107D01*
X303964Y172162D01*
X303991Y172207D01*
X304037Y172253D01*
X304101Y172280D01*
X304183Y172289D01*
X304228D01*
X304265Y172280D01*
D02*
G37*
G36*
X377637Y174867D02*
X377737Y174849D01*
X377846Y174813D01*
X377974Y174758D01*
X378092Y174685D01*
X378210Y174585D01*
X378220Y174576D01*
X378256Y174530D01*
X378311Y174467D01*
X378365Y174385D01*
X378420Y174275D01*
X378475Y174148D01*
X378511Y174002D01*
X378520Y173847D01*
Y171515D01*
Y171506D01*
Y171478D01*
X378511Y171433D01*
X378484Y171387D01*
X378456Y171342D01*
X378411Y171296D01*
X378347Y171269D01*
X378256Y171260D01*
X378220D01*
X378174Y171278D01*
X378128Y171296D01*
X378083Y171324D01*
X378037Y171369D01*
X378010Y171433D01*
X378001Y171515D01*
Y173847D01*
Y173856D01*
Y173883D01*
X377992Y173920D01*
X377983Y173975D01*
X377964Y174029D01*
X377937Y174093D01*
X377901Y174157D01*
X377846Y174212D01*
X377837Y174221D01*
X377819Y174239D01*
X377791Y174257D01*
X377746Y174293D01*
X377691Y174321D01*
X377627Y174339D01*
X377564Y174357D01*
X377482Y174366D01*
X376962D01*
Y171515D01*
Y171506D01*
Y171478D01*
X376953Y171433D01*
X376926Y171387D01*
X376899Y171342D01*
X376853Y171296D01*
X376789Y171269D01*
X376698Y171260D01*
X376662D01*
X376616Y171278D01*
X376571Y171296D01*
X376525Y171324D01*
X376480Y171369D01*
X376452Y171433D01*
X376443Y171515D01*
Y174366D01*
X375405D01*
Y171515D01*
Y171506D01*
Y171478D01*
X375395Y171433D01*
X375368Y171387D01*
X375341Y171342D01*
X375295Y171296D01*
X375232Y171269D01*
X375140Y171260D01*
X375104D01*
X375058Y171278D01*
X375013Y171296D01*
X374967Y171324D01*
X374922Y171369D01*
X374894Y171433D01*
X374885Y171515D01*
Y174621D01*
Y174630D01*
Y174667D01*
X374903Y174703D01*
X374922Y174758D01*
X374949Y174804D01*
X374995Y174849D01*
X375058Y174876D01*
X375140Y174886D01*
X377554D01*
X377637Y174867D01*
D02*
G37*
G36*
X372644Y174876D02*
X372744Y174867D01*
X372872Y174840D01*
X373009Y174794D01*
X373164Y174722D01*
X373318Y174630D01*
X373464Y174503D01*
X373482Y174485D01*
X373528Y174439D01*
X373583Y174357D01*
X373655Y174248D01*
X373728Y174111D01*
X373783Y173956D01*
X373829Y173783D01*
X373847Y173583D01*
Y172554D01*
Y172544D01*
Y172526D01*
Y172499D01*
X373838Y172462D01*
X373829Y172362D01*
X373801Y172235D01*
X373756Y172089D01*
X373683Y171943D01*
X373592Y171779D01*
X373464Y171633D01*
X373446Y171615D01*
X373400Y171579D01*
X373318Y171515D01*
X373209Y171451D01*
X373072Y171378D01*
X372918Y171315D01*
X372744Y171278D01*
X372553Y171260D01*
X372498D01*
X372462Y171269D01*
X372362Y171278D01*
X372234Y171305D01*
X372089Y171351D01*
X371943Y171415D01*
X371779Y171506D01*
X371633Y171633D01*
X371615Y171652D01*
X371578Y171706D01*
X371515Y171779D01*
X371451Y171888D01*
X371378Y172025D01*
X371314Y172180D01*
X371278Y172362D01*
X371259Y172554D01*
Y173583D01*
Y173592D01*
Y173610D01*
Y173638D01*
X371269Y173674D01*
X371278Y173774D01*
X371305Y173902D01*
X371351Y174048D01*
X371414Y174202D01*
X371505Y174357D01*
X371633Y174503D01*
X371651Y174521D01*
X371706Y174567D01*
X371779Y174621D01*
X371888Y174694D01*
X372025Y174767D01*
X372180Y174822D01*
X372362Y174867D01*
X372553Y174886D01*
X372608D01*
X372644Y174876D01*
D02*
G37*
G36*
X320316D02*
X320371Y174858D01*
X320417Y174822D01*
X320462Y174776D01*
X320490Y174713D01*
X320499Y174630D01*
Y174612D01*
X320490Y174576D01*
X320480Y174530D01*
X320453Y174476D01*
X319515Y173073D01*
X320453Y171661D01*
X320462Y171652D01*
X320480Y171615D01*
X320490Y171570D01*
X320499Y171515D01*
Y171506D01*
Y171478D01*
X320490Y171433D01*
X320462Y171387D01*
X320435Y171342D01*
X320389Y171296D01*
X320325Y171269D01*
X320234Y171260D01*
X320216D01*
X320152Y171278D01*
X320089Y171305D01*
X320052Y171333D01*
X320016Y171369D01*
X319196Y172599D01*
X318376Y171369D01*
X318367Y171351D01*
X318321Y171315D01*
X318257Y171278D01*
X318212Y171269D01*
X318166Y171260D01*
X318148D01*
X318103Y171269D01*
X318039Y171287D01*
X317975Y171333D01*
X317966Y171342D01*
X317939Y171387D01*
X317911Y171442D01*
X317902Y171515D01*
Y171533D01*
X317911Y171561D01*
X317920Y171615D01*
X317948Y171661D01*
X318886Y173073D01*
X317948Y174476D01*
X317939Y174485D01*
X317930Y174521D01*
X317911Y174567D01*
X317902Y174621D01*
Y174630D01*
Y174667D01*
X317920Y174703D01*
X317939Y174758D01*
X317966Y174804D01*
X318011Y174849D01*
X318075Y174876D01*
X318166Y174886D01*
X318194D01*
X318248Y174867D01*
X318312Y174840D01*
X318349Y174804D01*
X318376Y174767D01*
X319196Y173537D01*
X320016Y174767D01*
Y174776D01*
X320034Y174785D01*
X320070Y174831D01*
X320143Y174867D01*
X320189Y174876D01*
X320234Y174886D01*
X320280D01*
X320316Y174876D01*
D02*
G37*
G36*
X333262D02*
X333316Y174849D01*
X333362Y174822D01*
X333407Y174776D01*
X333435Y174713D01*
X333444Y174621D01*
Y174612D01*
Y174594D01*
X333426Y174539D01*
X331877Y169884D01*
Y169875D01*
X331868Y169857D01*
X331822Y169793D01*
X331786Y169757D01*
X331749Y169729D01*
X331695Y169711D01*
X331631Y169702D01*
X331066D01*
X331021Y169720D01*
X330975Y169738D01*
X330929Y169766D01*
X330884Y169811D01*
X330857Y169875D01*
X330848Y169966D01*
Y169975D01*
Y170003D01*
X330857Y170039D01*
X330875Y170076D01*
X330902Y170121D01*
X330939Y170167D01*
X330993Y170194D01*
X331066Y170221D01*
X331440D01*
X331868Y171515D01*
X330866Y174539D01*
Y174549D01*
X330857Y174567D01*
X330848Y174621D01*
Y174630D01*
Y174667D01*
X330866Y174703D01*
X330884Y174758D01*
X330911Y174804D01*
X330957Y174849D01*
X331021Y174876D01*
X331112Y174886D01*
X331139D01*
X331175Y174876D01*
X331212Y174867D01*
X331248Y174840D01*
X331294Y174813D01*
X331330Y174767D01*
X331358Y174703D01*
X332141Y172335D01*
X332934Y174703D01*
Y174713D01*
X332943Y174731D01*
X332988Y174794D01*
X333016Y174831D01*
X333061Y174858D01*
X333116Y174876D01*
X333180Y174886D01*
X333225D01*
X333262Y174876D01*
D02*
G37*
G36*
X347856Y176434D02*
X347938Y176425D01*
X348038Y176407D01*
X348138Y176389D01*
X348257Y176361D01*
X348384Y176325D01*
X348521Y176279D01*
X348658Y176225D01*
X348794Y176152D01*
X348931Y176079D01*
X349077Y175988D01*
X349213Y175879D01*
X349341Y175760D01*
X349350Y175751D01*
X349368Y175733D01*
X349405Y175687D01*
X349450Y175642D01*
X349496Y175569D01*
X349559Y175496D01*
X349623Y175405D01*
X349687Y175296D01*
X349751Y175177D01*
X349805Y175059D01*
X349869Y174922D01*
X349915Y174776D01*
X349960Y174621D01*
X349997Y174457D01*
X350015Y174284D01*
X350024Y174102D01*
Y172289D01*
Y172271D01*
Y172216D01*
X350015Y172143D01*
X349997Y172043D01*
X349969Y171934D01*
X349924Y171806D01*
X349869Y171688D01*
X349787Y171570D01*
X349778Y171561D01*
X349742Y171524D01*
X349687Y171469D01*
X349605Y171415D01*
X349514Y171360D01*
X349395Y171305D01*
X349259Y171269D01*
X349113Y171260D01*
X349067D01*
X349031Y171269D01*
X348949Y171278D01*
X348849Y171305D01*
X348740Y171351D01*
X348630Y171424D01*
X348530Y171515D01*
X348457Y171642D01*
X348448Y171624D01*
X348412Y171579D01*
X348357Y171524D01*
X348275Y171451D01*
X348166Y171378D01*
X348029Y171324D01*
X347874Y171278D01*
X347683Y171260D01*
X347665D01*
X347610Y171269D01*
X347528Y171278D01*
X347428Y171296D01*
X347309Y171333D01*
X347191Y171387D01*
X347063Y171451D01*
X346945Y171551D01*
X346936Y171570D01*
X346899Y171606D01*
X346854Y171670D01*
X346799Y171761D01*
X346744Y171861D01*
X346699Y171989D01*
X346662Y172134D01*
X346653Y172289D01*
Y173847D01*
Y173856D01*
Y173865D01*
X346662Y173920D01*
X346672Y174002D01*
X346690Y174102D01*
X346726Y174221D01*
X346781Y174339D01*
X346845Y174467D01*
X346945Y174585D01*
X346963Y174594D01*
X347000Y174630D01*
X347063Y174676D01*
X347154Y174740D01*
X347255Y174794D01*
X347382Y174840D01*
X347528Y174876D01*
X347683Y174886D01*
X348503D01*
X348539Y174876D01*
X348594Y174849D01*
X348639Y174822D01*
X348685Y174776D01*
X348712Y174713D01*
X348721Y174621D01*
Y172289D01*
Y172280D01*
Y172271D01*
X348730Y172207D01*
X348740Y172125D01*
X348767Y172034D01*
X348822Y171943D01*
X348885Y171861D01*
X348986Y171797D01*
X349040Y171788D01*
X349113Y171779D01*
X349149D01*
X349177Y171788D01*
X349222Y171797D01*
X349268Y171816D01*
X349323Y171852D01*
X349368Y171888D01*
X349414Y171943D01*
Y171952D01*
X349432Y171970D01*
X349441Y171998D01*
X349459Y172043D01*
X349478Y172089D01*
X349487Y172153D01*
X349505Y172289D01*
Y174102D01*
Y174111D01*
Y174139D01*
Y174175D01*
X349496Y174230D01*
X349487Y174293D01*
X349478Y174366D01*
X349441Y174549D01*
X349377Y174749D01*
X349332Y174858D01*
X349277Y174968D01*
X349213Y175068D01*
X349149Y175177D01*
X349058Y175286D01*
X348967Y175387D01*
X348958Y175396D01*
X348940Y175414D01*
X348913Y175432D01*
X348876Y175469D01*
X348822Y175514D01*
X348758Y175560D01*
X348694Y175605D01*
X348612Y175660D01*
X348421Y175751D01*
X348211Y175842D01*
X348084Y175879D01*
X347965Y175897D01*
X347829Y175915D01*
X347692Y175924D01*
X347619D01*
X347564Y175915D01*
X347501Y175906D01*
X347428Y175897D01*
X347246Y175860D01*
X347045Y175797D01*
X346936Y175751D01*
X346836Y175696D01*
X346726Y175633D01*
X346617Y175569D01*
X346508Y175478D01*
X346407Y175387D01*
X346398Y175378D01*
X346389Y175359D01*
X346362Y175332D01*
X346325Y175296D01*
X346289Y175241D01*
X346243Y175177D01*
X346189Y175104D01*
X346143Y175031D01*
X346043Y174840D01*
X345961Y174621D01*
X345925Y174503D01*
X345906Y174375D01*
X345888Y174239D01*
X345879Y174102D01*
Y172034D01*
Y172025D01*
Y171998D01*
Y171961D01*
X345888Y171907D01*
X345897Y171843D01*
X345906Y171770D01*
X345943Y171597D01*
X346007Y171397D01*
X346052Y171287D01*
X346107Y171178D01*
X346162Y171069D01*
X346234Y170968D01*
X346316Y170859D01*
X346407Y170759D01*
X346416Y170750D01*
X346435Y170731D01*
X346462Y170713D01*
X346508Y170677D01*
X346553Y170631D01*
X346617Y170586D01*
X346690Y170540D01*
X346772Y170495D01*
X346954Y170394D01*
X347173Y170303D01*
X347291Y170267D01*
X347419Y170249D01*
X347546Y170230D01*
X347683Y170221D01*
X347728D01*
X347765Y170212D01*
X347819Y170194D01*
X347865Y170158D01*
X347911Y170112D01*
X347938Y170048D01*
X347947Y169966D01*
Y169948D01*
X347938Y169902D01*
X347911Y169848D01*
X347865Y169784D01*
X347856Y169775D01*
X347819Y169748D01*
X347756Y169711D01*
X347683Y169702D01*
X347637D01*
X347592Y169711D01*
X347519D01*
X347437Y169720D01*
X347346Y169738D01*
X347236Y169757D01*
X347118Y169793D01*
X346990Y169830D01*
X346863Y169875D01*
X346726Y169930D01*
X346590Y169994D01*
X346444Y170076D01*
X346307Y170167D01*
X346171Y170276D01*
X346043Y170394D01*
X346034Y170404D01*
X346016Y170422D01*
X345979Y170467D01*
X345934Y170513D01*
X345888Y170586D01*
X345824Y170659D01*
X345770Y170750D01*
X345706Y170859D01*
X345642Y170968D01*
X345578Y171096D01*
X345515Y171232D01*
X345469Y171378D01*
X345424Y171524D01*
X345387Y171688D01*
X345369Y171861D01*
X345360Y172034D01*
Y174102D01*
Y174111D01*
Y174148D01*
X345369Y174193D01*
Y174266D01*
X345378Y174348D01*
X345396Y174448D01*
X345414Y174549D01*
X345442Y174667D01*
X345478Y174794D01*
X345524Y174931D01*
X345578Y175068D01*
X345642Y175205D01*
X345724Y175341D01*
X345815Y175487D01*
X345916Y175624D01*
X346034Y175751D01*
X346043Y175760D01*
X346061Y175778D01*
X346107Y175815D01*
X346152Y175860D01*
X346225Y175915D01*
X346298Y175970D01*
X346389Y176033D01*
X346498Y176097D01*
X346617Y176161D01*
X346735Y176225D01*
X346872Y176279D01*
X347018Y176334D01*
X347182Y176380D01*
X347337Y176416D01*
X347510Y176434D01*
X347692Y176443D01*
X347783D01*
X347856Y176434D01*
D02*
G37*
G36*
X370048Y174876D02*
X370093Y174849D01*
X370139Y174822D01*
X370184Y174776D01*
X370212Y174713D01*
X370221Y174621D01*
Y174612D01*
Y174585D01*
X370212Y174539D01*
X370194Y174494D01*
X370157Y174448D01*
X370112Y174403D01*
X370048Y174375D01*
X369966Y174366D01*
X369146D01*
X369110Y174357D01*
X369055Y174348D01*
X369000Y174330D01*
X368936Y174303D01*
X368882Y174266D01*
X368818Y174212D01*
X368809Y174202D01*
X368800Y174184D01*
X368773Y174148D01*
X368745Y174111D01*
X368718Y174057D01*
X368700Y173993D01*
X368681Y173920D01*
X368672Y173847D01*
Y172289D01*
Y172280D01*
Y172253D01*
X368681Y172216D01*
X368690Y172162D01*
X368709Y172107D01*
X368736Y172043D01*
X368773Y171989D01*
X368818Y171925D01*
X368827Y171916D01*
X368845Y171907D01*
X368882Y171879D01*
X368918Y171852D01*
X368973Y171825D01*
X369037Y171806D01*
X369110Y171788D01*
X369182Y171779D01*
X370002D01*
X370048Y171770D01*
X370093Y171743D01*
X370139Y171715D01*
X370184Y171670D01*
X370212Y171606D01*
X370221Y171515D01*
Y171506D01*
Y171478D01*
X370212Y171433D01*
X370194Y171387D01*
X370157Y171342D01*
X370112Y171296D01*
X370048Y171269D01*
X369966Y171260D01*
X369164D01*
X369110Y171269D01*
X369028Y171278D01*
X368927Y171296D01*
X368818Y171333D01*
X368690Y171387D01*
X368572Y171451D01*
X368454Y171551D01*
X368444Y171570D01*
X368408Y171606D01*
X368362Y171670D01*
X368308Y171761D01*
X368244Y171861D01*
X368198Y171989D01*
X368162Y172134D01*
X368153Y172289D01*
Y173847D01*
Y173856D01*
Y173865D01*
X368162Y173920D01*
X368171Y174002D01*
X368189Y174102D01*
X368226Y174221D01*
X368281Y174339D01*
X368353Y174467D01*
X368454Y174585D01*
X368472Y174594D01*
X368508Y174630D01*
X368572Y174676D01*
X368654Y174740D01*
X368763Y174794D01*
X368891Y174840D01*
X369028Y174876D01*
X369182Y174886D01*
X370002D01*
X370048Y174876D01*
D02*
G37*
G36*
X361047Y174867D02*
X361147Y174849D01*
X361257Y174813D01*
X361384Y174758D01*
X361503Y174685D01*
X361621Y174585D01*
X361630Y174576D01*
X361667Y174530D01*
X361721Y174467D01*
X361776Y174385D01*
X361831Y174275D01*
X361885Y174148D01*
X361922Y174002D01*
X361931Y173847D01*
Y171515D01*
Y171506D01*
Y171478D01*
X361922Y171433D01*
X361894Y171387D01*
X361867Y171342D01*
X361822Y171296D01*
X361758Y171269D01*
X361667Y171260D01*
X360355D01*
X360300Y171269D01*
X360218Y171278D01*
X360118Y171296D01*
X359999Y171333D01*
X359881Y171387D01*
X359754Y171451D01*
X359635Y171551D01*
X359626Y171570D01*
X359590Y171606D01*
X359544Y171670D01*
X359489Y171761D01*
X359426Y171861D01*
X359380Y171989D01*
X359344Y172134D01*
X359334Y172289D01*
Y172298D01*
Y172335D01*
X359344Y172389D01*
X359353Y172462D01*
X359371Y172544D01*
X359389Y172626D01*
X359426Y172717D01*
X359471Y172809D01*
Y172818D01*
X359489Y172827D01*
X359499Y172854D01*
X359526Y172890D01*
X359599Y172973D01*
X359690Y173073D01*
X359817Y173164D01*
X359972Y173246D01*
X360063Y173282D01*
X360163Y173310D01*
X360264Y173319D01*
X360373Y173328D01*
X361412D01*
Y173847D01*
Y173856D01*
Y173883D01*
X361403Y173920D01*
X361393Y173975D01*
X361375Y174029D01*
X361348Y174093D01*
X361311Y174157D01*
X361257Y174212D01*
X361248Y174221D01*
X361229Y174239D01*
X361202Y174257D01*
X361157Y174293D01*
X361102Y174321D01*
X361038Y174339D01*
X360974Y174357D01*
X360892Y174366D01*
X359817D01*
X359772Y174385D01*
X359726Y174403D01*
X359681Y174430D01*
X359635Y174476D01*
X359608Y174539D01*
X359599Y174621D01*
Y174630D01*
Y174667D01*
X359617Y174703D01*
X359635Y174758D01*
X359663Y174804D01*
X359708Y174849D01*
X359772Y174876D01*
X359854Y174886D01*
X360965D01*
X361047Y174867D01*
D02*
G37*
G36*
X357431D02*
X357531Y174849D01*
X357640Y174813D01*
X357768Y174758D01*
X357886Y174685D01*
X358004Y174585D01*
X358014Y174576D01*
X358050Y174530D01*
X358105Y174467D01*
X358159Y174385D01*
X358214Y174275D01*
X358269Y174148D01*
X358305Y174002D01*
X358314Y173847D01*
Y171515D01*
Y171506D01*
Y171478D01*
X358305Y171433D01*
X358278Y171387D01*
X358250Y171342D01*
X358205Y171296D01*
X358141Y171269D01*
X358050Y171260D01*
X358014D01*
X357968Y171278D01*
X357923Y171296D01*
X357877Y171324D01*
X357831Y171369D01*
X357804Y171433D01*
X357795Y171515D01*
Y173847D01*
Y173856D01*
Y173883D01*
X357786Y173920D01*
X357777Y173975D01*
X357758Y174029D01*
X357731Y174093D01*
X357695Y174157D01*
X357640Y174212D01*
X357631Y174221D01*
X357613Y174239D01*
X357585Y174257D01*
X357540Y174293D01*
X357485Y174321D01*
X357421Y174339D01*
X357358Y174357D01*
X357276Y174366D01*
X356756D01*
Y171515D01*
Y171506D01*
Y171478D01*
X356747Y171433D01*
X356720Y171387D01*
X356693Y171342D01*
X356647Y171296D01*
X356583Y171269D01*
X356492Y171260D01*
X356456D01*
X356410Y171278D01*
X356365Y171296D01*
X356319Y171324D01*
X356274Y171369D01*
X356246Y171433D01*
X356237Y171515D01*
Y174366D01*
X355199D01*
Y171515D01*
Y171506D01*
Y171478D01*
X355189Y171433D01*
X355162Y171387D01*
X355135Y171342D01*
X355089Y171296D01*
X355026Y171269D01*
X354934Y171260D01*
X354898D01*
X354852Y171278D01*
X354807Y171296D01*
X354761Y171324D01*
X354716Y171369D01*
X354688Y171433D01*
X354679Y171515D01*
Y174621D01*
Y174630D01*
Y174667D01*
X354697Y174703D01*
X354716Y174758D01*
X354743Y174804D01*
X354789Y174849D01*
X354852Y174876D01*
X354934Y174886D01*
X357348D01*
X357431Y174867D01*
D02*
G37*
G36*
X343101Y176434D02*
X343146Y176425D01*
X343210Y176416D01*
X343274Y176389D01*
X343356Y176361D01*
X343438Y176316D01*
X343519Y176270D01*
X343611Y176198D01*
X343693Y176125D01*
X343784Y176024D01*
X343866Y175915D01*
X343948Y175778D01*
X344030Y175624D01*
X344093Y175450D01*
Y175441D01*
X344103Y175423D01*
X344112Y175387D01*
X344130Y175332D01*
X344148Y175268D01*
X344166Y175186D01*
X344185Y175095D01*
X344212Y174995D01*
X344230Y174886D01*
X344248Y174767D01*
X344267Y174630D01*
X344285Y174494D01*
X344312Y174184D01*
X344321Y173847D01*
Y173838D01*
Y173811D01*
Y173756D01*
Y173692D01*
X344312Y173610D01*
Y173519D01*
X344303Y173410D01*
X344294Y173301D01*
X344267Y173045D01*
X344221Y172781D01*
X344166Y172508D01*
X344093Y172244D01*
Y172235D01*
X344075Y172198D01*
X344057Y172153D01*
X344030Y172089D01*
X343993Y172016D01*
X343948Y171934D01*
X343838Y171752D01*
X343684Y171570D01*
X343601Y171488D01*
X343501Y171415D01*
X343401Y171351D01*
X343283Y171305D01*
X343164Y171269D01*
X343028Y171260D01*
X342991D01*
X342955Y171269D01*
X342909Y171278D01*
X342845Y171287D01*
X342773Y171315D01*
X342700Y171342D01*
X342618Y171387D01*
X342527Y171433D01*
X342445Y171497D01*
X342354Y171579D01*
X342262Y171679D01*
X342180Y171788D01*
X342098Y171916D01*
X342016Y172071D01*
X341953Y172244D01*
Y172253D01*
X341944Y172271D01*
X341934Y172317D01*
X341916Y172362D01*
X341898Y172426D01*
X341880Y172508D01*
X341862Y172599D01*
X341843Y172699D01*
X341825Y172809D01*
X341807Y172936D01*
X341789Y173064D01*
X341770Y173209D01*
X341743Y173510D01*
X341734Y173847D01*
Y173856D01*
Y173893D01*
Y173938D01*
Y174002D01*
X341743Y174084D01*
Y174175D01*
X341752Y174284D01*
X341761Y174394D01*
X341789Y174649D01*
X341825Y174913D01*
X341880Y175186D01*
X341953Y175450D01*
Y175460D01*
X341971Y175496D01*
X341989Y175541D01*
X342016Y175605D01*
X342053Y175678D01*
X342098Y175769D01*
X342217Y175952D01*
X342363Y176134D01*
X342454Y176216D01*
X342545Y176289D01*
X342654Y176352D01*
X342773Y176398D01*
X342891Y176434D01*
X343028Y176443D01*
X343064D01*
X343101Y176434D01*
D02*
G37*
G36*
X366932Y172025D02*
X366987Y171998D01*
X367033Y171970D01*
X367078Y171925D01*
X367105Y171861D01*
X367114Y171770D01*
Y171515D01*
Y171506D01*
Y171478D01*
X367105Y171433D01*
X367078Y171387D01*
X367051Y171342D01*
X367005Y171296D01*
X366941Y171269D01*
X366850Y171260D01*
X366814D01*
X366768Y171278D01*
X366723Y171296D01*
X366677Y171324D01*
X366632Y171369D01*
X366604Y171433D01*
X366595Y171515D01*
Y171770D01*
Y171779D01*
Y171816D01*
X366613Y171852D01*
X366632Y171907D01*
X366659Y171952D01*
X366705Y171998D01*
X366768Y172025D01*
X366850Y172034D01*
X366896D01*
X366932Y172025D01*
D02*
G37*
G36*
X364864Y176425D02*
X364919Y176398D01*
X364965Y176371D01*
X365010Y176325D01*
X365037Y176261D01*
X365047Y176170D01*
Y172034D01*
Y172025D01*
Y171998D01*
X365065Y171970D01*
X365083Y171925D01*
X365110Y171879D01*
X365156Y171843D01*
X365220Y171797D01*
X365302Y171770D01*
X365311D01*
X365338Y171761D01*
X365384Y171743D01*
X365429Y171715D01*
X365475Y171688D01*
X365520Y171642D01*
X365547Y171588D01*
X365557Y171515D01*
Y171506D01*
Y171478D01*
X365547Y171433D01*
X365529Y171387D01*
X365493Y171342D01*
X365447Y171296D01*
X365384Y171269D01*
X365302Y171260D01*
X365247D01*
X365183Y171269D01*
X365101Y171287D01*
X365010Y171305D01*
X364919Y171342D01*
X364828Y171397D01*
X364737Y171460D01*
X364728Y171469D01*
X364700Y171497D01*
X364673Y171542D01*
X364636Y171615D01*
X364591Y171697D01*
X364564Y171788D01*
X364536Y171907D01*
X364527Y172034D01*
Y176170D01*
Y176179D01*
Y176216D01*
X364545Y176252D01*
X364564Y176307D01*
X364591Y176352D01*
X364636Y176398D01*
X364700Y176425D01*
X364782Y176434D01*
X364828D01*
X364864Y176425D01*
D02*
G37*
G36*
X363306Y174867D02*
X363361Y174849D01*
X363407Y174813D01*
X363452Y174767D01*
X363480Y174703D01*
X363489Y174621D01*
Y171515D01*
Y171506D01*
Y171478D01*
X363480Y171433D01*
X363452Y171387D01*
X363425Y171342D01*
X363379Y171296D01*
X363316Y171269D01*
X363225Y171260D01*
X363188D01*
X363142Y171278D01*
X363097Y171296D01*
X363051Y171324D01*
X363006Y171369D01*
X362979Y171433D01*
X362969Y171515D01*
Y174621D01*
Y174630D01*
Y174658D01*
X362988Y174703D01*
X363006Y174749D01*
X363033Y174794D01*
X363079Y174840D01*
X363142Y174867D01*
X363225Y174876D01*
X363270D01*
X363306Y174867D01*
D02*
G37*
G36*
X224271Y99037D02*
X224307Y99015D01*
X224344Y98993D01*
X224380Y98957D01*
X224402Y98906D01*
X224410Y98833D01*
Y98826D01*
Y98804D01*
X224395Y98767D01*
X224380Y98731D01*
X224358Y98694D01*
X224322Y98658D01*
X224271Y98636D01*
X224205Y98629D01*
X220976D01*
X221457Y98148D01*
X221464Y98141D01*
X221486Y98111D01*
X221508Y98060D01*
X221515Y98002D01*
Y97995D01*
Y97973D01*
X221501Y97936D01*
X221486Y97900D01*
X221464Y97864D01*
X221428Y97827D01*
X221377Y97805D01*
X221311Y97798D01*
X221297D01*
X221260Y97805D01*
X221209Y97820D01*
X221165Y97856D01*
X220356Y98665D01*
X220349Y98673D01*
X220342Y98680D01*
X220312Y98716D01*
X220283Y98767D01*
X220269Y98804D01*
Y98833D01*
Y98840D01*
Y98870D01*
X220276Y98899D01*
X220298Y98942D01*
X220320Y98979D01*
X220356Y99015D01*
X220407Y99037D01*
X220480Y99044D01*
X224235D01*
X224271Y99037D01*
D02*
G37*
G36*
X224256Y96967D02*
X224300Y96945D01*
X224351Y96908D01*
X224358Y96894D01*
X224380Y96865D01*
X224402Y96821D01*
X224410Y96763D01*
Y96755D01*
Y96741D01*
X224402Y96719D01*
X224395Y96690D01*
X224380Y96661D01*
X224366Y96631D01*
X224337Y96602D01*
X224300Y96580D01*
X222755Y95808D01*
Y95800D01*
Y95786D01*
Y95764D01*
Y95727D01*
Y94904D01*
X224235D01*
X224271Y94896D01*
X224307Y94875D01*
X224344Y94853D01*
X224380Y94816D01*
X224402Y94765D01*
X224410Y94692D01*
Y94685D01*
Y94663D01*
X224395Y94627D01*
X224380Y94590D01*
X224358Y94554D01*
X224322Y94517D01*
X224271Y94495D01*
X224205Y94488D01*
X220436D01*
X220407Y94503D01*
X220363Y94517D01*
X220327Y94539D01*
X220291Y94576D01*
X220269Y94627D01*
X220261Y94692D01*
Y95727D01*
Y95735D01*
Y95749D01*
Y95779D01*
X220269Y95815D01*
Y95859D01*
X220283Y95910D01*
X220305Y96034D01*
X220349Y96172D01*
X220414Y96318D01*
X220458Y96391D01*
X220502Y96464D01*
X220560Y96537D01*
X220626Y96610D01*
X220633Y96617D01*
X220640Y96624D01*
X220662Y96646D01*
X220692Y96668D01*
X220728Y96697D01*
X220772Y96726D01*
X220874Y96792D01*
X220998Y96857D01*
X221151Y96916D01*
X221319Y96960D01*
X221413Y96967D01*
X221508Y96974D01*
X221545D01*
X221588Y96967D01*
X221646Y96960D01*
X221719Y96952D01*
X221792Y96938D01*
X221880Y96908D01*
X221975Y96879D01*
X222069Y96843D01*
X222171Y96792D01*
X222266Y96733D01*
X222361Y96661D01*
X222448Y96573D01*
X222529Y96471D01*
X222602Y96354D01*
X222667Y96223D01*
X224111Y96952D01*
X224118Y96960D01*
X224140Y96967D01*
X224169Y96974D01*
X224220D01*
X224256Y96967D01*
D02*
G37*
G36*
X222529Y101939D02*
X222602D01*
X222689Y101931D01*
X222777Y101924D01*
X222981Y101902D01*
X223192Y101866D01*
X223411Y101822D01*
X223622Y101764D01*
X223629D01*
X223659Y101749D01*
X223695Y101734D01*
X223746Y101713D01*
X223804Y101683D01*
X223870Y101647D01*
X224016Y101559D01*
X224162Y101436D01*
X224227Y101370D01*
X224286Y101290D01*
X224337Y101210D01*
X224373Y101115D01*
X224402Y101020D01*
X224410Y100911D01*
Y100903D01*
Y100882D01*
X224402Y100852D01*
X224395Y100816D01*
X224388Y100765D01*
X224366Y100707D01*
X224344Y100648D01*
X224307Y100583D01*
X224271Y100510D01*
X224220Y100444D01*
X224154Y100371D01*
X224074Y100298D01*
X223987Y100233D01*
X223885Y100167D01*
X223761Y100101D01*
X223622Y100050D01*
X223615D01*
X223600Y100043D01*
X223564Y100036D01*
X223527Y100021D01*
X223476Y100007D01*
X223411Y99992D01*
X223338Y99978D01*
X223258Y99963D01*
X223170Y99948D01*
X223068Y99934D01*
X222966Y99919D01*
X222849Y99905D01*
X222609Y99883D01*
X222339Y99875D01*
X222215D01*
X222149Y99883D01*
X222077D01*
X221989Y99890D01*
X221902Y99897D01*
X221698Y99919D01*
X221486Y99948D01*
X221268Y99992D01*
X221056Y100050D01*
X221049D01*
X221020Y100065D01*
X220983Y100080D01*
X220932Y100101D01*
X220874Y100131D01*
X220801Y100167D01*
X220655Y100262D01*
X220509Y100379D01*
X220444Y100451D01*
X220385Y100524D01*
X220334Y100612D01*
X220298Y100707D01*
X220269Y100801D01*
X220261Y100911D01*
Y100918D01*
Y100940D01*
X220269Y100969D01*
X220276Y101005D01*
X220283Y101057D01*
X220305Y101108D01*
X220327Y101173D01*
X220363Y101239D01*
X220400Y101304D01*
X220458Y101377D01*
X220517Y101443D01*
X220597Y101516D01*
X220684Y101581D01*
X220794Y101647D01*
X220918Y101713D01*
X221056Y101764D01*
X221063D01*
X221078Y101771D01*
X221107Y101778D01*
X221151Y101793D01*
X221202Y101807D01*
X221268Y101822D01*
X221340Y101837D01*
X221421Y101858D01*
X221508Y101873D01*
X221603Y101888D01*
X221712Y101902D01*
X221821Y101917D01*
X222069Y101939D01*
X222339Y101946D01*
X222463D01*
X222529Y101939D01*
D02*
G37*
G36*
X224256Y108778D02*
X224300Y108756D01*
X224351Y108720D01*
X224358Y108705D01*
X224380Y108676D01*
X224402Y108632D01*
X224410Y108574D01*
Y108566D01*
Y108552D01*
X224402Y108530D01*
X224395Y108501D01*
X224380Y108472D01*
X224366Y108442D01*
X224337Y108413D01*
X224300Y108391D01*
X222755Y107619D01*
Y107611D01*
Y107597D01*
Y107575D01*
Y107538D01*
Y106715D01*
X224235D01*
X224271Y106707D01*
X224307Y106686D01*
X224344Y106664D01*
X224380Y106627D01*
X224402Y106576D01*
X224410Y106503D01*
Y106496D01*
Y106474D01*
X224395Y106438D01*
X224380Y106401D01*
X224358Y106365D01*
X224322Y106328D01*
X224271Y106307D01*
X224205Y106299D01*
X220436D01*
X220407Y106314D01*
X220363Y106328D01*
X220327Y106350D01*
X220291Y106387D01*
X220269Y106438D01*
X220261Y106503D01*
Y107538D01*
Y107546D01*
Y107560D01*
Y107589D01*
X220269Y107626D01*
Y107670D01*
X220283Y107721D01*
X220305Y107845D01*
X220349Y107983D01*
X220414Y108129D01*
X220458Y108202D01*
X220502Y108275D01*
X220560Y108348D01*
X220626Y108421D01*
X220633Y108428D01*
X220640Y108435D01*
X220662Y108457D01*
X220692Y108479D01*
X220728Y108508D01*
X220772Y108537D01*
X220874Y108603D01*
X220998Y108668D01*
X221151Y108727D01*
X221319Y108771D01*
X221413Y108778D01*
X221508Y108785D01*
X221545D01*
X221588Y108778D01*
X221646Y108771D01*
X221719Y108763D01*
X221792Y108749D01*
X221880Y108720D01*
X221975Y108690D01*
X222069Y108654D01*
X222171Y108603D01*
X222266Y108545D01*
X222361Y108472D01*
X222448Y108384D01*
X222529Y108282D01*
X222602Y108166D01*
X222667Y108034D01*
X224111Y108763D01*
X224118Y108771D01*
X224140Y108778D01*
X224169Y108785D01*
X224220D01*
X224256Y108778D01*
D02*
G37*
G36*
X348440Y101370D02*
X348476Y101348D01*
X348513Y101326D01*
X348549Y101290D01*
X348571Y101239D01*
X348578Y101166D01*
Y100758D01*
X349235D01*
X349271Y100750D01*
X349307Y100728D01*
X349344Y100707D01*
X349380Y100670D01*
X349402Y100619D01*
X349410Y100546D01*
Y100539D01*
Y100517D01*
X349395Y100480D01*
X349380Y100444D01*
X349358Y100408D01*
X349322Y100371D01*
X349271Y100349D01*
X349205Y100342D01*
X348578D01*
Y99095D01*
Y99088D01*
Y99066D01*
X348564Y99030D01*
X348549Y98993D01*
X348527Y98957D01*
X348491Y98920D01*
X348440Y98899D01*
X348374Y98891D01*
X348316D01*
X345422Y99722D01*
X345414D01*
X345400Y99730D01*
X345371Y99744D01*
X345342Y99766D01*
X345320Y99795D01*
X345291Y99824D01*
X345276Y99875D01*
X345269Y99926D01*
Y99934D01*
Y99956D01*
X345276Y99992D01*
X345298Y100029D01*
X345320Y100065D01*
X345356Y100101D01*
X345407Y100123D01*
X345480Y100131D01*
X345495D01*
X345538Y100123D01*
X348163Y99365D01*
Y100342D01*
X347514D01*
X347478Y100356D01*
X347441Y100371D01*
X347405Y100393D01*
X347368Y100429D01*
X347346Y100480D01*
X347339Y100546D01*
Y100553D01*
Y100583D01*
X347346Y100612D01*
X347361Y100655D01*
X347390Y100692D01*
X347427Y100728D01*
X347478Y100750D01*
X347543Y100758D01*
X348163D01*
Y101166D01*
Y101173D01*
Y101202D01*
X348170Y101231D01*
X348192Y101275D01*
X348214Y101312D01*
X348250Y101348D01*
X348301Y101370D01*
X348374Y101377D01*
X348403D01*
X348440Y101370D01*
D02*
G37*
G36*
X130752Y83187D02*
X130796Y83165D01*
X130847Y83129D01*
X130854Y83114D01*
X130876Y83085D01*
X130898Y83042D01*
X130905Y82983D01*
Y82976D01*
Y82961D01*
X130898Y82939D01*
X130891Y82910D01*
X130876Y82881D01*
X130862Y82852D01*
X130833Y82823D01*
X130796Y82801D01*
X129251Y82028D01*
Y82021D01*
Y82006D01*
Y81984D01*
Y81948D01*
Y81124D01*
X130730D01*
X130767Y81117D01*
X130803Y81095D01*
X130840Y81073D01*
X130876Y81037D01*
X130898Y80986D01*
X130905Y80913D01*
Y80905D01*
Y80884D01*
X130891Y80847D01*
X130876Y80811D01*
X130854Y80774D01*
X130818Y80738D01*
X130767Y80716D01*
X130701Y80709D01*
X126933D01*
X126903Y80723D01*
X126860Y80738D01*
X126823Y80760D01*
X126787Y80796D01*
X126765Y80847D01*
X126758Y80913D01*
Y81948D01*
Y81955D01*
Y81970D01*
Y81999D01*
X126765Y82035D01*
Y82079D01*
X126779Y82130D01*
X126801Y82254D01*
X126845Y82393D01*
X126911Y82538D01*
X126954Y82611D01*
X126998Y82684D01*
X127056Y82757D01*
X127122Y82830D01*
X127129Y82837D01*
X127137Y82845D01*
X127158Y82867D01*
X127188Y82888D01*
X127224Y82917D01*
X127268Y82947D01*
X127370Y83012D01*
X127494Y83078D01*
X127647Y83136D01*
X127815Y83180D01*
X127909Y83187D01*
X128004Y83195D01*
X128041D01*
X128084Y83187D01*
X128143Y83180D01*
X128216Y83173D01*
X128288Y83158D01*
X128376Y83129D01*
X128471Y83100D01*
X128565Y83063D01*
X128667Y83012D01*
X128762Y82954D01*
X128857Y82881D01*
X128945Y82794D01*
X129025Y82692D01*
X129098Y82575D01*
X129163Y82444D01*
X130607Y83173D01*
X130614Y83180D01*
X130636Y83187D01*
X130665Y83195D01*
X130716D01*
X130752Y83187D01*
D02*
G37*
G36*
X348447Y111781D02*
X348527Y111774D01*
X348629Y111752D01*
X348746Y111715D01*
X348863Y111657D01*
X348994Y111584D01*
X349111Y111482D01*
X349125Y111468D01*
X349154Y111431D01*
X349205Y111366D01*
X349256Y111278D01*
X349315Y111169D01*
X349366Y111045D01*
X349395Y110906D01*
X349410Y110753D01*
Y109922D01*
Y109915D01*
Y109893D01*
X349395Y109856D01*
X349380Y109820D01*
X349358Y109784D01*
X349322Y109747D01*
X349271Y109725D01*
X349205Y109718D01*
X349169D01*
X349140Y109733D01*
X349096Y109747D01*
X349060Y109769D01*
X349023Y109806D01*
X349001Y109856D01*
X348994Y109922D01*
Y110746D01*
Y110760D01*
Y110790D01*
X348987Y110841D01*
X348972Y110899D01*
X348950Y110972D01*
X348921Y111045D01*
X348877Y111118D01*
X348819Y111191D01*
X348812Y111198D01*
X348782Y111220D01*
X348746Y111249D01*
X348695Y111285D01*
X348629Y111314D01*
X348556Y111344D01*
X348469Y111366D01*
X348374Y111373D01*
X347922D01*
X347871Y111366D01*
X347813Y111351D01*
X347740Y111329D01*
X347667Y111293D01*
X347594Y111249D01*
X347521Y111191D01*
X347514Y111183D01*
X347492Y111161D01*
X347463Y111118D01*
X347427Y111067D01*
X347397Y111001D01*
X347368Y110928D01*
X347346Y110841D01*
X347339Y110746D01*
Y109922D01*
Y109915D01*
Y109893D01*
X347324Y109856D01*
X347310Y109820D01*
X347288Y109784D01*
X347252Y109747D01*
X347201Y109725D01*
X347135Y109718D01*
X345436D01*
X345407Y109733D01*
X345363Y109747D01*
X345327Y109769D01*
X345291Y109806D01*
X345269Y109856D01*
X345261Y109922D01*
Y111373D01*
Y111380D01*
Y111402D01*
X345269Y111439D01*
X345291Y111475D01*
X345312Y111511D01*
X345349Y111548D01*
X345400Y111570D01*
X345473Y111577D01*
X345502D01*
X345538Y111570D01*
X345575Y111555D01*
X345611Y111526D01*
X345648Y111489D01*
X345670Y111439D01*
X345677Y111373D01*
Y110134D01*
X346924D01*
Y110753D01*
Y110760D01*
Y110775D01*
Y110797D01*
X346931Y110826D01*
X346938Y110906D01*
X346960Y111008D01*
X346996Y111118D01*
X347055Y111242D01*
X347128Y111366D01*
X347230Y111482D01*
X347244Y111497D01*
X347281Y111533D01*
X347346Y111577D01*
X347434Y111635D01*
X347543Y111694D01*
X347667Y111737D01*
X347813Y111774D01*
X347966Y111788D01*
X348418D01*
X348447Y111781D01*
D02*
G37*
G36*
X349271Y108880D02*
X349307Y108858D01*
X349344Y108836D01*
X349380Y108800D01*
X349402Y108748D01*
X349410Y108676D01*
Y108668D01*
Y108646D01*
X349395Y108610D01*
X349380Y108573D01*
X349358Y108537D01*
X349322Y108501D01*
X349271Y108479D01*
X349205Y108471D01*
X345976D01*
X346457Y107990D01*
X346464Y107983D01*
X346486Y107954D01*
X346508Y107903D01*
X346515Y107844D01*
Y107837D01*
Y107815D01*
X346501Y107779D01*
X346486Y107742D01*
X346464Y107706D01*
X346428Y107669D01*
X346377Y107648D01*
X346311Y107640D01*
X346297D01*
X346260Y107648D01*
X346209Y107662D01*
X346165Y107699D01*
X345356Y108508D01*
X345349Y108515D01*
X345342Y108522D01*
X345312Y108559D01*
X345283Y108610D01*
X345269Y108646D01*
Y108676D01*
Y108683D01*
Y108712D01*
X345276Y108741D01*
X345298Y108785D01*
X345320Y108821D01*
X345356Y108858D01*
X345407Y108880D01*
X345480Y108887D01*
X349235D01*
X349271Y108880D01*
D02*
G37*
G36*
X349256Y106809D02*
X349300Y106787D01*
X349351Y106751D01*
X349358Y106736D01*
X349380Y106707D01*
X349402Y106664D01*
X349410Y106605D01*
Y106598D01*
Y106583D01*
X349402Y106561D01*
X349395Y106532D01*
X349380Y106503D01*
X349366Y106474D01*
X349337Y106445D01*
X349300Y106423D01*
X347755Y105650D01*
Y105643D01*
Y105628D01*
Y105606D01*
Y105570D01*
Y104746D01*
X349235D01*
X349271Y104739D01*
X349307Y104717D01*
X349344Y104695D01*
X349380Y104659D01*
X349402Y104608D01*
X349410Y104535D01*
Y104527D01*
Y104506D01*
X349395Y104469D01*
X349380Y104433D01*
X349358Y104396D01*
X349322Y104360D01*
X349271Y104338D01*
X349205Y104331D01*
X345436D01*
X345407Y104345D01*
X345363Y104360D01*
X345327Y104382D01*
X345291Y104418D01*
X345269Y104469D01*
X345261Y104535D01*
Y105570D01*
Y105577D01*
Y105592D01*
Y105621D01*
X345269Y105657D01*
Y105701D01*
X345283Y105752D01*
X345305Y105876D01*
X345349Y106015D01*
X345414Y106160D01*
X345458Y106233D01*
X345502Y106306D01*
X345560Y106379D01*
X345626Y106452D01*
X345633Y106459D01*
X345640Y106467D01*
X345662Y106489D01*
X345692Y106510D01*
X345728Y106540D01*
X345772Y106569D01*
X345874Y106634D01*
X345998Y106700D01*
X346151Y106758D01*
X346319Y106802D01*
X346413Y106809D01*
X346508Y106817D01*
X346545D01*
X346588Y106809D01*
X346646Y106802D01*
X346719Y106795D01*
X346792Y106780D01*
X346880Y106751D01*
X346975Y106722D01*
X347069Y106685D01*
X347171Y106634D01*
X347266Y106576D01*
X347361Y106503D01*
X347448Y106416D01*
X347529Y106314D01*
X347602Y106197D01*
X347667Y106066D01*
X349111Y106795D01*
X349118Y106802D01*
X349140Y106809D01*
X349169Y106817D01*
X349220D01*
X349256Y106809D01*
D02*
G37*
G36*
X129149Y86089D02*
X129221Y86081D01*
X129309Y86067D01*
X129411Y86045D01*
X129528Y86016D01*
X129644Y85972D01*
X129776Y85921D01*
X129914Y85855D01*
X130053Y85775D01*
X130191Y85680D01*
X130330Y85571D01*
X130461Y85440D01*
X130592Y85287D01*
X130709Y85112D01*
X130716Y85097D01*
X130738Y85061D01*
X130774Y85002D01*
X130803Y84937D01*
X130840Y84864D01*
X130876Y84784D01*
X130898Y84711D01*
X130905Y84645D01*
Y84631D01*
X130898Y84594D01*
X130884Y84550D01*
X130847Y84500D01*
X130833Y84492D01*
X130803Y84470D01*
X130760Y84448D01*
X130701Y84441D01*
X130680D01*
X130650Y84448D01*
X130621Y84456D01*
X130563Y84485D01*
X130541Y84507D01*
X130526Y84543D01*
X130519Y84550D01*
X130512Y84580D01*
X130497Y84623D01*
X130475Y84674D01*
X130417Y84798D01*
X130388Y84857D01*
X130351Y84915D01*
X130344Y84922D01*
X130330Y84944D01*
X130308Y84981D01*
X130271Y85024D01*
X130227Y85075D01*
X130176Y85134D01*
X130118Y85192D01*
X130053Y85258D01*
X129980Y85330D01*
X129892Y85396D01*
X129805Y85454D01*
X129703Y85513D01*
X129601Y85564D01*
X129491Y85607D01*
X129375Y85644D01*
X129251Y85666D01*
Y85053D01*
Y85046D01*
Y85032D01*
Y85010D01*
X129243Y84981D01*
X129236Y84900D01*
X129214Y84806D01*
X129178Y84689D01*
X129127Y84565D01*
X129054Y84441D01*
X128952Y84325D01*
X128937Y84310D01*
X128893Y84281D01*
X128835Y84230D01*
X128748Y84179D01*
X128638Y84120D01*
X128514Y84069D01*
X128369Y84040D01*
X128216Y84026D01*
X127763D01*
X127734Y84033D01*
X127654Y84040D01*
X127552Y84062D01*
X127436Y84099D01*
X127312Y84149D01*
X127188Y84222D01*
X127071Y84325D01*
X127056Y84339D01*
X127020Y84383D01*
X126976Y84441D01*
X126918Y84529D01*
X126860Y84638D01*
X126816Y84762D01*
X126779Y84908D01*
X126765Y85061D01*
Y85068D01*
Y85083D01*
Y85105D01*
X126772Y85134D01*
X126779Y85214D01*
X126801Y85316D01*
X126838Y85425D01*
X126896Y85549D01*
X126969Y85673D01*
X127071Y85790D01*
X127085Y85804D01*
X127122Y85841D01*
X127188Y85885D01*
X127275Y85943D01*
X127377Y86001D01*
X127501Y86045D01*
X127647Y86081D01*
X127800Y86096D01*
X129090D01*
X129149Y86089D01*
D02*
G37*
G36*
X123054Y98986D02*
X123134Y98979D01*
X123236Y98957D01*
X123352Y98920D01*
X123469Y98862D01*
X123600Y98789D01*
X123717Y98687D01*
X123731Y98672D01*
X123761Y98636D01*
X123812Y98570D01*
X123863Y98483D01*
X123921Y98374D01*
X123972Y98250D01*
X124001Y98104D01*
X124016Y97951D01*
Y97127D01*
Y97120D01*
Y97098D01*
X124001Y97061D01*
X123987Y97025D01*
X123965Y96981D01*
X123928Y96952D01*
X123877Y96923D01*
X123812Y96915D01*
X123775D01*
X123746Y96930D01*
X123702Y96945D01*
X123666Y96966D01*
X123629Y97003D01*
X123608Y97054D01*
X123600Y97127D01*
Y97951D01*
Y97965D01*
Y97994D01*
X123593Y98045D01*
X123578Y98104D01*
X123556Y98177D01*
X123527Y98250D01*
X123484Y98322D01*
X123425Y98395D01*
X123418Y98403D01*
X123389Y98425D01*
X123352Y98454D01*
X123301Y98490D01*
X123236Y98519D01*
X123163Y98548D01*
X123075Y98570D01*
X122981Y98578D01*
X122529D01*
X122478Y98570D01*
X122419Y98556D01*
X122346Y98534D01*
X122273Y98497D01*
X122201Y98454D01*
X122128Y98395D01*
X122120Y98388D01*
X122099Y98366D01*
X122069Y98322D01*
X122033Y98271D01*
X122004Y98206D01*
X121975Y98133D01*
X121953Y98045D01*
X121945Y97951D01*
Y97535D01*
Y97528D01*
Y97506D01*
X121931Y97470D01*
X121916Y97433D01*
X121894Y97397D01*
X121858Y97360D01*
X121807Y97338D01*
X121741Y97331D01*
X121705D01*
X121676Y97346D01*
X121632Y97360D01*
X121596Y97382D01*
X121559Y97418D01*
X121537Y97470D01*
X121530Y97535D01*
Y97951D01*
Y97965D01*
Y97994D01*
X121523Y98045D01*
X121508Y98104D01*
X121486Y98177D01*
X121457Y98250D01*
X121413Y98322D01*
X121355Y98395D01*
X121348Y98403D01*
X121318Y98425D01*
X121282Y98454D01*
X121231Y98490D01*
X121165Y98519D01*
X121092Y98548D01*
X121005Y98570D01*
X120910Y98578D01*
X120867D01*
X120823Y98570D01*
X120757Y98556D01*
X120692Y98534D01*
X120619Y98497D01*
X120546Y98454D01*
X120473Y98395D01*
X120466Y98388D01*
X120444Y98366D01*
X120414Y98322D01*
X120378Y98271D01*
X120342Y98206D01*
X120312Y98133D01*
X120291Y98045D01*
X120283Y97951D01*
Y97127D01*
Y97120D01*
Y97098D01*
X120269Y97061D01*
X120254Y97025D01*
X120232Y96981D01*
X120196Y96952D01*
X120145Y96923D01*
X120079Y96915D01*
X120043D01*
X120013Y96930D01*
X119970Y96945D01*
X119933Y96966D01*
X119897Y97003D01*
X119875Y97054D01*
X119868Y97127D01*
Y97951D01*
Y97958D01*
Y97973D01*
Y97994D01*
X119875Y98023D01*
X119882Y98104D01*
X119904Y98206D01*
X119941Y98322D01*
X119999Y98446D01*
X120072Y98570D01*
X120174Y98687D01*
X120188Y98702D01*
X120225Y98738D01*
X120291Y98782D01*
X120378Y98840D01*
X120487Y98898D01*
X120611Y98942D01*
X120757Y98979D01*
X120910Y98993D01*
X120961D01*
X120998Y98986D01*
X121041Y98979D01*
X121092Y98971D01*
X121209Y98942D01*
X121340Y98891D01*
X121406Y98862D01*
X121479Y98818D01*
X121544Y98767D01*
X121617Y98716D01*
X121683Y98650D01*
X121741Y98578D01*
Y98585D01*
X121756Y98592D01*
X121770Y98614D01*
X121800Y98643D01*
X121865Y98709D01*
X121960Y98789D01*
X122084Y98862D01*
X122222Y98927D01*
X122303Y98957D01*
X122390Y98979D01*
X122478Y98986D01*
X122572Y98993D01*
X123024D01*
X123054Y98986D01*
D02*
G37*
G36*
X255395Y118307D02*
X255438Y118285D01*
X255475Y118263D01*
X255511Y118227D01*
X255533Y118175D01*
X255540Y118103D01*
Y114377D01*
Y114370D01*
Y114348D01*
X255533Y114312D01*
X255511Y114275D01*
X255489Y114239D01*
X255453Y114202D01*
X255402Y114181D01*
X255329Y114173D01*
X255300D01*
X255263Y114188D01*
X255227Y114202D01*
X255191Y114224D01*
X255154Y114261D01*
X255132Y114312D01*
X255125Y114377D01*
Y117607D01*
X254644Y117126D01*
X254637Y117118D01*
X254607Y117096D01*
X254556Y117075D01*
X254498Y117067D01*
X254469D01*
X254432Y117082D01*
X254396Y117096D01*
X254360Y117118D01*
X254323Y117155D01*
X254301Y117206D01*
X254294Y117271D01*
Y117279D01*
Y117286D01*
X254301Y117323D01*
X254316Y117374D01*
X254352Y117417D01*
X255161Y118227D01*
X255169Y118234D01*
X255176Y118241D01*
X255212Y118270D01*
X255263Y118299D01*
X255300Y118314D01*
X255365D01*
X255395Y118307D01*
D02*
G37*
G36*
X123877Y96084D02*
X123914Y96062D01*
X123950Y96041D01*
X123987Y96004D01*
X124009Y95953D01*
X124016Y95880D01*
Y95873D01*
Y95851D01*
X124001Y95815D01*
X123987Y95778D01*
X123965Y95742D01*
X123928Y95705D01*
X123877Y95683D01*
X123812Y95676D01*
X120582D01*
X121063Y95195D01*
X121071Y95188D01*
X121092Y95159D01*
X121114Y95108D01*
X121122Y95049D01*
Y95042D01*
Y95020D01*
X121107Y94984D01*
X121092Y94947D01*
X121071Y94911D01*
X121034Y94874D01*
X120983Y94852D01*
X120917Y94845D01*
X120903D01*
X120867Y94852D01*
X120815Y94867D01*
X120772Y94903D01*
X119963Y95713D01*
X119955Y95720D01*
X119948Y95727D01*
X119919Y95764D01*
X119890Y95815D01*
X119875Y95851D01*
Y95880D01*
Y95888D01*
Y95917D01*
X119882Y95946D01*
X119904Y95990D01*
X119926Y96026D01*
X119963Y96062D01*
X120013Y96084D01*
X120086Y96092D01*
X123841D01*
X123877Y96084D01*
D02*
G37*
G36*
X257472Y118314D02*
X257553Y118307D01*
X257655Y118285D01*
X257771Y118248D01*
X257895Y118190D01*
X258019Y118117D01*
X258136Y118015D01*
X258150Y118000D01*
X258187Y117964D01*
X258230Y117898D01*
X258289Y117811D01*
X258347Y117702D01*
X258391Y117578D01*
X258427Y117432D01*
X258442Y117279D01*
Y117264D01*
Y117228D01*
X258435Y117169D01*
X258420Y117096D01*
X258398Y117002D01*
X258362Y116907D01*
X258318Y116798D01*
X258252Y116681D01*
X256947Y114589D01*
X258267D01*
X258296Y114582D01*
X258340Y114560D01*
X258376Y114538D01*
X258413Y114501D01*
X258435Y114450D01*
X258442Y114377D01*
Y114370D01*
Y114348D01*
X258435Y114312D01*
X258413Y114275D01*
X258391Y114239D01*
X258354Y114202D01*
X258303Y114181D01*
X258230Y114173D01*
X256546D01*
X256510Y114188D01*
X256474Y114202D01*
X256430Y114224D01*
X256401Y114261D01*
X256372Y114312D01*
X256364Y114377D01*
Y114392D01*
X256372Y114414D01*
X256379Y114457D01*
X256401Y114494D01*
X257924Y116936D01*
X257932Y116943D01*
X257939Y116965D01*
X257954Y117002D01*
X257975Y117045D01*
X257997Y117096D01*
X258012Y117155D01*
X258019Y117213D01*
X258026Y117279D01*
Y117293D01*
Y117323D01*
X258019Y117374D01*
X258004Y117432D01*
X257983Y117505D01*
X257946Y117578D01*
X257903Y117651D01*
X257844Y117724D01*
X257837Y117731D01*
X257815Y117753D01*
X257771Y117782D01*
X257720Y117818D01*
X257655Y117847D01*
X257582Y117877D01*
X257494Y117898D01*
X257399Y117906D01*
X257385D01*
X257341Y117898D01*
X257276Y117877D01*
X257188Y117840D01*
X257137Y117811D01*
X257086Y117774D01*
X257035Y117738D01*
X256977Y117687D01*
X256918Y117621D01*
X256867Y117556D01*
X256809Y117476D01*
X256751Y117381D01*
Y117374D01*
X256743Y117366D01*
X256707Y117330D01*
X256656Y117293D01*
X256619Y117286D01*
X256576Y117279D01*
X256546D01*
X256510Y117293D01*
X256474Y117308D01*
X256430Y117330D01*
X256401Y117366D01*
X256372Y117417D01*
X256364Y117490D01*
Y117498D01*
Y117519D01*
X256372Y117541D01*
X256386Y117570D01*
X256393Y117578D01*
X256401Y117599D01*
X256423Y117643D01*
X256459Y117687D01*
X256495Y117745D01*
X256539Y117811D01*
X256598Y117877D01*
X256656Y117949D01*
X256729Y118015D01*
X256802Y118081D01*
X256889Y118146D01*
X256977Y118205D01*
X257071Y118256D01*
X257173Y118292D01*
X257283Y118314D01*
X257399Y118321D01*
X257443D01*
X257472Y118314D01*
D02*
G37*
G36*
X123863Y94014D02*
X123906Y93992D01*
X123957Y93956D01*
X123965Y93941D01*
X123987Y93912D01*
X124009Y93868D01*
X124016Y93810D01*
Y93803D01*
Y93788D01*
X124009Y93766D01*
X124001Y93737D01*
X123987Y93708D01*
X123972Y93679D01*
X123943Y93650D01*
X123906Y93628D01*
X122361Y92855D01*
Y92848D01*
Y92833D01*
Y92811D01*
Y92775D01*
Y91951D01*
X123841D01*
X123877Y91944D01*
X123914Y91922D01*
X123950Y91900D01*
X123987Y91864D01*
X124009Y91812D01*
X124016Y91739D01*
Y91732D01*
Y91710D01*
X124001Y91674D01*
X123987Y91637D01*
X123965Y91601D01*
X123928Y91565D01*
X123877Y91543D01*
X123812Y91535D01*
X120043D01*
X120013Y91550D01*
X119970Y91565D01*
X119933Y91587D01*
X119897Y91623D01*
X119875Y91674D01*
X119868Y91739D01*
Y92775D01*
Y92782D01*
Y92797D01*
Y92826D01*
X119875Y92862D01*
Y92906D01*
X119890Y92957D01*
X119912Y93081D01*
X119955Y93219D01*
X120021Y93365D01*
X120065Y93438D01*
X120108Y93511D01*
X120167Y93584D01*
X120232Y93657D01*
X120239Y93664D01*
X120247Y93671D01*
X120269Y93693D01*
X120298Y93715D01*
X120334Y93744D01*
X120378Y93774D01*
X120480Y93839D01*
X120604Y93905D01*
X120757Y93963D01*
X120925Y94007D01*
X121020Y94014D01*
X121114Y94021D01*
X121151D01*
X121195Y94014D01*
X121253Y94007D01*
X121326Y93999D01*
X121399Y93985D01*
X121486Y93956D01*
X121581Y93927D01*
X121676Y93890D01*
X121778Y93839D01*
X121872Y93781D01*
X121967Y93708D01*
X122055Y93620D01*
X122135Y93518D01*
X122208Y93402D01*
X122273Y93270D01*
X123717Y93999D01*
X123724Y94007D01*
X123746Y94014D01*
X123775Y94021D01*
X123826D01*
X123863Y94014D01*
D02*
G37*
G36*
X349271Y98053D02*
X349307Y98031D01*
X349344Y98009D01*
X349380Y97973D01*
X349402Y97922D01*
X349410Y97849D01*
Y97842D01*
Y97820D01*
X349395Y97783D01*
X349380Y97747D01*
X349358Y97710D01*
X349322Y97674D01*
X349271Y97652D01*
X349205Y97645D01*
X345976D01*
X346457Y97163D01*
X346464Y97156D01*
X346486Y97127D01*
X346508Y97076D01*
X346515Y97018D01*
Y97010D01*
Y96989D01*
X346501Y96952D01*
X346486Y96916D01*
X346464Y96879D01*
X346428Y96843D01*
X346377Y96821D01*
X346311Y96814D01*
X346297D01*
X346260Y96821D01*
X346209Y96836D01*
X346165Y96872D01*
X345356Y97681D01*
X345349Y97688D01*
X345342Y97696D01*
X345312Y97732D01*
X345283Y97783D01*
X345269Y97820D01*
Y97849D01*
Y97856D01*
Y97885D01*
X345276Y97914D01*
X345298Y97958D01*
X345320Y97995D01*
X345356Y98031D01*
X345407Y98053D01*
X345480Y98060D01*
X349235D01*
X349271Y98053D01*
D02*
G37*
G36*
X224271Y110848D02*
X224307Y110826D01*
X224344Y110804D01*
X224380Y110768D01*
X224402Y110717D01*
X224410Y110644D01*
Y110637D01*
Y110615D01*
X224395Y110578D01*
X224380Y110542D01*
X224358Y110505D01*
X224322Y110469D01*
X224271Y110447D01*
X224205Y110440D01*
X220976D01*
X221457Y109959D01*
X221464Y109951D01*
X221486Y109922D01*
X221508Y109871D01*
X221515Y109813D01*
Y109806D01*
Y109784D01*
X221501Y109747D01*
X221486Y109711D01*
X221464Y109675D01*
X221428Y109638D01*
X221377Y109616D01*
X221311Y109609D01*
X221297D01*
X221260Y109616D01*
X221209Y109631D01*
X221165Y109667D01*
X220356Y110476D01*
X220349Y110484D01*
X220342Y110491D01*
X220312Y110527D01*
X220283Y110578D01*
X220269Y110615D01*
Y110644D01*
Y110651D01*
Y110680D01*
X220276Y110710D01*
X220298Y110753D01*
X220320Y110790D01*
X220356Y110826D01*
X220407Y110848D01*
X220480Y110855D01*
X224235D01*
X224271Y110848D01*
D02*
G37*
G36*
Y112918D02*
X224307Y112897D01*
X224344Y112875D01*
X224380Y112838D01*
X224402Y112787D01*
X224410Y112714D01*
Y112707D01*
Y112685D01*
X224395Y112649D01*
X224380Y112612D01*
X224358Y112576D01*
X224322Y112540D01*
X224271Y112518D01*
X224205Y112510D01*
X220976D01*
X221457Y112029D01*
X221464Y112022D01*
X221486Y111993D01*
X221508Y111942D01*
X221515Y111883D01*
Y111876D01*
Y111854D01*
X221501Y111818D01*
X221486Y111781D01*
X221464Y111745D01*
X221428Y111708D01*
X221377Y111687D01*
X221311Y111679D01*
X221297D01*
X221260Y111687D01*
X221209Y111701D01*
X221165Y111738D01*
X220356Y112547D01*
X220349Y112554D01*
X220342Y112561D01*
X220312Y112598D01*
X220283Y112649D01*
X220269Y112685D01*
Y112714D01*
Y112722D01*
Y112751D01*
X220276Y112780D01*
X220298Y112824D01*
X220320Y112860D01*
X220356Y112897D01*
X220407Y112918D01*
X220480Y112926D01*
X224235D01*
X224271Y112918D01*
D02*
G37*
G36*
X349256Y95982D02*
X349300Y95961D01*
X349351Y95924D01*
X349358Y95910D01*
X349380Y95881D01*
X349402Y95837D01*
X349410Y95778D01*
Y95771D01*
Y95757D01*
X349402Y95735D01*
X349395Y95705D01*
X349380Y95676D01*
X349366Y95647D01*
X349337Y95618D01*
X349300Y95596D01*
X347755Y94823D01*
Y94816D01*
Y94802D01*
Y94780D01*
Y94743D01*
Y93919D01*
X349235D01*
X349271Y93912D01*
X349307Y93890D01*
X349344Y93868D01*
X349380Y93832D01*
X349402Y93781D01*
X349410Y93708D01*
Y93701D01*
Y93679D01*
X349395Y93642D01*
X349380Y93606D01*
X349358Y93570D01*
X349322Y93533D01*
X349271Y93511D01*
X349205Y93504D01*
X345436D01*
X345407Y93519D01*
X345363Y93533D01*
X345327Y93555D01*
X345291Y93591D01*
X345269Y93642D01*
X345261Y93708D01*
Y94743D01*
Y94750D01*
Y94765D01*
Y94794D01*
X345269Y94831D01*
Y94875D01*
X345283Y94925D01*
X345305Y95049D01*
X345349Y95188D01*
X345414Y95334D01*
X345458Y95407D01*
X345502Y95480D01*
X345560Y95552D01*
X345626Y95625D01*
X345633Y95633D01*
X345640Y95640D01*
X345662Y95662D01*
X345692Y95684D01*
X345728Y95713D01*
X345772Y95742D01*
X345874Y95808D01*
X345998Y95873D01*
X346151Y95932D01*
X346319Y95975D01*
X346413Y95982D01*
X346508Y95990D01*
X346545D01*
X346588Y95982D01*
X346646Y95975D01*
X346719Y95968D01*
X346792Y95953D01*
X346880Y95924D01*
X346975Y95895D01*
X347069Y95859D01*
X347171Y95808D01*
X347266Y95749D01*
X347361Y95676D01*
X347448Y95589D01*
X347529Y95487D01*
X347602Y95370D01*
X347667Y95239D01*
X349111Y95968D01*
X349118Y95975D01*
X349140Y95982D01*
X349169Y95990D01*
X349220D01*
X349256Y95982D01*
D02*
G37*
G36*
X252311Y118314D02*
X252355D01*
X252406Y118299D01*
X252530Y118278D01*
X252668Y118234D01*
X252814Y118168D01*
X252887Y118124D01*
X252960Y118081D01*
X253033Y118022D01*
X253106Y117957D01*
X253113Y117949D01*
X253120Y117942D01*
X253142Y117920D01*
X253164Y117891D01*
X253193Y117855D01*
X253222Y117811D01*
X253288Y117709D01*
X253354Y117585D01*
X253412Y117432D01*
X253456Y117264D01*
X253463Y117169D01*
X253470Y117075D01*
Y117067D01*
Y117038D01*
X253463Y116995D01*
X253456Y116936D01*
X253448Y116863D01*
X253434Y116790D01*
X253404Y116703D01*
X253375Y116608D01*
X253339Y116513D01*
X253288Y116411D01*
X253230Y116316D01*
X253157Y116222D01*
X253069Y116134D01*
X252967Y116054D01*
X252851Y115981D01*
X252719Y115916D01*
X253448Y114472D01*
X253456Y114465D01*
X253463Y114443D01*
X253470Y114414D01*
Y114377D01*
Y114363D01*
X253463Y114326D01*
X253441Y114283D01*
X253404Y114232D01*
X253390Y114224D01*
X253361Y114202D01*
X253317Y114181D01*
X253259Y114173D01*
X253237D01*
X253215Y114181D01*
X253186Y114188D01*
X253157Y114202D01*
X253128Y114217D01*
X253098Y114246D01*
X253077Y114283D01*
X252304Y115828D01*
X251400D01*
Y114377D01*
Y114370D01*
Y114348D01*
X251393Y114312D01*
X251371Y114275D01*
X251349Y114239D01*
X251312Y114202D01*
X251261Y114181D01*
X251188Y114173D01*
X251159D01*
X251123Y114188D01*
X251086Y114202D01*
X251050Y114224D01*
X251013Y114261D01*
X250992Y114312D01*
X250984Y114377D01*
Y118110D01*
Y118117D01*
Y118146D01*
X250999Y118175D01*
X251013Y118219D01*
X251035Y118256D01*
X251072Y118292D01*
X251123Y118314D01*
X251188Y118321D01*
X252275D01*
X252311Y118314D01*
D02*
G37*
G36*
X120421Y61227D02*
X120465D01*
X120516Y61213D01*
X120640Y61191D01*
X120778Y61147D01*
X120924Y61081D01*
X120997Y61038D01*
X121070Y60994D01*
X121143Y60936D01*
X121216Y60870D01*
X121223Y60863D01*
X121230Y60856D01*
X121252Y60834D01*
X121274Y60804D01*
X121303Y60768D01*
X121333Y60724D01*
X121398Y60622D01*
X121464Y60498D01*
X121522Y60345D01*
X121566Y60178D01*
X121573Y60083D01*
X121580Y59988D01*
Y59981D01*
Y59952D01*
X121573Y59908D01*
X121566Y59850D01*
X121558Y59777D01*
X121544Y59704D01*
X121515Y59616D01*
X121486Y59522D01*
X121449Y59427D01*
X121398Y59325D01*
X121340Y59230D01*
X121267Y59135D01*
X121179Y59048D01*
X121077Y58967D01*
X120961Y58894D01*
X120829Y58829D01*
X121558Y57385D01*
X121566Y57378D01*
X121573Y57356D01*
X121580Y57327D01*
Y57291D01*
Y57276D01*
X121573Y57240D01*
X121551Y57196D01*
X121515Y57145D01*
X121500Y57138D01*
X121471Y57116D01*
X121427Y57094D01*
X121369Y57087D01*
X121347D01*
X121325Y57094D01*
X121296Y57101D01*
X121267Y57116D01*
X121238Y57130D01*
X121209Y57160D01*
X121187Y57196D01*
X120414Y58741D01*
X119510D01*
Y57291D01*
Y57283D01*
Y57262D01*
X119503Y57225D01*
X119481Y57189D01*
X119459Y57152D01*
X119422Y57116D01*
X119371Y57094D01*
X119299Y57087D01*
X119269D01*
X119233Y57101D01*
X119196Y57116D01*
X119160Y57138D01*
X119124Y57174D01*
X119102Y57225D01*
X119095Y57291D01*
Y61023D01*
Y61031D01*
Y61060D01*
X119109Y61089D01*
X119124Y61133D01*
X119146Y61169D01*
X119182Y61206D01*
X119233Y61227D01*
X119299Y61235D01*
X120385D01*
X120421Y61227D01*
D02*
G37*
G36*
X122419Y190157D02*
X122463Y190135D01*
X122499Y190113D01*
X122536Y190077D01*
X122557Y190026D01*
X122565Y189953D01*
Y187263D01*
Y187256D01*
Y187241D01*
Y187212D01*
X122557Y187175D01*
Y187132D01*
X122543Y187081D01*
X122521Y186957D01*
X122477Y186818D01*
X122412Y186672D01*
X122368Y186600D01*
X122324Y186527D01*
X122266Y186454D01*
X122200Y186381D01*
X122193Y186373D01*
X122186Y186366D01*
X122164Y186352D01*
X122134Y186322D01*
X122098Y186301D01*
X122054Y186272D01*
X121952Y186206D01*
X121828Y186140D01*
X121675Y186082D01*
X121508Y186038D01*
X121413Y186031D01*
X121318Y186024D01*
X121267D01*
X121231Y186031D01*
X121187Y186038D01*
X121136Y186046D01*
X121012Y186067D01*
X120873Y186111D01*
X120728Y186177D01*
X120655Y186213D01*
X120582Y186264D01*
X120509Y186315D01*
X120436Y186381D01*
X120429Y186388D01*
X120421Y186395D01*
X120407Y186417D01*
X120378Y186446D01*
X120356Y186483D01*
X120327Y186527D01*
X120261Y186629D01*
X120195Y186760D01*
X120137Y186906D01*
X120093Y187073D01*
X120086Y187168D01*
X120079Y187263D01*
Y189953D01*
Y189960D01*
Y189989D01*
X120093Y190018D01*
X120108Y190062D01*
X120130Y190099D01*
X120166Y190135D01*
X120217Y190157D01*
X120283Y190164D01*
X120319D01*
X120349Y190157D01*
X120392Y190135D01*
X120429Y190113D01*
X120465Y190077D01*
X120487Y190026D01*
X120494Y189953D01*
Y187263D01*
Y187256D01*
Y187248D01*
X120502Y187205D01*
X120509Y187139D01*
X120523Y187059D01*
X120553Y186964D01*
X120596Y186869D01*
X120647Y186767D01*
X120728Y186672D01*
X120742Y186665D01*
X120771Y186636D01*
X120822Y186600D01*
X120895Y186556D01*
X120975Y186512D01*
X121078Y186476D01*
X121194Y186446D01*
X121318Y186439D01*
X121333D01*
X121376Y186446D01*
X121442Y186454D01*
X121522Y186468D01*
X121617Y186497D01*
X121712Y186541D01*
X121814Y186592D01*
X121908Y186672D01*
X121916Y186687D01*
X121945Y186716D01*
X121981Y186767D01*
X122032Y186840D01*
X122076Y186920D01*
X122113Y187022D01*
X122142Y187139D01*
X122149Y187263D01*
Y189953D01*
Y189960D01*
Y189989D01*
X122164Y190018D01*
X122178Y190062D01*
X122200Y190099D01*
X122237Y190135D01*
X122288Y190157D01*
X122353Y190164D01*
X122390D01*
X122419Y190157D01*
D02*
G37*
G36*
X124496Y190164D02*
X124577Y190157D01*
X124679Y190135D01*
X124795Y190099D01*
X124919Y190040D01*
X125043Y189968D01*
X125160Y189866D01*
X125174Y189851D01*
X125211Y189814D01*
X125255Y189749D01*
X125313Y189661D01*
X125371Y189552D01*
X125415Y189428D01*
X125452Y189282D01*
X125466Y189129D01*
Y189122D01*
Y189107D01*
Y189078D01*
X125459Y189042D01*
X125452Y188998D01*
X125444Y188947D01*
X125415Y188830D01*
X125364Y188699D01*
X125335Y188633D01*
X125291Y188560D01*
X125240Y188495D01*
X125189Y188422D01*
X125123Y188356D01*
X125050Y188298D01*
X125058D01*
X125065Y188284D01*
X125087Y188269D01*
X125116Y188240D01*
X125182Y188174D01*
X125262Y188079D01*
X125335Y187955D01*
X125400Y187817D01*
X125430Y187737D01*
X125452Y187649D01*
X125459Y187562D01*
X125466Y187467D01*
Y187059D01*
Y187051D01*
Y187037D01*
Y187015D01*
X125459Y186986D01*
X125452Y186906D01*
X125430Y186804D01*
X125393Y186687D01*
X125335Y186570D01*
X125262Y186439D01*
X125160Y186322D01*
X125145Y186308D01*
X125109Y186279D01*
X125043Y186228D01*
X124956Y186177D01*
X124846Y186118D01*
X124723Y186067D01*
X124577Y186038D01*
X124424Y186024D01*
X123571D01*
X123534Y186038D01*
X123498Y186053D01*
X123454Y186075D01*
X123425Y186111D01*
X123396Y186162D01*
X123388Y186228D01*
Y186235D01*
Y186264D01*
X123403Y186293D01*
X123418Y186337D01*
X123439Y186373D01*
X123476Y186410D01*
X123527Y186432D01*
X123600Y186439D01*
X124467D01*
X124518Y186446D01*
X124577Y186461D01*
X124650Y186483D01*
X124723Y186512D01*
X124795Y186556D01*
X124868Y186614D01*
X124876Y186621D01*
X124897Y186651D01*
X124927Y186687D01*
X124963Y186738D01*
X124992Y186804D01*
X125021Y186876D01*
X125043Y186964D01*
X125050Y187059D01*
Y187467D01*
Y187482D01*
Y187511D01*
X125043Y187562D01*
X125029Y187620D01*
X125007Y187693D01*
X124970Y187766D01*
X124927Y187839D01*
X124868Y187912D01*
X124861Y187919D01*
X124839Y187941D01*
X124795Y187970D01*
X124744Y188006D01*
X124679Y188036D01*
X124606Y188065D01*
X124518Y188087D01*
X124424Y188094D01*
X123979D01*
X123942Y188109D01*
X123906Y188123D01*
X123870Y188145D01*
X123833Y188181D01*
X123811Y188233D01*
X123804Y188298D01*
Y188305D01*
Y188335D01*
X123819Y188364D01*
X123833Y188407D01*
X123855Y188444D01*
X123891Y188480D01*
X123942Y188502D01*
X124008Y188510D01*
X124467D01*
X124518Y188517D01*
X124577Y188531D01*
X124650Y188553D01*
X124723Y188582D01*
X124795Y188626D01*
X124868Y188684D01*
X124876Y188692D01*
X124897Y188721D01*
X124927Y188757D01*
X124963Y188808D01*
X124992Y188874D01*
X125021Y188947D01*
X125043Y189034D01*
X125050Y189129D01*
Y189144D01*
Y189173D01*
X125043Y189217D01*
X125029Y189282D01*
X125007Y189348D01*
X124970Y189421D01*
X124927Y189494D01*
X124868Y189567D01*
X124861Y189574D01*
X124839Y189596D01*
X124795Y189625D01*
X124744Y189661D01*
X124679Y189698D01*
X124606Y189727D01*
X124518Y189749D01*
X124424Y189756D01*
X123571D01*
X123534Y189771D01*
X123498Y189785D01*
X123454Y189807D01*
X123425Y189844D01*
X123396Y189895D01*
X123388Y189960D01*
Y189968D01*
Y189997D01*
X123403Y190026D01*
X123418Y190070D01*
X123439Y190106D01*
X123476Y190143D01*
X123527Y190164D01*
X123600Y190172D01*
X124467D01*
X124496Y190164D01*
D02*
G37*
G36*
X123512Y61227D02*
X123592Y61220D01*
X123695Y61198D01*
X123811Y61162D01*
X123935Y61103D01*
X124059Y61031D01*
X124176Y60928D01*
X124190Y60914D01*
X124227Y60877D01*
X124270Y60812D01*
X124329Y60724D01*
X124387Y60615D01*
X124431Y60491D01*
X124467Y60345D01*
X124482Y60192D01*
Y60185D01*
Y60170D01*
Y60141D01*
X124475Y60105D01*
X124467Y60061D01*
X124460Y60010D01*
X124431Y59893D01*
X124380Y59762D01*
X124351Y59696D01*
X124307Y59623D01*
X124256Y59558D01*
X124205Y59485D01*
X124139Y59419D01*
X124066Y59361D01*
X124074D01*
X124081Y59346D01*
X124103Y59332D01*
X124132Y59303D01*
X124197Y59237D01*
X124278Y59142D01*
X124351Y59018D01*
X124416Y58880D01*
X124445Y58800D01*
X124467Y58712D01*
X124475Y58625D01*
X124482Y58530D01*
Y58122D01*
Y58114D01*
Y58100D01*
Y58078D01*
X124475Y58049D01*
X124467Y57969D01*
X124445Y57867D01*
X124409Y57750D01*
X124351Y57633D01*
X124278Y57502D01*
X124176Y57385D01*
X124161Y57371D01*
X124125Y57342D01*
X124059Y57291D01*
X123971Y57240D01*
X123862Y57181D01*
X123738Y57130D01*
X123592Y57101D01*
X123439Y57087D01*
X122586D01*
X122550Y57101D01*
X122513Y57116D01*
X122470Y57138D01*
X122441Y57174D01*
X122411Y57225D01*
X122404Y57291D01*
Y57298D01*
Y57327D01*
X122419Y57356D01*
X122433Y57400D01*
X122455Y57437D01*
X122492Y57473D01*
X122543Y57495D01*
X122616Y57502D01*
X123483D01*
X123534Y57509D01*
X123592Y57524D01*
X123665Y57546D01*
X123738Y57575D01*
X123811Y57619D01*
X123884Y57677D01*
X123891Y57684D01*
X123913Y57714D01*
X123942Y57750D01*
X123979Y57801D01*
X124008Y57867D01*
X124037Y57939D01*
X124059Y58027D01*
X124066Y58122D01*
Y58530D01*
Y58545D01*
Y58574D01*
X124059Y58625D01*
X124044Y58683D01*
X124022Y58756D01*
X123986Y58829D01*
X123942Y58902D01*
X123884Y58975D01*
X123877Y58982D01*
X123855Y59004D01*
X123811Y59033D01*
X123760Y59070D01*
X123695Y59099D01*
X123622Y59128D01*
X123534Y59150D01*
X123439Y59157D01*
X122995D01*
X122958Y59172D01*
X122922Y59186D01*
X122885Y59208D01*
X122849Y59244D01*
X122827Y59295D01*
X122820Y59361D01*
Y59368D01*
Y59398D01*
X122834Y59427D01*
X122849Y59470D01*
X122871Y59507D01*
X122907Y59543D01*
X122958Y59565D01*
X123024Y59572D01*
X123483D01*
X123534Y59580D01*
X123592Y59594D01*
X123665Y59616D01*
X123738Y59645D01*
X123811Y59689D01*
X123884Y59747D01*
X123891Y59755D01*
X123913Y59784D01*
X123942Y59820D01*
X123979Y59871D01*
X124008Y59937D01*
X124037Y60010D01*
X124059Y60097D01*
X124066Y60192D01*
Y60207D01*
Y60236D01*
X124059Y60280D01*
X124044Y60345D01*
X124022Y60411D01*
X123986Y60484D01*
X123942Y60557D01*
X123884Y60629D01*
X123877Y60637D01*
X123855Y60659D01*
X123811Y60688D01*
X123760Y60724D01*
X123695Y60761D01*
X123622Y60790D01*
X123534Y60812D01*
X123439Y60819D01*
X122586D01*
X122550Y60834D01*
X122513Y60848D01*
X122470Y60870D01*
X122441Y60907D01*
X122411Y60958D01*
X122404Y61023D01*
Y61031D01*
Y61060D01*
X122419Y61089D01*
X122433Y61133D01*
X122455Y61169D01*
X122492Y61206D01*
X122543Y61227D01*
X122616Y61235D01*
X123483D01*
X123512Y61227D01*
D02*
G37*
G36*
X50568Y193110D02*
X50612Y193088D01*
X50649Y193066D01*
X50685Y193030D01*
X50707Y192979D01*
X50714Y192906D01*
Y190216D01*
Y190208D01*
Y190194D01*
Y190165D01*
X50707Y190128D01*
Y190085D01*
X50692Y190033D01*
X50670Y189910D01*
X50627Y189771D01*
X50561Y189625D01*
X50517Y189552D01*
X50474Y189479D01*
X50415Y189407D01*
X50350Y189334D01*
X50343Y189326D01*
X50335Y189319D01*
X50313Y189304D01*
X50284Y189275D01*
X50248Y189253D01*
X50204Y189224D01*
X50102Y189159D01*
X49978Y189093D01*
X49825Y189035D01*
X49657Y188991D01*
X49562Y188984D01*
X49468Y188976D01*
X49417D01*
X49380Y188984D01*
X49336Y188991D01*
X49285Y188998D01*
X49161Y189020D01*
X49023Y189064D01*
X48877Y189129D01*
X48804Y189166D01*
X48731Y189217D01*
X48658Y189268D01*
X48586Y189334D01*
X48578Y189341D01*
X48571Y189348D01*
X48556Y189370D01*
X48527Y189399D01*
X48505Y189436D01*
X48476Y189479D01*
X48411Y189581D01*
X48345Y189713D01*
X48287Y189858D01*
X48243Y190026D01*
X48236Y190121D01*
X48228Y190216D01*
Y192906D01*
Y192913D01*
Y192942D01*
X48243Y192971D01*
X48257Y193015D01*
X48279Y193052D01*
X48316Y193088D01*
X48367Y193110D01*
X48432Y193117D01*
X48469D01*
X48498Y193110D01*
X48542Y193088D01*
X48578Y193066D01*
X48615Y193030D01*
X48637Y192979D01*
X48644Y192906D01*
Y190216D01*
Y190208D01*
Y190201D01*
X48651Y190157D01*
X48658Y190092D01*
X48673Y190012D01*
X48702Y189917D01*
X48746Y189822D01*
X48797Y189720D01*
X48877Y189625D01*
X48892Y189618D01*
X48921Y189589D01*
X48972Y189552D01*
X49045Y189508D01*
X49125Y189465D01*
X49227Y189428D01*
X49344Y189399D01*
X49468Y189392D01*
X49482D01*
X49526Y189399D01*
X49592Y189407D01*
X49672Y189421D01*
X49766Y189450D01*
X49861Y189494D01*
X49963Y189545D01*
X50058Y189625D01*
X50065Y189640D01*
X50095Y189669D01*
X50131Y189720D01*
X50182Y189793D01*
X50226Y189873D01*
X50262Y189975D01*
X50291Y190092D01*
X50299Y190216D01*
Y192906D01*
Y192913D01*
Y192942D01*
X50313Y192971D01*
X50328Y193015D01*
X50350Y193052D01*
X50386Y193088D01*
X50437Y193110D01*
X50503Y193117D01*
X50539D01*
X50568Y193110D01*
D02*
G37*
G36*
X297725Y49416D02*
X297805Y49409D01*
X297907Y49387D01*
X298024Y49351D01*
X298148Y49292D01*
X298272Y49220D01*
X298388Y49117D01*
X298403Y49103D01*
X298439Y49066D01*
X298483Y49001D01*
X298541Y48913D01*
X298600Y48804D01*
X298643Y48680D01*
X298680Y48534D01*
X298694Y48381D01*
Y48367D01*
Y48330D01*
X298687Y48272D01*
X298673Y48199D01*
X298651Y48104D01*
X298614Y48009D01*
X298570Y47900D01*
X298505Y47783D01*
X297200Y45691D01*
X298519D01*
X298549Y45684D01*
X298592Y45662D01*
X298629Y45640D01*
X298665Y45604D01*
X298687Y45553D01*
X298694Y45480D01*
Y45472D01*
Y45450D01*
X298687Y45414D01*
X298665Y45378D01*
X298643Y45341D01*
X298607Y45305D01*
X298556Y45283D01*
X298483Y45276D01*
X296799D01*
X296763Y45290D01*
X296726Y45305D01*
X296682Y45327D01*
X296653Y45363D01*
X296624Y45414D01*
X296617Y45480D01*
Y45494D01*
X296624Y45516D01*
X296631Y45560D01*
X296653Y45596D01*
X298177Y48039D01*
X298184Y48046D01*
X298191Y48068D01*
X298206Y48104D01*
X298228Y48148D01*
X298250Y48199D01*
X298264Y48257D01*
X298272Y48316D01*
X298279Y48381D01*
Y48396D01*
Y48425D01*
X298272Y48476D01*
X298257Y48534D01*
X298235Y48607D01*
X298199Y48680D01*
X298155Y48753D01*
X298097Y48826D01*
X298089Y48833D01*
X298067Y48855D01*
X298024Y48884D01*
X297973Y48921D01*
X297907Y48950D01*
X297834Y48979D01*
X297747Y49001D01*
X297652Y49008D01*
X297637D01*
X297594Y49001D01*
X297528Y48979D01*
X297441Y48943D01*
X297390Y48913D01*
X297339Y48877D01*
X297287Y48840D01*
X297229Y48789D01*
X297171Y48724D01*
X297120Y48658D01*
X297061Y48578D01*
X297003Y48483D01*
Y48476D01*
X296996Y48469D01*
X296959Y48432D01*
X296908Y48396D01*
X296872Y48388D01*
X296828Y48381D01*
X296799D01*
X296763Y48396D01*
X296726Y48410D01*
X296682Y48432D01*
X296653Y48469D01*
X296624Y48520D01*
X296617Y48592D01*
Y48600D01*
Y48622D01*
X296624Y48644D01*
X296639Y48673D01*
X296646Y48680D01*
X296653Y48702D01*
X296675Y48746D01*
X296711Y48789D01*
X296748Y48848D01*
X296792Y48913D01*
X296850Y48979D01*
X296908Y49052D01*
X296981Y49117D01*
X297054Y49183D01*
X297142Y49249D01*
X297229Y49307D01*
X297324Y49358D01*
X297426Y49394D01*
X297535Y49416D01*
X297652Y49424D01*
X297696D01*
X297725Y49416D01*
D02*
G37*
G36*
X241513Y50393D02*
X241557Y50371D01*
X241594Y50349D01*
X241630Y50313D01*
X241652Y50262D01*
X241659Y50189D01*
Y46464D01*
Y46457D01*
Y46435D01*
X241652Y46398D01*
X241630Y46362D01*
X241608Y46325D01*
X241572Y46289D01*
X241521Y46267D01*
X241448Y46260D01*
X241419D01*
X241382Y46274D01*
X241346Y46289D01*
X241309Y46311D01*
X241273Y46347D01*
X241251Y46398D01*
X241244Y46464D01*
Y48330D01*
X239589D01*
Y46464D01*
Y46457D01*
Y46435D01*
X239581Y46398D01*
X239560Y46362D01*
X239538Y46325D01*
X239501Y46289D01*
X239450Y46267D01*
X239377Y46260D01*
X239348D01*
X239312Y46274D01*
X239275Y46289D01*
X239239Y46311D01*
X239202Y46347D01*
X239180Y46398D01*
X239173Y46464D01*
Y50189D01*
Y50196D01*
Y50226D01*
X239188Y50255D01*
X239202Y50299D01*
X239224Y50335D01*
X239261Y50371D01*
X239312Y50393D01*
X239377Y50401D01*
X239414D01*
X239443Y50393D01*
X239487Y50371D01*
X239523Y50349D01*
X239560Y50313D01*
X239581Y50262D01*
X239589Y50189D01*
Y48746D01*
X241244D01*
Y50189D01*
Y50196D01*
Y50226D01*
X241258Y50255D01*
X241273Y50299D01*
X241295Y50335D01*
X241331Y50371D01*
X241382Y50393D01*
X241448Y50401D01*
X241484D01*
X241513Y50393D01*
D02*
G37*
G36*
X295647Y49409D02*
X295691Y49387D01*
X295727Y49365D01*
X295764Y49329D01*
X295786Y49278D01*
X295793Y49205D01*
Y45480D01*
Y45472D01*
Y45450D01*
X295786Y45414D01*
X295764Y45378D01*
X295742Y45341D01*
X295706Y45305D01*
X295655Y45283D01*
X295582Y45276D01*
X295552D01*
X295516Y45290D01*
X295479Y45305D01*
X295443Y45327D01*
X295407Y45363D01*
X295385Y45414D01*
X295377Y45480D01*
Y47346D01*
X293723D01*
Y45480D01*
Y45472D01*
Y45450D01*
X293715Y45414D01*
X293693Y45378D01*
X293672Y45341D01*
X293635Y45305D01*
X293584Y45283D01*
X293511Y45276D01*
X293482D01*
X293446Y45290D01*
X293409Y45305D01*
X293373Y45327D01*
X293336Y45363D01*
X293314Y45414D01*
X293307Y45480D01*
Y49205D01*
Y49212D01*
Y49241D01*
X293322Y49270D01*
X293336Y49314D01*
X293358Y49351D01*
X293395Y49387D01*
X293446Y49409D01*
X293511Y49416D01*
X293548D01*
X293577Y49409D01*
X293621Y49387D01*
X293657Y49365D01*
X293693Y49329D01*
X293715Y49278D01*
X293723Y49205D01*
Y47761D01*
X295377D01*
Y49205D01*
Y49212D01*
Y49241D01*
X295392Y49270D01*
X295407Y49314D01*
X295428Y49351D01*
X295465Y49387D01*
X295516Y49409D01*
X295582Y49416D01*
X295618D01*
X295647Y49409D01*
D02*
G37*
G36*
X134339Y61227D02*
X134419Y61220D01*
X134521Y61198D01*
X134638Y61162D01*
X134762Y61103D01*
X134886Y61031D01*
X135002Y60928D01*
X135017Y60914D01*
X135053Y60877D01*
X135097Y60812D01*
X135155Y60724D01*
X135214Y60615D01*
X135257Y60491D01*
X135294Y60345D01*
X135309Y60192D01*
Y60178D01*
Y60141D01*
X135301Y60083D01*
X135287Y60010D01*
X135265Y59915D01*
X135228Y59820D01*
X135185Y59711D01*
X135119Y59594D01*
X133814Y57502D01*
X135134D01*
X135163Y57495D01*
X135206Y57473D01*
X135243Y57451D01*
X135279Y57415D01*
X135301Y57364D01*
X135309Y57291D01*
Y57283D01*
Y57262D01*
X135301Y57225D01*
X135279Y57189D01*
X135257Y57152D01*
X135221Y57116D01*
X135170Y57094D01*
X135097Y57087D01*
X133413D01*
X133377Y57101D01*
X133340Y57116D01*
X133297Y57138D01*
X133267Y57174D01*
X133238Y57225D01*
X133231Y57291D01*
Y57305D01*
X133238Y57327D01*
X133246Y57371D01*
X133267Y57407D01*
X134791Y59850D01*
X134798Y59857D01*
X134806Y59879D01*
X134820Y59915D01*
X134842Y59959D01*
X134864Y60010D01*
X134878Y60068D01*
X134886Y60127D01*
X134893Y60192D01*
Y60207D01*
Y60236D01*
X134886Y60287D01*
X134871Y60345D01*
X134849Y60418D01*
X134813Y60491D01*
X134769Y60564D01*
X134711Y60637D01*
X134704Y60644D01*
X134682Y60666D01*
X134638Y60695D01*
X134587Y60732D01*
X134521Y60761D01*
X134448Y60790D01*
X134361Y60812D01*
X134266Y60819D01*
X134251D01*
X134208Y60812D01*
X134142Y60790D01*
X134055Y60754D01*
X134004Y60724D01*
X133953Y60688D01*
X133902Y60651D01*
X133843Y60600D01*
X133785Y60535D01*
X133734Y60469D01*
X133676Y60389D01*
X133617Y60294D01*
Y60287D01*
X133610Y60280D01*
X133573Y60243D01*
X133522Y60207D01*
X133486Y60199D01*
X133442Y60192D01*
X133413D01*
X133377Y60207D01*
X133340Y60221D01*
X133297Y60243D01*
X133267Y60280D01*
X133238Y60331D01*
X133231Y60404D01*
Y60411D01*
Y60433D01*
X133238Y60455D01*
X133253Y60484D01*
X133260Y60491D01*
X133267Y60513D01*
X133289Y60557D01*
X133326Y60600D01*
X133362Y60659D01*
X133406Y60724D01*
X133464Y60790D01*
X133522Y60863D01*
X133595Y60928D01*
X133668Y60994D01*
X133756Y61060D01*
X133843Y61118D01*
X133938Y61169D01*
X134040Y61206D01*
X134149Y61227D01*
X134266Y61235D01*
X134310D01*
X134339Y61227D01*
D02*
G37*
G36*
X131248D02*
X131292D01*
X131343Y61213D01*
X131467Y61191D01*
X131605Y61147D01*
X131751Y61081D01*
X131824Y61038D01*
X131897Y60994D01*
X131970Y60936D01*
X132043Y60870D01*
X132050Y60863D01*
X132057Y60856D01*
X132079Y60834D01*
X132101Y60804D01*
X132130Y60768D01*
X132159Y60724D01*
X132225Y60622D01*
X132290Y60498D01*
X132349Y60345D01*
X132393Y60178D01*
X132400Y60083D01*
X132407Y59988D01*
Y59981D01*
Y59952D01*
X132400Y59908D01*
X132393Y59850D01*
X132385Y59777D01*
X132371Y59704D01*
X132342Y59616D01*
X132312Y59522D01*
X132276Y59427D01*
X132225Y59325D01*
X132167Y59230D01*
X132094Y59135D01*
X132006Y59048D01*
X131904Y58967D01*
X131788Y58894D01*
X131656Y58829D01*
X132385Y57385D01*
X132393Y57378D01*
X132400Y57356D01*
X132407Y57327D01*
Y57291D01*
Y57276D01*
X132400Y57240D01*
X132378Y57196D01*
X132342Y57145D01*
X132327Y57138D01*
X132298Y57116D01*
X132254Y57094D01*
X132196Y57087D01*
X132174D01*
X132152Y57094D01*
X132123Y57101D01*
X132094Y57116D01*
X132064Y57130D01*
X132035Y57160D01*
X132013Y57196D01*
X131241Y58741D01*
X130337D01*
Y57291D01*
Y57283D01*
Y57262D01*
X130330Y57225D01*
X130308Y57189D01*
X130286Y57152D01*
X130249Y57116D01*
X130198Y57094D01*
X130125Y57087D01*
X130096D01*
X130060Y57101D01*
X130023Y57116D01*
X129987Y57138D01*
X129950Y57174D01*
X129929Y57225D01*
X129921Y57291D01*
Y61023D01*
Y61031D01*
Y61060D01*
X129936Y61089D01*
X129950Y61133D01*
X129972Y61169D01*
X130009Y61206D01*
X130060Y61227D01*
X130125Y61235D01*
X131212D01*
X131248Y61227D01*
D02*
G37*
G36*
X52646Y193117D02*
X52726Y193110D01*
X52828Y193088D01*
X52945Y193052D01*
X53069Y192993D01*
X53193Y192920D01*
X53310Y192818D01*
X53324Y192804D01*
X53360Y192767D01*
X53404Y192702D01*
X53463Y192614D01*
X53521Y192505D01*
X53565Y192381D01*
X53601Y192235D01*
X53616Y192082D01*
Y192067D01*
Y192031D01*
X53608Y191973D01*
X53594Y191900D01*
X53572Y191805D01*
X53535Y191710D01*
X53492Y191601D01*
X53426Y191484D01*
X52121Y189392D01*
X53441D01*
X53470Y189385D01*
X53514Y189363D01*
X53550Y189341D01*
X53587Y189304D01*
X53608Y189253D01*
X53616Y189181D01*
Y189173D01*
Y189151D01*
X53608Y189115D01*
X53587Y189078D01*
X53565Y189042D01*
X53528Y189005D01*
X53477Y188984D01*
X53404Y188976D01*
X51720D01*
X51684Y188991D01*
X51647Y189005D01*
X51604Y189027D01*
X51574Y189064D01*
X51545Y189115D01*
X51538Y189181D01*
Y189195D01*
X51545Y189217D01*
X51553Y189261D01*
X51574Y189297D01*
X53098Y191739D01*
X53105Y191747D01*
X53113Y191769D01*
X53127Y191805D01*
X53149Y191849D01*
X53171Y191900D01*
X53186Y191958D01*
X53193Y192016D01*
X53200Y192082D01*
Y192096D01*
Y192126D01*
X53193Y192177D01*
X53178Y192235D01*
X53156Y192308D01*
X53120Y192381D01*
X53076Y192454D01*
X53018Y192527D01*
X53011Y192534D01*
X52989Y192556D01*
X52945Y192585D01*
X52894Y192621D01*
X52828Y192650D01*
X52755Y192680D01*
X52668Y192702D01*
X52573Y192709D01*
X52559D01*
X52515Y192702D01*
X52449Y192680D01*
X52362Y192643D01*
X52311Y192614D01*
X52260Y192578D01*
X52209Y192541D01*
X52150Y192490D01*
X52092Y192424D01*
X52041Y192359D01*
X51983Y192279D01*
X51924Y192184D01*
Y192177D01*
X51917Y192169D01*
X51881Y192133D01*
X51830Y192096D01*
X51793Y192089D01*
X51749Y192082D01*
X51720D01*
X51684Y192096D01*
X51647Y192111D01*
X51604Y192133D01*
X51574Y192169D01*
X51545Y192220D01*
X51538Y192293D01*
Y192301D01*
Y192323D01*
X51545Y192344D01*
X51560Y192374D01*
X51567Y192381D01*
X51574Y192403D01*
X51596Y192446D01*
X51633Y192490D01*
X51669Y192549D01*
X51713Y192614D01*
X51771Y192680D01*
X51830Y192753D01*
X51903Y192818D01*
X51975Y192884D01*
X52063Y192949D01*
X52150Y193008D01*
X52245Y193059D01*
X52347Y193095D01*
X52457Y193117D01*
X52573Y193124D01*
X52617D01*
X52646Y193117D01*
D02*
G37*
G36*
X154031Y32677D02*
X154112Y32669D01*
X154206Y32648D01*
X154323Y32611D01*
X154447Y32553D01*
X154571Y32480D01*
X154687Y32378D01*
X154702Y32363D01*
X154738Y32327D01*
X154782Y32261D01*
X154841Y32174D01*
X154899Y32064D01*
X154943Y31940D01*
X154979Y31802D01*
X154994Y31649D01*
Y31642D01*
Y31627D01*
Y31598D01*
X154986Y31561D01*
X154979Y31518D01*
X154972Y31467D01*
X154943Y31350D01*
X154892Y31219D01*
X154862Y31153D01*
X154819Y31080D01*
X154768Y31015D01*
X154717Y30942D01*
X154651Y30876D01*
X154578Y30818D01*
X154593Y30810D01*
X154629Y30774D01*
X154680Y30730D01*
X154738Y30665D01*
X154804Y30584D01*
X154862Y30490D01*
X154921Y30380D01*
X154957Y30264D01*
Y30257D01*
X154964Y30227D01*
X154972Y30184D01*
X154979Y30118D01*
Y30023D01*
X154986Y29906D01*
X154994Y29834D01*
Y29753D01*
Y29673D01*
Y29579D01*
Y29571D01*
Y29557D01*
Y29535D01*
X154986Y29506D01*
X154979Y29425D01*
X154957Y29323D01*
X154921Y29207D01*
X154862Y29090D01*
X154789Y28959D01*
X154687Y28842D01*
X154673Y28828D01*
X154636Y28798D01*
X154571Y28747D01*
X154483Y28696D01*
X154374Y28638D01*
X154250Y28587D01*
X154112Y28558D01*
X153958Y28543D01*
X153915D01*
X153885Y28551D01*
X153805Y28558D01*
X153703Y28580D01*
X153587Y28616D01*
X153470Y28667D01*
X153339Y28740D01*
X153222Y28842D01*
X153208Y28857D01*
X153178Y28901D01*
X153127Y28959D01*
X153076Y29046D01*
X153018Y29156D01*
X152967Y29280D01*
X152938Y29425D01*
X152923Y29579D01*
Y29987D01*
Y29994D01*
Y30009D01*
Y30038D01*
X152930Y30074D01*
X152938Y30118D01*
X152945Y30169D01*
X152974Y30286D01*
X153025Y30417D01*
X153062Y30490D01*
X153098Y30555D01*
X153149Y30628D01*
X153200Y30694D01*
X153266Y30760D01*
X153339Y30818D01*
X153331Y30825D01*
X153324Y30832D01*
X153302Y30847D01*
X153273Y30876D01*
X153208Y30942D01*
X153135Y31036D01*
X153054Y31160D01*
X152989Y31299D01*
X152960Y31379D01*
X152938Y31467D01*
X152930Y31554D01*
X152923Y31649D01*
Y31656D01*
Y31671D01*
Y31693D01*
X152930Y31722D01*
X152938Y31802D01*
X152960Y31897D01*
X152996Y32013D01*
X153047Y32137D01*
X153120Y32261D01*
X153222Y32378D01*
X153237Y32392D01*
X153280Y32429D01*
X153339Y32473D01*
X153426Y32531D01*
X153536Y32589D01*
X153659Y32633D01*
X153805Y32669D01*
X153958Y32684D01*
X154002D01*
X154031Y32677D01*
D02*
G37*
G36*
X150933Y32684D02*
X150977D01*
X151028Y32669D01*
X151152Y32648D01*
X151290Y32604D01*
X151436Y32538D01*
X151509Y32495D01*
X151582Y32451D01*
X151655Y32392D01*
X151728Y32327D01*
X151735Y32320D01*
X151742Y32312D01*
X151764Y32290D01*
X151786Y32261D01*
X151815Y32225D01*
X151844Y32181D01*
X151910Y32079D01*
X151976Y31955D01*
X152034Y31802D01*
X152078Y31634D01*
X152085Y31539D01*
X152092Y31445D01*
Y31437D01*
Y31408D01*
X152085Y31365D01*
X152078Y31306D01*
X152070Y31233D01*
X152056Y31160D01*
X152027Y31073D01*
X151997Y30978D01*
X151961Y30883D01*
X151910Y30781D01*
X151852Y30687D01*
X151779Y30592D01*
X151691Y30504D01*
X151589Y30424D01*
X151472Y30351D01*
X151341Y30286D01*
X152070Y28842D01*
X152078Y28835D01*
X152085Y28813D01*
X152092Y28784D01*
Y28747D01*
Y28733D01*
X152085Y28696D01*
X152063Y28653D01*
X152027Y28602D01*
X152012Y28594D01*
X151983Y28572D01*
X151939Y28551D01*
X151881Y28543D01*
X151859D01*
X151837Y28551D01*
X151808Y28558D01*
X151779Y28572D01*
X151750Y28587D01*
X151720Y28616D01*
X151699Y28653D01*
X150926Y30198D01*
X150022D01*
Y28747D01*
Y28740D01*
Y28718D01*
X150014Y28682D01*
X149993Y28645D01*
X149971Y28609D01*
X149934Y28572D01*
X149883Y28551D01*
X149810Y28543D01*
X149781D01*
X149745Y28558D01*
X149708Y28572D01*
X149672Y28594D01*
X149636Y28631D01*
X149614Y28682D01*
X149606Y28747D01*
Y32480D01*
Y32487D01*
Y32516D01*
X149621Y32546D01*
X149636Y32589D01*
X149657Y32626D01*
X149694Y32662D01*
X149745Y32684D01*
X149810Y32691D01*
X150897D01*
X150933Y32684D01*
D02*
G37*
G36*
X382184Y119173D02*
X382227Y119151D01*
X382264Y119129D01*
X382300Y119093D01*
X382322Y119042D01*
X382330Y118969D01*
Y118961D01*
Y118947D01*
X382322Y118918D01*
X382315Y118888D01*
X382300Y118859D01*
X382286Y118830D01*
X382257Y118808D01*
X382220Y118794D01*
X382213D01*
X382198Y118786D01*
X382176Y118779D01*
X382140Y118772D01*
X382104Y118750D01*
X382060Y118735D01*
X381950Y118684D01*
X381819Y118604D01*
X381688Y118509D01*
X381550Y118393D01*
X381484Y118320D01*
X381418Y118240D01*
Y118232D01*
X381404Y118225D01*
X381375Y118181D01*
X381331Y118108D01*
X381280Y118021D01*
X381222Y117912D01*
X381170Y117795D01*
X381134Y117664D01*
X381105Y117525D01*
X381754D01*
X381783Y117518D01*
X381863Y117511D01*
X381965Y117489D01*
X382082Y117452D01*
X382206Y117394D01*
X382330Y117321D01*
X382446Y117219D01*
X382461Y117204D01*
X382490Y117168D01*
X382541Y117102D01*
X382599Y117015D01*
X382650Y116906D01*
X382701Y116782D01*
X382731Y116643D01*
X382745Y116483D01*
Y116075D01*
Y116067D01*
Y116053D01*
Y116031D01*
X382738Y116002D01*
X382731Y115921D01*
X382709Y115819D01*
X382672Y115703D01*
X382614Y115579D01*
X382541Y115455D01*
X382439Y115338D01*
X382424Y115324D01*
X382388Y115295D01*
X382322Y115243D01*
X382235Y115192D01*
X382125Y115134D01*
X382001Y115083D01*
X381863Y115054D01*
X381710Y115039D01*
X381666D01*
X381637Y115047D01*
X381557Y115054D01*
X381455Y115076D01*
X381338Y115112D01*
X381214Y115163D01*
X381090Y115236D01*
X380974Y115338D01*
X380959Y115353D01*
X380930Y115389D01*
X380879Y115455D01*
X380828Y115542D01*
X380769Y115644D01*
X380718Y115776D01*
X380689Y115914D01*
X380675Y116067D01*
Y117314D01*
Y117321D01*
Y117343D01*
Y117379D01*
X380682Y117430D01*
X380689Y117496D01*
X380697Y117562D01*
X380711Y117642D01*
X380733Y117729D01*
X380791Y117919D01*
X380828Y118021D01*
X380872Y118130D01*
X380923Y118232D01*
X380988Y118342D01*
X381061Y118444D01*
X381141Y118546D01*
X381149Y118553D01*
X381156Y118560D01*
X381178Y118582D01*
X381207Y118612D01*
X381280Y118684D01*
X381375Y118772D01*
X381491Y118867D01*
X381622Y118961D01*
X381768Y119056D01*
X381929Y119129D01*
X381936D01*
X381950Y119136D01*
X381972Y119144D01*
X382001Y119158D01*
X382060Y119173D01*
X382118Y119180D01*
X382155D01*
X382184Y119173D01*
D02*
G37*
G36*
X376614Y119180D02*
X376658D01*
X376709Y119166D01*
X376833Y119144D01*
X376971Y119100D01*
X377117Y119034D01*
X377190Y118991D01*
X377263Y118947D01*
X377336Y118888D01*
X377409Y118823D01*
X377416Y118816D01*
X377423Y118808D01*
X377445Y118786D01*
X377467Y118757D01*
X377496Y118721D01*
X377525Y118677D01*
X377591Y118575D01*
X377657Y118451D01*
X377715Y118298D01*
X377759Y118130D01*
X377766Y118036D01*
X377773Y117941D01*
Y117933D01*
Y117904D01*
X377766Y117861D01*
X377759Y117802D01*
X377751Y117729D01*
X377737Y117657D01*
X377708Y117569D01*
X377678Y117474D01*
X377642Y117379D01*
X377591Y117277D01*
X377533Y117183D01*
X377460Y117088D01*
X377372Y117000D01*
X377270Y116920D01*
X377154Y116847D01*
X377022Y116782D01*
X377751Y115338D01*
X377759Y115331D01*
X377766Y115309D01*
X377773Y115280D01*
Y115243D01*
Y115229D01*
X377766Y115192D01*
X377744Y115149D01*
X377708Y115098D01*
X377693Y115090D01*
X377664Y115068D01*
X377620Y115047D01*
X377562Y115039D01*
X377540D01*
X377518Y115047D01*
X377489Y115054D01*
X377460Y115068D01*
X377431Y115083D01*
X377401Y115112D01*
X377380Y115149D01*
X376607Y116694D01*
X375703D01*
Y115243D01*
Y115236D01*
Y115214D01*
X375696Y115178D01*
X375674Y115141D01*
X375652Y115105D01*
X375616Y115068D01*
X375564Y115047D01*
X375491Y115039D01*
X375462D01*
X375426Y115054D01*
X375390Y115068D01*
X375353Y115090D01*
X375317Y115127D01*
X375295Y115178D01*
X375287Y115243D01*
Y118976D01*
Y118983D01*
Y119012D01*
X375302Y119042D01*
X375317Y119085D01*
X375338Y119122D01*
X375375Y119158D01*
X375426Y119180D01*
X375491Y119187D01*
X376578D01*
X376614Y119180D01*
D02*
G37*
G36*
X379698Y119173D02*
X379742Y119151D01*
X379778Y119129D01*
X379815Y119093D01*
X379836Y119042D01*
X379844Y118969D01*
Y115243D01*
Y115236D01*
Y115214D01*
X379836Y115178D01*
X379815Y115141D01*
X379793Y115105D01*
X379756Y115068D01*
X379705Y115047D01*
X379632Y115039D01*
X379603D01*
X379567Y115054D01*
X379530Y115068D01*
X379494Y115090D01*
X379457Y115127D01*
X379435Y115178D01*
X379428Y115243D01*
Y118473D01*
X378947Y117992D01*
X378940Y117984D01*
X378910Y117963D01*
X378859Y117941D01*
X378801Y117933D01*
X378772D01*
X378736Y117948D01*
X378699Y117963D01*
X378663Y117984D01*
X378626Y118021D01*
X378604Y118072D01*
X378597Y118138D01*
Y118145D01*
Y118152D01*
X378604Y118189D01*
X378619Y118240D01*
X378655Y118283D01*
X379465Y119093D01*
X379472Y119100D01*
X379479Y119107D01*
X379516Y119136D01*
X379567Y119166D01*
X379603Y119180D01*
X379669D01*
X379698Y119173D01*
D02*
G37*
G36*
X35906Y48425D02*
X35950Y48403D01*
X35987Y48381D01*
X36023Y48345D01*
X36045Y48294D01*
X36052Y48221D01*
Y44495D01*
Y44488D01*
Y44466D01*
X36045Y44430D01*
X36023Y44393D01*
X36001Y44357D01*
X35965Y44320D01*
X35914Y44299D01*
X35841Y44291D01*
X35812D01*
X35775Y44306D01*
X35739Y44320D01*
X35702Y44342D01*
X35666Y44379D01*
X35644Y44430D01*
X35637Y44495D01*
Y47725D01*
X35156Y47244D01*
X35148Y47236D01*
X35119Y47215D01*
X35068Y47193D01*
X35010Y47186D01*
X34981D01*
X34944Y47200D01*
X34908Y47215D01*
X34871Y47236D01*
X34835Y47273D01*
X34813Y47324D01*
X34806Y47390D01*
Y47397D01*
Y47404D01*
X34813Y47441D01*
X34828Y47492D01*
X34864Y47535D01*
X35673Y48345D01*
X35680Y48352D01*
X35688Y48359D01*
X35724Y48388D01*
X35775Y48417D01*
X35812Y48432D01*
X35877D01*
X35906Y48425D01*
D02*
G37*
G36*
X33836D02*
X33880Y48403D01*
X33916Y48381D01*
X33953Y48345D01*
X33975Y48294D01*
X33982Y48221D01*
Y45531D01*
Y45523D01*
Y45509D01*
Y45480D01*
X33975Y45443D01*
Y45399D01*
X33960Y45348D01*
X33938Y45224D01*
X33895Y45086D01*
X33829Y44940D01*
X33785Y44867D01*
X33741Y44794D01*
X33683Y44721D01*
X33617Y44649D01*
X33610Y44641D01*
X33603Y44634D01*
X33581Y44619D01*
X33552Y44590D01*
X33515Y44568D01*
X33472Y44539D01*
X33370Y44474D01*
X33246Y44408D01*
X33093Y44350D01*
X32925Y44306D01*
X32830Y44299D01*
X32735Y44291D01*
X32684D01*
X32648Y44299D01*
X32604Y44306D01*
X32553Y44313D01*
X32429Y44335D01*
X32291Y44379D01*
X32145Y44444D01*
X32072Y44481D01*
X31999Y44532D01*
X31926Y44583D01*
X31853Y44649D01*
X31846Y44656D01*
X31839Y44663D01*
X31824Y44685D01*
X31795Y44714D01*
X31773Y44751D01*
X31744Y44794D01*
X31678Y44896D01*
X31613Y45028D01*
X31554Y45173D01*
X31511Y45341D01*
X31503Y45436D01*
X31496Y45531D01*
Y48221D01*
Y48228D01*
Y48257D01*
X31511Y48286D01*
X31525Y48330D01*
X31547Y48366D01*
X31583Y48403D01*
X31635Y48425D01*
X31700Y48432D01*
X31737D01*
X31766Y48425D01*
X31809Y48403D01*
X31846Y48381D01*
X31882Y48345D01*
X31904Y48294D01*
X31912Y48221D01*
Y45531D01*
Y45523D01*
Y45516D01*
X31919Y45472D01*
X31926Y45407D01*
X31941Y45327D01*
X31970Y45232D01*
X32014Y45137D01*
X32065Y45035D01*
X32145Y44940D01*
X32159Y44933D01*
X32189Y44904D01*
X32240Y44867D01*
X32313Y44824D01*
X32393Y44780D01*
X32495Y44743D01*
X32611Y44714D01*
X32735Y44707D01*
X32750D01*
X32794Y44714D01*
X32859Y44721D01*
X32939Y44736D01*
X33034Y44765D01*
X33129Y44809D01*
X33231Y44860D01*
X33326Y44940D01*
X33333Y44955D01*
X33362Y44984D01*
X33399Y45035D01*
X33450Y45108D01*
X33494Y45188D01*
X33530Y45290D01*
X33559Y45407D01*
X33566Y45531D01*
Y48221D01*
Y48228D01*
Y48257D01*
X33581Y48286D01*
X33596Y48330D01*
X33617Y48366D01*
X33654Y48403D01*
X33705Y48425D01*
X33770Y48432D01*
X33807D01*
X33836Y48425D01*
D02*
G37*
%LPC*%
G36*
X321009Y180683D02*
X319934D01*
X319897Y180674D01*
X319843Y180664D01*
X319779Y180646D01*
X319724Y180619D01*
X319660Y180582D01*
X319597Y180528D01*
X319588Y180519D01*
X319579Y180500D01*
X319551Y180473D01*
X319524Y180428D01*
X319496Y180373D01*
X319478Y180309D01*
X319460Y180245D01*
X319451Y180163D01*
Y180154D01*
Y180127D01*
X319460Y180090D01*
X319469Y180036D01*
X319487Y179981D01*
X319515Y179917D01*
X319551Y179863D01*
X319606Y179799D01*
X319615Y179790D01*
X319633Y179781D01*
X319670Y179753D01*
X319706Y179726D01*
X319761Y179699D01*
X319824Y179681D01*
X319897Y179662D01*
X319970Y179653D01*
X321009D01*
Y180683D01*
D02*
G37*
G36*
X310915Y182240D02*
X310860D01*
X310796Y182231D01*
X310723Y182213D01*
X310632Y182186D01*
X310541Y182140D01*
X310450Y182086D01*
X310359Y182013D01*
X310350Y182003D01*
X310323Y181976D01*
X310286Y181922D01*
X310250Y181858D01*
X310213Y181776D01*
X310177Y181685D01*
X310150Y181575D01*
X310140Y181457D01*
Y180428D01*
Y180409D01*
Y180373D01*
X310150Y180309D01*
X310168Y180236D01*
X310195Y180145D01*
X310232Y180054D01*
X310286Y179963D01*
X310359Y179872D01*
X310368Y179863D01*
X310405Y179835D01*
X310450Y179799D01*
X310514Y179762D01*
X310596Y179726D01*
X310687Y179690D01*
X310796Y179662D01*
X310915Y179653D01*
X310969D01*
X311024Y179662D01*
X311106Y179681D01*
X311188Y179708D01*
X311279Y179744D01*
X311370Y179799D01*
X311461Y179872D01*
X311471Y179881D01*
X311498Y179917D01*
X311534Y179963D01*
X311580Y180027D01*
X311616Y180109D01*
X311653Y180200D01*
X311680Y180309D01*
X311689Y180428D01*
Y181457D01*
Y181475D01*
Y181512D01*
X311680Y181575D01*
X311662Y181648D01*
X311634Y181739D01*
X311589Y181830D01*
X311534Y181922D01*
X311461Y182013D01*
X311452Y182022D01*
X311425Y182049D01*
X311370Y182086D01*
X311307Y182131D01*
X311225Y182167D01*
X311134Y182204D01*
X311033Y182231D01*
X310915Y182240D01*
D02*
G37*
G36*
X307280Y183798D02*
X305995D01*
Y179653D01*
X307335D01*
X307398Y179662D01*
X307471Y179681D01*
X307562Y179708D01*
X307653Y179744D01*
X307745Y179799D01*
X307836Y179872D01*
X307845Y179881D01*
X307872Y179917D01*
X307909Y179963D01*
X307954Y180027D01*
X307991Y180109D01*
X308027Y180200D01*
X308054Y180309D01*
X308063Y180428D01*
Y183015D01*
Y183033D01*
Y183069D01*
X308054Y183133D01*
X308036Y183206D01*
X308009Y183297D01*
X307963Y183388D01*
X307909Y183479D01*
X307836Y183570D01*
X307827Y183580D01*
X307799Y183607D01*
X307745Y183643D01*
X307681Y183689D01*
X307599Y183725D01*
X307508Y183762D01*
X307398Y183789D01*
X307280Y183798D01*
D02*
G37*
G36*
X296412Y182231D02*
X296357D01*
X296293Y182222D01*
X296220Y182204D01*
X296129Y182177D01*
X296038Y182131D01*
X295947Y182076D01*
X295856Y182003D01*
X295847Y181994D01*
X295820Y181967D01*
X295783Y181912D01*
X295747Y181849D01*
X295710Y181767D01*
X295674Y181676D01*
X295647Y181575D01*
X295637Y181457D01*
Y181202D01*
X297186D01*
Y181457D01*
Y181475D01*
Y181512D01*
X297177Y181566D01*
X297159Y181648D01*
X297131Y181730D01*
X297086Y181821D01*
X297031Y181912D01*
X296958Y182003D01*
X296949Y182013D01*
X296922Y182040D01*
X296867Y182076D01*
X296803Y182122D01*
X296722Y182158D01*
X296630Y182195D01*
X296530Y182222D01*
X296412Y182231D01*
D02*
G37*
G36*
X290190Y183224D02*
X289434Y180947D01*
X290955D01*
X290190Y183224D01*
D02*
G37*
G36*
X351318Y182240D02*
X351263D01*
X351199Y182231D01*
X351126Y182213D01*
X351035Y182186D01*
X350944Y182140D01*
X350853Y182086D01*
X350762Y182013D01*
X350753Y182003D01*
X350726Y181976D01*
X350689Y181922D01*
X350653Y181858D01*
X350616Y181776D01*
X350580Y181685D01*
X350553Y181575D01*
X350543Y181457D01*
Y180428D01*
Y180409D01*
Y180373D01*
X350553Y180309D01*
X350571Y180236D01*
X350598Y180145D01*
X350635Y180054D01*
X350689Y179963D01*
X350762Y179872D01*
X350771Y179863D01*
X350807Y179835D01*
X350853Y179799D01*
X350917Y179762D01*
X350999Y179726D01*
X351090Y179690D01*
X351199Y179662D01*
X351318Y179653D01*
X351372D01*
X351427Y179662D01*
X351509Y179681D01*
X351591Y179708D01*
X351682Y179744D01*
X351773Y179799D01*
X351864Y179872D01*
X351873Y179881D01*
X351901Y179917D01*
X351937Y179963D01*
X351983Y180027D01*
X352019Y180109D01*
X352056Y180200D01*
X352083Y180309D01*
X352092Y180428D01*
Y181457D01*
Y181475D01*
Y181512D01*
X352083Y181575D01*
X352065Y181648D01*
X352037Y181739D01*
X351992Y181830D01*
X351937Y181922D01*
X351864Y182013D01*
X351855Y182022D01*
X351828Y182049D01*
X351773Y182086D01*
X351709Y182131D01*
X351627Y182167D01*
X351536Y182204D01*
X351436Y182231D01*
X351318Y182240D01*
D02*
G37*
G36*
X323605Y174366D02*
X322530D01*
X322494Y174357D01*
X322439Y174348D01*
X322384Y174330D01*
X322321Y174303D01*
X322266Y174266D01*
X322202Y174212D01*
X322193Y174202D01*
X322184Y174184D01*
X322157Y174148D01*
X322129Y174111D01*
X322102Y174057D01*
X322084Y173993D01*
X322065Y173920D01*
X322056Y173847D01*
Y172289D01*
Y172280D01*
Y172253D01*
X322065Y172216D01*
X322075Y172162D01*
X322093Y172107D01*
X322120Y172043D01*
X322157Y171989D01*
X322202Y171925D01*
X322211Y171916D01*
X322230Y171907D01*
X322266Y171879D01*
X322302Y171852D01*
X322357Y171825D01*
X322421Y171806D01*
X322494Y171788D01*
X322567Y171779D01*
X323605D01*
Y174366D01*
D02*
G37*
G36*
X315579Y174357D02*
X315525D01*
X315461Y174348D01*
X315388Y174330D01*
X315297Y174303D01*
X315206Y174257D01*
X315115Y174202D01*
X315023Y174129D01*
X315014Y174120D01*
X314987Y174093D01*
X314951Y174038D01*
X314914Y173975D01*
X314878Y173893D01*
X314841Y173802D01*
X314814Y173701D01*
X314805Y173583D01*
Y173328D01*
X316354D01*
Y173583D01*
Y173601D01*
Y173638D01*
X316344Y173692D01*
X316326Y173774D01*
X316299Y173856D01*
X316253Y173947D01*
X316199Y174038D01*
X316126Y174129D01*
X316117Y174139D01*
X316089Y174166D01*
X316035Y174202D01*
X315971Y174248D01*
X315889Y174284D01*
X315798Y174321D01*
X315698Y174348D01*
X315579Y174357D01*
D02*
G37*
G36*
X336550Y172809D02*
X335475D01*
X335439Y172799D01*
X335384Y172790D01*
X335321Y172772D01*
X335266Y172745D01*
X335202Y172708D01*
X335138Y172654D01*
X335129Y172645D01*
X335120Y172626D01*
X335093Y172599D01*
X335066Y172554D01*
X335038Y172499D01*
X335020Y172435D01*
X335002Y172371D01*
X334993Y172289D01*
Y172280D01*
Y172253D01*
X335002Y172216D01*
X335011Y172162D01*
X335029Y172107D01*
X335056Y172043D01*
X335093Y171989D01*
X335148Y171925D01*
X335157Y171916D01*
X335175Y171907D01*
X335211Y171879D01*
X335248Y171852D01*
X335302Y171825D01*
X335366Y171806D01*
X335439Y171788D01*
X335512Y171779D01*
X336550D01*
Y172809D01*
D02*
G37*
G36*
X326456Y174366D02*
X326402D01*
X326338Y174357D01*
X326265Y174339D01*
X326174Y174312D01*
X326083Y174266D01*
X325992Y174212D01*
X325901Y174139D01*
X325892Y174129D01*
X325864Y174102D01*
X325828Y174048D01*
X325792Y173984D01*
X325755Y173902D01*
X325719Y173811D01*
X325691Y173701D01*
X325682Y173583D01*
Y172554D01*
Y172535D01*
Y172499D01*
X325691Y172435D01*
X325710Y172362D01*
X325737Y172271D01*
X325773Y172180D01*
X325828Y172089D01*
X325901Y171998D01*
X325910Y171989D01*
X325946Y171961D01*
X325992Y171925D01*
X326056Y171888D01*
X326138Y171852D01*
X326229Y171816D01*
X326338Y171788D01*
X326456Y171779D01*
X326511D01*
X326566Y171788D01*
X326648Y171806D01*
X326730Y171834D01*
X326821Y171870D01*
X326912Y171925D01*
X327003Y171998D01*
X327012Y172007D01*
X327040Y172043D01*
X327076Y172089D01*
X327121Y172153D01*
X327158Y172235D01*
X327194Y172326D01*
X327222Y172435D01*
X327231Y172554D01*
Y173583D01*
Y173601D01*
Y173638D01*
X327222Y173701D01*
X327203Y173774D01*
X327176Y173865D01*
X327131Y173956D01*
X327076Y174048D01*
X327003Y174139D01*
X326994Y174148D01*
X326967Y174175D01*
X326912Y174212D01*
X326848Y174257D01*
X326766Y174293D01*
X326675Y174330D01*
X326575Y174357D01*
X326456Y174366D01*
D02*
G37*
G36*
X310660Y172809D02*
X309585D01*
X309548Y172799D01*
X309494Y172790D01*
X309430Y172772D01*
X309375Y172745D01*
X309312Y172708D01*
X309248Y172654D01*
X309239Y172645D01*
X309229Y172626D01*
X309202Y172599D01*
X309175Y172554D01*
X309148Y172499D01*
X309129Y172435D01*
X309111Y172371D01*
X309102Y172289D01*
Y172280D01*
Y172253D01*
X309111Y172216D01*
X309120Y172162D01*
X309138Y172107D01*
X309166Y172043D01*
X309202Y171989D01*
X309257Y171925D01*
X309266Y171916D01*
X309284Y171907D01*
X309321Y171879D01*
X309357Y171852D01*
X309412Y171825D01*
X309475Y171806D01*
X309548Y171788D01*
X309621Y171779D01*
X310660D01*
Y172809D01*
D02*
G37*
G36*
X289679Y174357D02*
X289625D01*
X289561Y174348D01*
X289488Y174330D01*
X289397Y174303D01*
X289306Y174257D01*
X289215Y174202D01*
X289124Y174129D01*
X289115Y174120D01*
X289087Y174093D01*
X289051Y174038D01*
X289014Y173975D01*
X288978Y173893D01*
X288942Y173802D01*
X288914Y173701D01*
X288905Y173583D01*
Y173328D01*
X290454D01*
Y173583D01*
Y173601D01*
Y173638D01*
X290445Y173692D01*
X290426Y173774D01*
X290399Y173856D01*
X290354Y173947D01*
X290299Y174038D01*
X290226Y174129D01*
X290217Y174139D01*
X290190Y174166D01*
X290135Y174202D01*
X290071Y174248D01*
X289989Y174284D01*
X289898Y174321D01*
X289798Y174348D01*
X289679Y174357D01*
D02*
G37*
G36*
X353121Y174366D02*
X352046D01*
X352010Y174357D01*
X351955Y174348D01*
X351901Y174330D01*
X351837Y174303D01*
X351782Y174266D01*
X351719Y174212D01*
X351709Y174202D01*
X351700Y174184D01*
X351673Y174148D01*
X351646Y174111D01*
X351618Y174057D01*
X351600Y173993D01*
X351582Y173920D01*
X351573Y173847D01*
Y172289D01*
Y172280D01*
Y172253D01*
X351582Y172216D01*
X351591Y172162D01*
X351609Y172107D01*
X351637Y172043D01*
X351673Y171989D01*
X351719Y171925D01*
X351728Y171916D01*
X351746Y171907D01*
X351782Y171879D01*
X351819Y171852D01*
X351873Y171825D01*
X351937Y171806D01*
X352010Y171788D01*
X352083Y171779D01*
X353121D01*
Y174366D01*
D02*
G37*
G36*
X298744Y172809D02*
X297669D01*
X297633Y172799D01*
X297578Y172790D01*
X297514Y172772D01*
X297459Y172745D01*
X297396Y172708D01*
X297332Y172654D01*
X297323Y172645D01*
X297314Y172626D01*
X297286Y172599D01*
X297259Y172554D01*
X297232Y172499D01*
X297213Y172435D01*
X297195Y172371D01*
X297186Y172289D01*
Y172280D01*
Y172253D01*
X297195Y172216D01*
X297204Y172162D01*
X297222Y172107D01*
X297250Y172043D01*
X297286Y171989D01*
X297341Y171925D01*
X297350Y171916D01*
X297368Y171907D01*
X297405Y171879D01*
X297441Y171852D01*
X297496Y171825D01*
X297560Y171806D01*
X297633Y171788D01*
X297705Y171779D01*
X298744D01*
Y172809D01*
D02*
G37*
G36*
X339402Y175915D02*
X339347D01*
X339283Y175906D01*
X339211Y175888D01*
X339119Y175860D01*
X339028Y175815D01*
X338937Y175760D01*
X338846Y175687D01*
X338837Y175678D01*
X338810Y175651D01*
X338773Y175596D01*
X338737Y175532D01*
X338700Y175450D01*
X338664Y175359D01*
X338637Y175259D01*
X338628Y175141D01*
Y174621D01*
Y174603D01*
Y174567D01*
X338637Y174503D01*
X338655Y174430D01*
X338682Y174339D01*
X338719Y174248D01*
X338773Y174157D01*
X338846Y174066D01*
X338855Y174057D01*
X338892Y174029D01*
X338937Y173993D01*
X339001Y173956D01*
X339083Y173920D01*
X339174Y173883D01*
X339283Y173856D01*
X339402Y173847D01*
X340176D01*
Y175141D01*
Y175159D01*
Y175195D01*
X340167Y175250D01*
X340149Y175332D01*
X340122Y175414D01*
X340076Y175505D01*
X340021Y175596D01*
X339948Y175687D01*
X339939Y175696D01*
X339912Y175724D01*
X339857Y175760D01*
X339794Y175806D01*
X339712Y175842D01*
X339620Y175879D01*
X339520Y175906D01*
X339402Y175915D01*
D02*
G37*
G36*
X372553Y174366D02*
X372498D01*
X372435Y174357D01*
X372362Y174339D01*
X372271Y174312D01*
X372180Y174266D01*
X372089Y174212D01*
X371997Y174139D01*
X371988Y174129D01*
X371961Y174102D01*
X371924Y174048D01*
X371888Y173984D01*
X371852Y173902D01*
X371815Y173811D01*
X371788Y173701D01*
X371779Y173583D01*
Y172554D01*
Y172535D01*
Y172499D01*
X371788Y172435D01*
X371806Y172362D01*
X371833Y172271D01*
X371870Y172180D01*
X371924Y172089D01*
X371997Y171998D01*
X372007Y171989D01*
X372043Y171961D01*
X372089Y171925D01*
X372152Y171888D01*
X372234Y171852D01*
X372325Y171816D01*
X372435Y171788D01*
X372553Y171779D01*
X372608D01*
X372662Y171788D01*
X372744Y171806D01*
X372826Y171834D01*
X372918Y171870D01*
X373009Y171925D01*
X373100Y171998D01*
X373109Y172007D01*
X373136Y172043D01*
X373173Y172089D01*
X373218Y172153D01*
X373255Y172235D01*
X373291Y172326D01*
X373318Y172435D01*
X373327Y172554D01*
Y173583D01*
Y173601D01*
Y173638D01*
X373318Y173701D01*
X373300Y173774D01*
X373273Y173865D01*
X373227Y173956D01*
X373173Y174048D01*
X373100Y174139D01*
X373091Y174148D01*
X373063Y174175D01*
X373009Y174212D01*
X372945Y174257D01*
X372863Y174293D01*
X372772Y174330D01*
X372672Y174357D01*
X372553Y174366D01*
D02*
G37*
G36*
X348202D02*
X347646D01*
X347610Y174357D01*
X347555Y174348D01*
X347501Y174330D01*
X347437Y174303D01*
X347373Y174266D01*
X347318Y174212D01*
X347309Y174202D01*
X347300Y174184D01*
X347273Y174148D01*
X347246Y174111D01*
X347218Y174057D01*
X347200Y173993D01*
X347182Y173920D01*
X347173Y173847D01*
Y172289D01*
Y172280D01*
Y172253D01*
X347182Y172216D01*
X347191Y172162D01*
X347209Y172107D01*
X347236Y172043D01*
X347273Y171989D01*
X347318Y171925D01*
X347327Y171916D01*
X347346Y171907D01*
X347382Y171879D01*
X347419Y171852D01*
X347473Y171825D01*
X347537Y171806D01*
X347610Y171788D01*
X347683Y171779D01*
X347719D01*
X347756Y171788D01*
X347810Y171797D01*
X347865Y171816D01*
X347929Y171843D01*
X347993Y171879D01*
X348047Y171925D01*
X348056Y171934D01*
X348075Y171952D01*
X348093Y171989D01*
X348129Y172025D01*
X348156Y172080D01*
X348175Y172143D01*
X348193Y172216D01*
X348202Y172289D01*
Y174366D01*
D02*
G37*
G36*
X361412Y172809D02*
X360337D01*
X360300Y172799D01*
X360245Y172790D01*
X360182Y172772D01*
X360127Y172745D01*
X360063Y172708D01*
X359999Y172654D01*
X359990Y172645D01*
X359981Y172626D01*
X359954Y172599D01*
X359927Y172554D01*
X359899Y172499D01*
X359881Y172435D01*
X359863Y172371D01*
X359854Y172289D01*
Y172280D01*
Y172253D01*
X359863Y172216D01*
X359872Y172162D01*
X359890Y172107D01*
X359917Y172043D01*
X359954Y171989D01*
X360009Y171925D01*
X360018Y171916D01*
X360036Y171907D01*
X360072Y171879D01*
X360109Y171852D01*
X360163Y171825D01*
X360227Y171806D01*
X360300Y171788D01*
X360373Y171779D01*
X361412D01*
Y172809D01*
D02*
G37*
G36*
X343028Y175924D02*
X343009D01*
X342955Y175915D01*
X342882Y175879D01*
X342836Y175851D01*
X342791Y175815D01*
X342736Y175769D01*
X342681Y175715D01*
X342627Y175642D01*
X342581Y175560D01*
X342527Y175460D01*
X342481Y175341D01*
X342436Y175214D01*
X342390Y175059D01*
Y175050D01*
X342381Y175031D01*
Y175004D01*
X342372Y174959D01*
X342363Y174904D01*
X342344Y174840D01*
X342326Y174685D01*
X342299Y174503D01*
X342271Y174303D01*
X342262Y174084D01*
X342253Y173847D01*
Y173838D01*
Y173820D01*
Y173783D01*
Y173738D01*
Y173683D01*
X342262Y173619D01*
X342271Y173455D01*
X342290Y173273D01*
X342308Y173064D01*
X342344Y172854D01*
X342390Y172635D01*
Y172626D01*
X342399Y172599D01*
X342408Y172554D01*
X342426Y172499D01*
X342454Y172435D01*
X342481Y172362D01*
X342545Y172207D01*
X342636Y172052D01*
X342690Y171979D01*
X342745Y171916D01*
X342809Y171861D01*
X342873Y171816D01*
X342946Y171788D01*
X343028Y171779D01*
X343046D01*
X343101Y171797D01*
X343173Y171825D01*
X343219Y171852D01*
X343265Y171888D01*
X343319Y171934D01*
X343374Y171989D01*
X343419Y172062D01*
X343474Y172143D01*
X343519Y172235D01*
X343574Y172353D01*
X343620Y172481D01*
X343656Y172635D01*
Y172645D01*
X343665Y172663D01*
X343674Y172690D01*
X343684Y172736D01*
X343693Y172790D01*
X343702Y172854D01*
X343729Y173000D01*
X343756Y173182D01*
X343784Y173392D01*
X343793Y173610D01*
X343802Y173847D01*
Y173856D01*
Y173874D01*
Y173911D01*
Y173956D01*
Y174011D01*
X343793Y174084D01*
X343784Y174239D01*
X343765Y174430D01*
X343738Y174630D01*
X343702Y174849D01*
X343656Y175059D01*
Y175068D01*
X343647Y175095D01*
X343638Y175141D01*
X343620Y175195D01*
X343592Y175259D01*
X343574Y175332D01*
X343501Y175496D01*
X343419Y175651D01*
X343365Y175724D01*
X343310Y175787D01*
X343246Y175842D01*
X343173Y175888D01*
X343110Y175915D01*
X343028Y175924D01*
D02*
G37*
G36*
X221508Y96559D02*
X221450D01*
X221384Y96544D01*
X221304Y96529D01*
X221216Y96500D01*
X221114Y96456D01*
X221020Y96398D01*
X220925Y96318D01*
X220918Y96311D01*
X220888Y96274D01*
X220845Y96223D01*
X220801Y96158D01*
X220757Y96070D01*
X220713Y95968D01*
X220684Y95851D01*
X220677Y95727D01*
Y94904D01*
X222339D01*
Y95727D01*
Y95735D01*
Y95742D01*
X222332Y95786D01*
X222324Y95851D01*
X222310Y95932D01*
X222281Y96026D01*
X222237Y96121D01*
X222179Y96223D01*
X222098Y96318D01*
X222084Y96325D01*
X222055Y96354D01*
X222004Y96391D01*
X221931Y96442D01*
X221851Y96486D01*
X221749Y96522D01*
X221632Y96551D01*
X221508Y96559D01*
D02*
G37*
G36*
X222339Y101530D02*
X222208D01*
X222149Y101523D01*
X222026Y101516D01*
X221872Y101501D01*
X221712Y101479D01*
X221537Y101450D01*
X221370Y101414D01*
X221362D01*
X221340Y101406D01*
X221304Y101399D01*
X221260Y101384D01*
X221209Y101363D01*
X221151Y101348D01*
X221020Y101290D01*
X220896Y101224D01*
X220837Y101180D01*
X220786Y101137D01*
X220743Y101086D01*
X220706Y101027D01*
X220684Y100976D01*
X220677Y100911D01*
Y100903D01*
Y100896D01*
X220684Y100852D01*
X220713Y100794D01*
X220735Y100758D01*
X220764Y100721D01*
X220801Y100677D01*
X220845Y100634D01*
X220903Y100590D01*
X220969Y100554D01*
X221049Y100510D01*
X221144Y100473D01*
X221246Y100437D01*
X221370Y100400D01*
X221377D01*
X221391Y100393D01*
X221413D01*
X221450Y100386D01*
X221493Y100379D01*
X221545Y100364D01*
X221668Y100349D01*
X221814Y100328D01*
X221975Y100306D01*
X222149Y100298D01*
X222339Y100291D01*
X222470D01*
X222521Y100298D01*
X222653Y100306D01*
X222798Y100320D01*
X222966Y100335D01*
X223134Y100364D01*
X223309Y100400D01*
X223316D01*
X223338Y100408D01*
X223374Y100415D01*
X223418Y100429D01*
X223469Y100451D01*
X223527Y100473D01*
X223651Y100524D01*
X223775Y100597D01*
X223833Y100641D01*
X223885Y100685D01*
X223928Y100736D01*
X223965Y100787D01*
X223987Y100845D01*
X223994Y100911D01*
Y100918D01*
Y100925D01*
X223979Y100969D01*
X223957Y101027D01*
X223936Y101064D01*
X223906Y101100D01*
X223870Y101144D01*
X223826Y101188D01*
X223768Y101224D01*
X223702Y101268D01*
X223629Y101304D01*
X223535Y101348D01*
X223433Y101384D01*
X223309Y101414D01*
X223301D01*
X223287Y101421D01*
X223265Y101428D01*
X223229Y101436D01*
X223185Y101443D01*
X223134Y101450D01*
X223017Y101472D01*
X222871Y101494D01*
X222704Y101516D01*
X222529Y101523D01*
X222339Y101530D01*
D02*
G37*
G36*
X221508Y108370D02*
X221450D01*
X221384Y108355D01*
X221304Y108340D01*
X221216Y108311D01*
X221114Y108267D01*
X221020Y108209D01*
X220925Y108129D01*
X220918Y108122D01*
X220888Y108085D01*
X220845Y108034D01*
X220801Y107969D01*
X220757Y107881D01*
X220713Y107779D01*
X220684Y107662D01*
X220677Y107538D01*
Y106715D01*
X222339D01*
Y107538D01*
Y107546D01*
Y107553D01*
X222332Y107597D01*
X222324Y107662D01*
X222310Y107743D01*
X222281Y107837D01*
X222237Y107932D01*
X222179Y108034D01*
X222098Y108129D01*
X222084Y108136D01*
X222055Y108166D01*
X222004Y108202D01*
X221931Y108253D01*
X221851Y108297D01*
X221749Y108333D01*
X221632Y108362D01*
X221508Y108370D01*
D02*
G37*
G36*
X128004Y82779D02*
X127946D01*
X127880Y82764D01*
X127800Y82750D01*
X127713Y82721D01*
X127610Y82677D01*
X127516Y82619D01*
X127421Y82538D01*
X127414Y82531D01*
X127384Y82495D01*
X127341Y82444D01*
X127297Y82378D01*
X127253Y82291D01*
X127209Y82188D01*
X127180Y82072D01*
X127173Y81948D01*
Y81124D01*
X128835D01*
Y81948D01*
Y81955D01*
Y81963D01*
X128828Y82006D01*
X128821Y82072D01*
X128806Y82152D01*
X128777Y82247D01*
X128733Y82342D01*
X128675Y82444D01*
X128595Y82538D01*
X128580Y82546D01*
X128551Y82575D01*
X128500Y82611D01*
X128427Y82662D01*
X128347Y82706D01*
X128245Y82743D01*
X128128Y82772D01*
X128004Y82779D01*
D02*
G37*
G36*
X346508Y106401D02*
X346450D01*
X346384Y106386D01*
X346304Y106372D01*
X346216Y106343D01*
X346114Y106299D01*
X346020Y106241D01*
X345925Y106160D01*
X345918Y106153D01*
X345888Y106117D01*
X345845Y106066D01*
X345801Y106000D01*
X345757Y105913D01*
X345713Y105811D01*
X345684Y105694D01*
X345677Y105570D01*
Y104746D01*
X347339D01*
Y105570D01*
Y105577D01*
Y105585D01*
X347332Y105628D01*
X347324Y105694D01*
X347310Y105774D01*
X347281Y105869D01*
X347237Y105964D01*
X347179Y106066D01*
X347098Y106160D01*
X347084Y106168D01*
X347055Y106197D01*
X347004Y106233D01*
X346931Y106284D01*
X346851Y106328D01*
X346749Y106365D01*
X346632Y106394D01*
X346508Y106401D01*
D02*
G37*
G36*
X128835Y85680D02*
X127756D01*
X127713Y85673D01*
X127647Y85659D01*
X127581Y85637D01*
X127508Y85600D01*
X127436Y85557D01*
X127363Y85498D01*
X127355Y85491D01*
X127333Y85469D01*
X127304Y85425D01*
X127268Y85374D01*
X127239Y85309D01*
X127209Y85236D01*
X127188Y85156D01*
X127180Y85061D01*
Y85046D01*
Y85017D01*
X127188Y84966D01*
X127202Y84908D01*
X127224Y84835D01*
X127260Y84762D01*
X127304Y84689D01*
X127363Y84616D01*
X127370Y84609D01*
X127392Y84587D01*
X127436Y84558D01*
X127487Y84529D01*
X127552Y84500D01*
X127625Y84470D01*
X127705Y84448D01*
X127800Y84441D01*
X128259D01*
X128310Y84448D01*
X128369Y84463D01*
X128442Y84485D01*
X128514Y84514D01*
X128587Y84558D01*
X128660Y84616D01*
X128667Y84623D01*
X128689Y84653D01*
X128718Y84689D01*
X128748Y84740D01*
X128777Y84806D01*
X128806Y84878D01*
X128828Y84966D01*
X128835Y85061D01*
Y85680D01*
D02*
G37*
G36*
X121114Y93606D02*
X121056D01*
X120990Y93591D01*
X120910Y93577D01*
X120823Y93547D01*
X120721Y93504D01*
X120626Y93445D01*
X120531Y93365D01*
X120524Y93358D01*
X120495Y93322D01*
X120451Y93270D01*
X120407Y93205D01*
X120363Y93117D01*
X120320Y93015D01*
X120291Y92899D01*
X120283Y92775D01*
Y91951D01*
X121945D01*
Y92775D01*
Y92782D01*
Y92789D01*
X121938Y92833D01*
X121931Y92899D01*
X121916Y92979D01*
X121887Y93074D01*
X121843Y93168D01*
X121785Y93270D01*
X121705Y93365D01*
X121690Y93372D01*
X121661Y93402D01*
X121610Y93438D01*
X121537Y93489D01*
X121457Y93533D01*
X121355Y93569D01*
X121238Y93599D01*
X121114Y93606D01*
D02*
G37*
G36*
X346508Y95574D02*
X346450D01*
X346384Y95560D01*
X346304Y95545D01*
X346216Y95516D01*
X346114Y95472D01*
X346020Y95414D01*
X345925Y95334D01*
X345918Y95326D01*
X345888Y95290D01*
X345845Y95239D01*
X345801Y95173D01*
X345757Y95086D01*
X345713Y94984D01*
X345684Y94867D01*
X345677Y94743D01*
Y93919D01*
X347339D01*
Y94743D01*
Y94750D01*
Y94758D01*
X347332Y94802D01*
X347324Y94867D01*
X347310Y94947D01*
X347281Y95042D01*
X347237Y95137D01*
X347179Y95239D01*
X347098Y95334D01*
X347084Y95341D01*
X347055Y95370D01*
X347004Y95407D01*
X346931Y95458D01*
X346851Y95501D01*
X346749Y95538D01*
X346632Y95567D01*
X346508Y95574D01*
D02*
G37*
G36*
X252223Y117906D02*
X251400D01*
Y116244D01*
X252238D01*
X252282Y116251D01*
X252347Y116258D01*
X252428Y116273D01*
X252522Y116302D01*
X252617Y116346D01*
X252719Y116404D01*
X252814Y116484D01*
X252821Y116499D01*
X252851Y116528D01*
X252887Y116579D01*
X252938Y116652D01*
X252982Y116732D01*
X253018Y116834D01*
X253047Y116951D01*
X253055Y117075D01*
Y117082D01*
Y117089D01*
Y117133D01*
X253040Y117199D01*
X253026Y117279D01*
X252996Y117366D01*
X252953Y117468D01*
X252894Y117563D01*
X252814Y117658D01*
X252807Y117665D01*
X252770Y117694D01*
X252719Y117738D01*
X252654Y117782D01*
X252566Y117825D01*
X252464Y117869D01*
X252347Y117898D01*
X252223Y117906D01*
D02*
G37*
G36*
X120334Y60819D02*
X119510D01*
Y59157D01*
X120348D01*
X120392Y59164D01*
X120458Y59172D01*
X120538Y59186D01*
X120633Y59215D01*
X120727Y59259D01*
X120829Y59317D01*
X120924Y59398D01*
X120931Y59412D01*
X120961Y59441D01*
X120997Y59492D01*
X121048Y59565D01*
X121092Y59645D01*
X121128Y59747D01*
X121158Y59864D01*
X121165Y59988D01*
Y59995D01*
Y60003D01*
Y60046D01*
X121150Y60112D01*
X121136Y60192D01*
X121107Y60280D01*
X121063Y60382D01*
X121004Y60476D01*
X120924Y60571D01*
X120917Y60579D01*
X120880Y60608D01*
X120829Y60651D01*
X120764Y60695D01*
X120676Y60739D01*
X120574Y60783D01*
X120458Y60812D01*
X120334Y60819D01*
D02*
G37*
G36*
X131160D02*
X130337D01*
Y59157D01*
X131175D01*
X131219Y59164D01*
X131284Y59172D01*
X131365Y59186D01*
X131459Y59215D01*
X131554Y59259D01*
X131656Y59317D01*
X131751Y59398D01*
X131758Y59412D01*
X131788Y59441D01*
X131824Y59492D01*
X131875Y59565D01*
X131919Y59645D01*
X131955Y59747D01*
X131984Y59864D01*
X131992Y59988D01*
Y59995D01*
Y60003D01*
Y60046D01*
X131977Y60112D01*
X131962Y60192D01*
X131933Y60280D01*
X131889Y60382D01*
X131831Y60476D01*
X131751Y60571D01*
X131744Y60579D01*
X131707Y60608D01*
X131656Y60651D01*
X131591Y60695D01*
X131503Y60739D01*
X131401Y60783D01*
X131284Y60812D01*
X131160Y60819D01*
D02*
G37*
G36*
X153958Y30614D02*
X153915D01*
X153864Y30606D01*
X153805Y30592D01*
X153732Y30570D01*
X153659Y30533D01*
X153587Y30490D01*
X153514Y30431D01*
X153506Y30424D01*
X153485Y30402D01*
X153455Y30358D01*
X153426Y30307D01*
X153397Y30242D01*
X153368Y30169D01*
X153346Y30089D01*
X153339Y29994D01*
Y29579D01*
Y29564D01*
Y29535D01*
X153346Y29484D01*
X153361Y29425D01*
X153383Y29353D01*
X153412Y29280D01*
X153455Y29207D01*
X153514Y29134D01*
X153521Y29127D01*
X153550Y29105D01*
X153587Y29076D01*
X153638Y29046D01*
X153703Y29017D01*
X153776Y28988D01*
X153864Y28966D01*
X153958Y28959D01*
X154002D01*
X154046Y28966D01*
X154112Y28981D01*
X154177Y29003D01*
X154250Y29032D01*
X154323Y29076D01*
X154396Y29134D01*
X154403Y29141D01*
X154425Y29170D01*
X154454Y29207D01*
X154491Y29258D01*
X154520Y29323D01*
X154549Y29396D01*
X154571Y29484D01*
X154578Y29579D01*
Y29994D01*
Y30009D01*
Y30038D01*
X154571Y30081D01*
X154556Y30147D01*
X154534Y30213D01*
X154498Y30286D01*
X154454Y30358D01*
X154396Y30431D01*
X154388Y30439D01*
X154367Y30461D01*
X154323Y30490D01*
X154272Y30526D01*
X154206Y30555D01*
X154133Y30584D01*
X154053Y30606D01*
X153958Y30614D01*
D02*
G37*
G36*
Y32269D02*
X153915D01*
X153864Y32261D01*
X153805Y32247D01*
X153732Y32225D01*
X153659Y32188D01*
X153587Y32145D01*
X153514Y32086D01*
X153506Y32079D01*
X153485Y32057D01*
X153455Y32021D01*
X153426Y31970D01*
X153397Y31904D01*
X153368Y31831D01*
X153346Y31744D01*
X153339Y31649D01*
Y31634D01*
Y31605D01*
X153346Y31554D01*
X153361Y31496D01*
X153383Y31423D01*
X153412Y31350D01*
X153455Y31277D01*
X153514Y31204D01*
X153521Y31197D01*
X153550Y31175D01*
X153587Y31146D01*
X153638Y31117D01*
X153703Y31087D01*
X153776Y31058D01*
X153864Y31036D01*
X153958Y31029D01*
X154002D01*
X154046Y31036D01*
X154112Y31051D01*
X154177Y31073D01*
X154250Y31102D01*
X154323Y31146D01*
X154396Y31204D01*
X154403Y31212D01*
X154425Y31241D01*
X154454Y31277D01*
X154491Y31328D01*
X154520Y31394D01*
X154549Y31467D01*
X154571Y31554D01*
X154578Y31649D01*
Y31663D01*
Y31693D01*
X154571Y31736D01*
X154556Y31802D01*
X154534Y31868D01*
X154498Y31940D01*
X154454Y32013D01*
X154396Y32086D01*
X154388Y32094D01*
X154367Y32115D01*
X154323Y32145D01*
X154272Y32181D01*
X154206Y32210D01*
X154133Y32239D01*
X154053Y32261D01*
X153958Y32269D01*
D02*
G37*
G36*
X150846Y32276D02*
X150022D01*
Y30614D01*
X150860D01*
X150904Y30621D01*
X150970Y30628D01*
X151050Y30643D01*
X151145Y30672D01*
X151239Y30716D01*
X151341Y30774D01*
X151436Y30854D01*
X151443Y30869D01*
X151472Y30898D01*
X151509Y30949D01*
X151560Y31022D01*
X151604Y31102D01*
X151640Y31204D01*
X151669Y31321D01*
X151677Y31445D01*
Y31452D01*
Y31459D01*
Y31503D01*
X151662Y31569D01*
X151647Y31649D01*
X151618Y31736D01*
X151575Y31838D01*
X151516Y31933D01*
X151436Y32028D01*
X151429Y32035D01*
X151392Y32064D01*
X151341Y32108D01*
X151276Y32152D01*
X151188Y32196D01*
X151086Y32239D01*
X150970Y32269D01*
X150846Y32276D01*
D02*
G37*
G36*
X381710Y117110D02*
X381090D01*
Y116075D01*
Y116060D01*
Y116031D01*
X381098Y115980D01*
X381112Y115921D01*
X381134Y115849D01*
X381163Y115776D01*
X381207Y115703D01*
X381265Y115630D01*
X381273Y115623D01*
X381302Y115601D01*
X381338Y115571D01*
X381389Y115542D01*
X381455Y115513D01*
X381528Y115484D01*
X381615Y115462D01*
X381710Y115455D01*
X381754D01*
X381797Y115462D01*
X381863Y115477D01*
X381929Y115499D01*
X382001Y115528D01*
X382074Y115571D01*
X382147Y115630D01*
X382155Y115637D01*
X382176Y115666D01*
X382206Y115703D01*
X382242Y115754D01*
X382271Y115819D01*
X382300Y115892D01*
X382322Y115980D01*
X382330Y116075D01*
Y116483D01*
Y116497D01*
Y116526D01*
X382322Y116578D01*
X382308Y116636D01*
X382286Y116709D01*
X382249Y116782D01*
X382206Y116855D01*
X382147Y116928D01*
X382140Y116935D01*
X382118Y116957D01*
X382074Y116986D01*
X382023Y117022D01*
X381958Y117051D01*
X381885Y117081D01*
X381805Y117102D01*
X381710Y117110D01*
D02*
G37*
G36*
X376527Y118772D02*
X375703D01*
Y117110D01*
X376541D01*
X376585Y117117D01*
X376651Y117124D01*
X376731Y117139D01*
X376826Y117168D01*
X376920Y117212D01*
X377022Y117270D01*
X377117Y117350D01*
X377125Y117365D01*
X377154Y117394D01*
X377190Y117445D01*
X377241Y117518D01*
X377285Y117598D01*
X377321Y117700D01*
X377350Y117817D01*
X377358Y117941D01*
Y117948D01*
Y117955D01*
Y117999D01*
X377343Y118065D01*
X377329Y118145D01*
X377299Y118232D01*
X377256Y118334D01*
X377197Y118429D01*
X377117Y118524D01*
X377110Y118531D01*
X377074Y118560D01*
X377022Y118604D01*
X376957Y118648D01*
X376869Y118692D01*
X376767Y118735D01*
X376651Y118765D01*
X376527Y118772D01*
D02*
G37*
%LPD*%
D27*
X375394Y49213D02*
G03*
X375394Y49213I-37402J0D01*
G01*
X237598D02*
G03*
X237598Y49213I-37402J0D01*
G01*
X53602Y186142D02*
G03*
X58602Y186142I2500J0D01*
G01*
X128169Y183189D02*
G03*
X133169Y183189I2500J0D01*
G01*
X19291Y11220D02*
Y26181D01*
X27953D01*
Y11220D02*
Y26181D01*
X19291Y11220D02*
X27953D01*
X18898Y31496D02*
Y51181D01*
X28346D01*
Y31496D02*
Y51181D01*
X18898Y31496D02*
X28346D01*
X47343Y46142D02*
Y186142D01*
Y46142D02*
X64862D01*
Y186142D01*
X58602D02*
X64862D01*
X47343D02*
X53602D01*
X127697Y183661D02*
X128169Y183189D01*
X119646Y183661D02*
X127697D01*
X133169Y183189D02*
X133642Y183661D01*
X141693D01*
Y108071D02*
Y183661D01*
X119646Y108071D02*
Y183661D01*
Y108071D02*
X141693D01*
X375689Y94488D02*
Y112598D01*
Y94488D02*
X384350D01*
Y112598D01*
X375689D02*
X384350D01*
X117717Y37205D02*
Y55315D01*
Y37205D02*
X126378D01*
Y55315D01*
X117717D02*
X126378D01*
X137205Y37205D02*
Y55315D01*
X128543D02*
X137205D01*
X128543Y37205D02*
Y55315D01*
Y37205D02*
X137205D01*
X148228Y9646D02*
Y27756D01*
Y9646D02*
X156890D01*
Y27756D01*
X148228D02*
X156890D01*
X107087Y87992D02*
X125197D01*
X107087Y79331D02*
Y87992D01*
Y79331D02*
X125197D01*
Y87992D01*
X100197Y99803D02*
X118307D01*
X100197Y91142D02*
Y99803D01*
Y91142D02*
X118307D01*
Y99803D01*
X200591Y94095D02*
X218701D01*
Y102756D01*
X200591D02*
X218701D01*
X200591Y94095D02*
Y102756D01*
Y113583D02*
X218701D01*
X200591Y104921D02*
Y113583D01*
Y104921D02*
X218701D01*
Y113583D01*
X250590Y94685D02*
Y112795D01*
Y94685D02*
X259252D01*
Y112795D01*
X250590D02*
X259252D01*
X325590Y93110D02*
X343701D01*
Y101772D01*
X325590D02*
X343701D01*
X325590Y93110D02*
Y101772D01*
X325591Y112598D02*
X343701D01*
X325591Y103937D02*
Y112598D01*
Y103937D02*
X343701D01*
Y112598D01*
D28*
X337992Y37402D02*
Y61024D01*
X337992D02*
X337992D01*
X334055Y57087D02*
X337992Y61024D01*
X334055Y57087D02*
X337992Y61024D01*
X337992D01*
X341929Y57087D01*
X200197Y37402D02*
Y61024D01*
X200197D02*
X200197D01*
X196260Y57087D02*
X200197Y61024D01*
X196260Y57087D02*
X200197Y61024D01*
X200197D01*
X204134Y57087D01*
D29*
X112008Y3347D02*
X115157Y6496D01*
X112008Y7283D02*
X115157Y10433D01*
X112008Y11220D02*
X115157Y14370D01*
X112008Y15157D02*
X115157Y18307D01*
X112008Y19094D02*
X115157Y22244D01*
X112008Y23031D02*
X115157Y26181D01*
X112008Y26969D02*
X115157Y30118D01*
X112008Y30906D02*
X115157Y34055D01*
X112008Y34843D02*
X115157Y37992D01*
X112008Y38780D02*
X115157Y41929D01*
X30512Y2165D02*
Y43110D01*
X115157Y2165D02*
Y43110D01*
X112008Y2165D02*
Y43110D01*
X30512D02*
X115157D01*
X30512Y2165D02*
X115157D01*
M02*
