G04 Layer_Color=8388736*
%FSLAX25Y25*%
%MOIN*%
G70*
G01*
G75*
%ADD30R,0.07099X0.05524*%
%ADD31R,0.07887X0.07099*%
%ADD32R,0.07099X0.04737*%
%ADD33R,0.04737X0.07099*%
%ADD34C,0.06706*%
%ADD35R,0.06706X0.06706*%
%ADD36R,0.06706X0.06706*%
%ADD37O,0.06312X0.04737*%
%ADD38C,0.06115*%
%ADD39R,0.06115X0.06115*%
%ADD40C,0.08674*%
%ADD41O,0.04737X0.06312*%
%ADD42R,0.07493X0.07493*%
%ADD43C,0.07493*%
%ADD44R,0.07493X0.07493*%
D30*
X23622Y22638D02*
D03*
Y14764D02*
D03*
D31*
Y35827D02*
D03*
Y46850D02*
D03*
D32*
X380020Y97638D02*
D03*
Y109449D02*
D03*
X122047Y40354D02*
D03*
Y52165D02*
D03*
X132874D02*
D03*
Y40354D02*
D03*
X152559Y12795D02*
D03*
Y24606D02*
D03*
X254921Y97835D02*
D03*
Y109646D02*
D03*
D33*
X110236Y83661D02*
D03*
X122047D02*
D03*
X103347Y95472D02*
D03*
X115157D02*
D03*
X215551Y98425D02*
D03*
X203740D02*
D03*
Y109252D02*
D03*
X215551D02*
D03*
X340551Y97441D02*
D03*
X328740D02*
D03*
X328740Y108268D02*
D03*
X340551D02*
D03*
D34*
X319882Y61417D02*
D03*
X327756Y68110D02*
D03*
X316493Y51794D02*
D03*
X317913Y41339D02*
D03*
X323819Y33071D02*
D03*
X332874Y27953D02*
D03*
X343110Y28346D02*
D03*
X352559Y33071D02*
D03*
X358465Y41732D02*
D03*
X359646Y51968D02*
D03*
X355709Y61811D02*
D03*
X347835Y68504D02*
D03*
X182087Y61417D02*
D03*
X189961Y68110D02*
D03*
X178698Y51794D02*
D03*
X180118Y41339D02*
D03*
X186024Y33071D02*
D03*
X195079Y27953D02*
D03*
X205315Y28346D02*
D03*
X214764Y33071D02*
D03*
X220669Y41732D02*
D03*
X221850Y51968D02*
D03*
X217913Y61811D02*
D03*
X210039Y68504D02*
D03*
X71102Y51142D02*
D03*
Y61142D02*
D03*
Y71142D02*
D03*
Y81142D02*
D03*
Y91142D02*
D03*
Y101142D02*
D03*
Y111142D02*
D03*
Y121142D02*
D03*
Y131142D02*
D03*
Y141142D02*
D03*
Y151142D02*
D03*
Y161142D02*
D03*
Y171142D02*
D03*
Y181142D02*
D03*
X41102Y51142D02*
D03*
Y61142D02*
D03*
Y71142D02*
D03*
Y81142D02*
D03*
Y91142D02*
D03*
Y101142D02*
D03*
Y111142D02*
D03*
Y121142D02*
D03*
Y131142D02*
D03*
Y141142D02*
D03*
Y151142D02*
D03*
Y161142D02*
D03*
Y171142D02*
D03*
X84646Y137795D02*
D03*
Y118110D02*
D03*
X99409Y137795D02*
D03*
Y118110D02*
D03*
X385827Y7874D02*
D03*
X7874D02*
D03*
X85630Y49803D02*
D03*
Y109646D02*
D03*
X27559Y104331D02*
D03*
Y124016D02*
D03*
Y94488D02*
D03*
Y74803D02*
D03*
X7874Y188976D02*
D03*
X385827D02*
D03*
D35*
X337992Y70866D02*
D03*
X200197D02*
D03*
D36*
X41102Y181142D02*
D03*
D37*
X363583Y99213D02*
D03*
Y104331D02*
D03*
Y109449D02*
D03*
X312992Y97441D02*
D03*
Y102559D02*
D03*
Y107677D02*
D03*
X148957Y66732D02*
D03*
Y71850D02*
D03*
Y76968D02*
D03*
X126319Y20472D02*
D03*
Y25591D02*
D03*
Y30709D02*
D03*
X148366Y40354D02*
D03*
Y45472D02*
D03*
Y50591D02*
D03*
X187402Y99213D02*
D03*
Y104331D02*
D03*
Y109449D02*
D03*
X239173Y99410D02*
D03*
Y104528D02*
D03*
Y109646D02*
D03*
D38*
X145669Y180866D02*
D03*
Y170866D02*
D03*
Y160866D02*
D03*
Y150866D02*
D03*
Y140866D02*
D03*
Y130866D02*
D03*
Y120866D02*
D03*
Y110866D02*
D03*
X115669D02*
D03*
Y120866D02*
D03*
Y130866D02*
D03*
Y140866D02*
D03*
Y150866D02*
D03*
Y160866D02*
D03*
Y170866D02*
D03*
D39*
Y180866D02*
D03*
D40*
X38386Y12795D02*
D03*
Y22638D02*
D03*
Y32480D02*
D03*
D41*
X110236Y60236D02*
D03*
X105118D02*
D03*
X100000D02*
D03*
D42*
X10827Y111221D02*
D03*
Y93504D02*
D03*
Y25591D02*
D03*
Y65118D02*
D03*
X11811Y162559D02*
D03*
D43*
X10827Y121221D02*
D03*
Y83504D02*
D03*
Y35591D02*
D03*
Y55118D02*
D03*
X269567Y12992D02*
D03*
X11811Y152559D02*
D03*
X126496Y7480D02*
D03*
X161142Y180709D02*
D03*
X184764D02*
D03*
X208386D02*
D03*
X232402D02*
D03*
X256024D02*
D03*
D44*
X259567Y12992D02*
D03*
X136496Y7480D02*
D03*
X171142Y180709D02*
D03*
X194764D02*
D03*
X218386D02*
D03*
X242402D02*
D03*
X266024D02*
D03*
M02*
