G04 Layer_Physical_Order=1*
G04 Layer_Color=255*
%FSLAX25Y25*%
%MOIN*%
G70*
G01*
G75*
%ADD10R,0.06299X0.04724*%
%ADD11R,0.07087X0.06299*%
%ADD12R,0.06299X0.03937*%
%ADD13R,0.03937X0.06299*%
%ADD14C,0.03937*%
%ADD15C,0.01181*%
%ADD16C,0.05905*%
%ADD17R,0.05905X0.05905*%
%ADD18R,0.05905X0.05905*%
%ADD19O,0.05512X0.03937*%
%ADD20C,0.05315*%
%ADD21R,0.05315X0.05315*%
%ADD22C,0.07874*%
%ADD23O,0.03937X0.05512*%
%ADD24R,0.06693X0.06693*%
%ADD25C,0.06693*%
%ADD26R,0.06693X0.06693*%
G36*
X383771Y195347D02*
X383253Y195190D01*
X382090Y194568D01*
X381071Y193732D01*
X380235Y192713D01*
X379613Y191550D01*
X379231Y190288D01*
X379101Y188976D01*
X379231Y187664D01*
X379613Y186403D01*
X380235Y185240D01*
X381071Y184221D01*
X382090Y183385D01*
X383253Y182763D01*
X384515Y182380D01*
X385827Y182251D01*
X387139Y182380D01*
X388400Y182763D01*
X389563Y183385D01*
X390582Y184221D01*
X391419Y185240D01*
X392040Y186403D01*
X392197Y186921D01*
X392697Y186846D01*
Y10004D01*
X392197Y9930D01*
X392040Y10448D01*
X391419Y11610D01*
X390582Y12630D01*
X389563Y13466D01*
X388400Y14087D01*
X387139Y14470D01*
X385827Y14599D01*
X384515Y14470D01*
X383253Y14087D01*
X382090Y13466D01*
X381071Y12630D01*
X380235Y11610D01*
X379613Y10448D01*
X379231Y9186D01*
X379101Y7874D01*
X379231Y6562D01*
X379613Y5300D01*
X380235Y4138D01*
X381071Y3118D01*
X382090Y2282D01*
X383253Y1661D01*
X383771Y1503D01*
X383697Y1003D01*
X10004D01*
X9930Y1503D01*
X10448Y1661D01*
X11610Y2282D01*
X12630Y3118D01*
X13466Y4138D01*
X14087Y5300D01*
X14470Y6562D01*
X14599Y7874D01*
X14470Y9186D01*
X14087Y10448D01*
X13466Y11610D01*
X12630Y12630D01*
X11610Y13466D01*
X10448Y14087D01*
X9186Y14470D01*
X7874Y14599D01*
X6562Y14470D01*
X5300Y14087D01*
X4138Y13466D01*
X3118Y12630D01*
X2282Y11610D01*
X1661Y10448D01*
X1503Y9930D01*
X1003Y10004D01*
Y186846D01*
X1503Y186921D01*
X1661Y186403D01*
X2282Y185240D01*
X3118Y184221D01*
X4138Y183385D01*
X5300Y182763D01*
X6562Y182380D01*
X7874Y182251D01*
X9186Y182380D01*
X10448Y182763D01*
X11610Y183385D01*
X12630Y184221D01*
X13466Y185240D01*
X14087Y186403D01*
X14470Y187664D01*
X14599Y188976D01*
X14470Y190288D01*
X14087Y191550D01*
X13466Y192713D01*
X12630Y193732D01*
X11610Y194568D01*
X10448Y195190D01*
X9930Y195347D01*
X10004Y195847D01*
X383697D01*
X383771Y195347D01*
D02*
G37*
%LPC*%
G36*
X347835Y72276D02*
X346858Y72148D01*
X345948Y71771D01*
X345167Y71171D01*
X344568Y70390D01*
X344191Y69480D01*
X344062Y68504D01*
X344191Y67528D01*
X344568Y66618D01*
X345167Y65836D01*
X345948Y65237D01*
X346858Y64860D01*
X347835Y64732D01*
X348811Y64860D01*
X349721Y65237D01*
X350502Y65836D01*
X351102Y66618D01*
X351479Y67528D01*
X351607Y68504D01*
X351479Y69480D01*
X351102Y70390D01*
X350502Y71171D01*
X349721Y71771D01*
X348811Y72148D01*
X347835Y72276D01*
D02*
G37*
G36*
X327756Y71883D02*
X326780Y71754D01*
X325870Y71377D01*
X325088Y70778D01*
X324489Y69996D01*
X324112Y69087D01*
X323984Y68110D01*
X324112Y67134D01*
X324489Y66224D01*
X325088Y65443D01*
X325870Y64843D01*
X326780Y64466D01*
X327756Y64338D01*
X328732Y64466D01*
X329642Y64843D01*
X330423Y65443D01*
X331023Y66224D01*
X331400Y67134D01*
X331528Y68110D01*
X331400Y69087D01*
X331023Y69996D01*
X330423Y70778D01*
X329642Y71377D01*
X328732Y71754D01*
X327756Y71883D01*
D02*
G37*
G36*
X41102Y74914D02*
X40126Y74786D01*
X39216Y74409D01*
X38435Y73809D01*
X37835Y73028D01*
X37459Y72118D01*
X37330Y71142D01*
X37459Y70165D01*
X37835Y69256D01*
X38435Y68474D01*
X39216Y67875D01*
X40126Y67498D01*
X41102Y67369D01*
X42079Y67498D01*
X42989Y67875D01*
X43770Y68474D01*
X44369Y69256D01*
X44746Y70165D01*
X44875Y71142D01*
X44746Y72118D01*
X44369Y73028D01*
X43770Y73809D01*
X42989Y74409D01*
X42079Y74786D01*
X41102Y74914D01*
D02*
G37*
G36*
X31480Y74303D02*
X28059D01*
Y70882D01*
X28591Y70952D01*
X29553Y71350D01*
X30378Y71984D01*
X31012Y72810D01*
X31410Y73771D01*
X31480Y74303D01*
D02*
G37*
G36*
X27059D02*
X23638D01*
X23708Y73771D01*
X24106Y72810D01*
X24740Y71984D01*
X25566Y71350D01*
X26527Y70952D01*
X27059Y70882D01*
Y74303D01*
D02*
G37*
G36*
X189961Y71883D02*
X188984Y71754D01*
X188074Y71377D01*
X187293Y70778D01*
X186694Y69996D01*
X186317Y69087D01*
X186188Y68110D01*
X186317Y67134D01*
X186694Y66224D01*
X187293Y65443D01*
X188074Y64843D01*
X188984Y64466D01*
X189961Y64338D01*
X190937Y64466D01*
X191847Y64843D01*
X192628Y65443D01*
X193228Y66224D01*
X193605Y67134D01*
X193733Y68110D01*
X193605Y69087D01*
X193228Y69996D01*
X192628Y70778D01*
X191847Y71377D01*
X190937Y71754D01*
X189961Y71883D01*
D02*
G37*
G36*
X113230Y59736D02*
X110736D01*
Y56520D01*
X111011Y56557D01*
X111733Y56856D01*
X112353Y57332D01*
X112829Y57952D01*
X113128Y58674D01*
X113230Y59449D01*
Y59736D01*
D02*
G37*
G36*
X11327Y59436D02*
Y55618D01*
X15145D01*
X15061Y56253D01*
X14623Y57310D01*
X13927Y58218D01*
X13019Y58915D01*
X11961Y59353D01*
X11327Y59436D01*
D02*
G37*
G36*
X41102Y64914D02*
X40126Y64786D01*
X39216Y64409D01*
X38435Y63809D01*
X37835Y63028D01*
X37459Y62118D01*
X37330Y61142D01*
X37459Y60165D01*
X37835Y59255D01*
X38435Y58474D01*
X39216Y57875D01*
X40126Y57498D01*
X41102Y57369D01*
X42079Y57498D01*
X42989Y57875D01*
X43770Y58474D01*
X44369Y59255D01*
X44746Y60165D01*
X44875Y61142D01*
X44746Y62118D01*
X44369Y63028D01*
X43770Y63809D01*
X42989Y64409D01*
X42079Y64786D01*
X41102Y64914D01*
D02*
G37*
G36*
X109736Y63952D02*
X109461Y63916D01*
X108739Y63617D01*
X108119Y63141D01*
X107858Y62801D01*
X107237Y62789D01*
X107084Y62989D01*
X106508Y63431D01*
X105838Y63709D01*
X105118Y63803D01*
X104399Y63709D01*
X103728Y63431D01*
X103153Y62989D01*
X102863Y62611D01*
X102796Y62582D01*
X102323D01*
X102255Y62611D01*
X101965Y62989D01*
X101390Y63431D01*
X100719Y63709D01*
X100000Y63803D01*
X99281Y63709D01*
X98610Y63431D01*
X98035Y62989D01*
X97593Y62414D01*
X97315Y61743D01*
X97220Y61024D01*
Y59449D01*
X97315Y58729D01*
X97593Y58059D01*
X98035Y57483D01*
X98610Y57042D01*
X99281Y56764D01*
X100000Y56669D01*
X100719Y56764D01*
X101390Y57042D01*
X101965Y57483D01*
X102255Y57861D01*
X102323Y57890D01*
X102796D01*
X102863Y57861D01*
X103153Y57483D01*
X103728Y57042D01*
X104399Y56764D01*
X105118Y56669D01*
X105838Y56764D01*
X106508Y57042D01*
X107084Y57483D01*
X107237Y57683D01*
X107858Y57671D01*
X108119Y57332D01*
X108739Y56856D01*
X109461Y56557D01*
X109736Y56520D01*
Y60236D01*
Y63952D01*
D02*
G37*
G36*
X110736Y63952D02*
Y60736D01*
X113230D01*
Y61024D01*
X113128Y61799D01*
X112829Y62521D01*
X112353Y63141D01*
X111733Y63617D01*
X111011Y63916D01*
X110736Y63952D01*
D02*
G37*
G36*
X27059Y78724D02*
X26527Y78654D01*
X25566Y78256D01*
X24740Y77622D01*
X24106Y76797D01*
X23708Y75835D01*
X23638Y75303D01*
X27059D01*
Y78724D01*
D02*
G37*
G36*
X11327Y87822D02*
Y84004D01*
X15145D01*
X15061Y84639D01*
X14623Y85696D01*
X13927Y86604D01*
X13019Y87301D01*
X11961Y87739D01*
X11327Y87822D01*
D02*
G37*
G36*
X10327Y87822D02*
X9692Y87739D01*
X8635Y87301D01*
X7727Y86604D01*
X7030Y85696D01*
X6592Y84639D01*
X6509Y84004D01*
X10327D01*
Y87822D01*
D02*
G37*
G36*
X41102Y94914D02*
X40126Y94786D01*
X39216Y94409D01*
X38435Y93809D01*
X37835Y93028D01*
X37459Y92118D01*
X37330Y91142D01*
X37459Y90165D01*
X37835Y89255D01*
X38435Y88474D01*
X39216Y87875D01*
X40126Y87498D01*
X41102Y87369D01*
X42079Y87498D01*
X42989Y87875D01*
X43770Y88474D01*
X44369Y89255D01*
X44746Y90165D01*
X44875Y91142D01*
X44746Y92118D01*
X44369Y93028D01*
X43770Y93809D01*
X42989Y94409D01*
X42079Y94786D01*
X41102Y94914D01*
D02*
G37*
G36*
X218307Y113189D02*
X212795D01*
Y109433D01*
X212772Y109252D01*
Y98425D01*
X212795Y98245D01*
Y94488D01*
X218307D01*
Y98245D01*
X218331Y98425D01*
Y106472D01*
X223258D01*
X227168Y102562D01*
X227744Y102120D01*
X228414Y101843D01*
X229134Y101748D01*
X236142D01*
X236323Y101248D01*
X235979Y100799D01*
X235701Y100129D01*
X235606Y99410D01*
X235701Y98690D01*
X235979Y98020D01*
X236394Y97479D01*
Y91703D01*
X234085Y89394D01*
X206520D01*
Y98425D01*
X206496Y98606D01*
Y102362D01*
X200984D01*
Y98606D01*
X200960Y98425D01*
Y89394D01*
X142717D01*
X141997Y89299D01*
X141327Y89021D01*
X140751Y88580D01*
X135830Y83658D01*
X135388Y83083D01*
X135110Y82412D01*
X135016Y81693D01*
Y70866D01*
X135110Y70147D01*
X135388Y69476D01*
X135830Y68901D01*
X139964Y64767D01*
X140539Y64325D01*
X141210Y64047D01*
X141929Y63953D01*
X146433D01*
Y61417D01*
X146528Y60698D01*
X146805Y60027D01*
X147247Y59452D01*
X152732Y53967D01*
Y43134D01*
X151397D01*
X151217Y43634D01*
X151561Y44083D01*
X151839Y44753D01*
X151933Y45472D01*
X151839Y46192D01*
X151561Y46862D01*
X151119Y47438D01*
X150741Y47728D01*
X150712Y47795D01*
Y48268D01*
X150741Y48335D01*
X151119Y48625D01*
X151561Y49201D01*
X151839Y49871D01*
X151933Y50591D01*
X151839Y51310D01*
X151561Y51980D01*
X151119Y52556D01*
X150543Y52998D01*
X149873Y53276D01*
X149153Y53370D01*
X147579D01*
X146859Y53276D01*
X146189Y52998D01*
X145613Y52556D01*
X145171Y51980D01*
X144894Y51310D01*
X144799Y50591D01*
X144894Y49871D01*
X145171Y49201D01*
X145516Y48752D01*
X145335Y48252D01*
X140718D01*
X136811Y52159D01*
Y54921D01*
X133055D01*
X132874Y54945D01*
X122047D01*
X121867Y54921D01*
X118110D01*
Y49409D01*
X121867D01*
X122047Y49386D01*
X131723D01*
X137474Y43634D01*
X137294Y43134D01*
X132874D01*
X132693Y43110D01*
X128937D01*
Y37598D01*
X130094D01*
Y32003D01*
X129594Y31904D01*
X129514Y32098D01*
X129072Y32674D01*
X128496Y33116D01*
X127826Y33394D01*
X127820Y33394D01*
X124827Y36388D01*
Y37598D01*
X125984D01*
Y43110D01*
X122228D01*
X122047Y43134D01*
X121867Y43110D01*
X118110D01*
Y37598D01*
X119267D01*
Y35236D01*
X119362Y34517D01*
X119640Y33846D01*
X120082Y33271D01*
X122768Y30584D01*
X122846Y29989D01*
X123124Y29319D01*
X123566Y28743D01*
X123944Y28453D01*
X123973Y28386D01*
Y27913D01*
X123944Y27846D01*
X123566Y27556D01*
X123124Y26980D01*
X122846Y26310D01*
X122752Y25591D01*
X122846Y24871D01*
X123124Y24201D01*
X123566Y23625D01*
X123766Y23472D01*
X123754Y22850D01*
X123414Y22590D01*
X122939Y21970D01*
X122639Y21247D01*
X122603Y20972D01*
X126319D01*
Y20472D01*
X126819D01*
Y17478D01*
X127106D01*
X127881Y17580D01*
X128603Y17879D01*
X129224Y18355D01*
X129594Y18839D01*
X130094Y18669D01*
Y16732D01*
X130189Y16013D01*
X130467Y15342D01*
X130909Y14767D01*
X133599Y12076D01*
X133408Y11614D01*
X132362D01*
Y3347D01*
X140630D01*
Y11614D01*
X139669D01*
Y12717D01*
X139575Y13436D01*
X139297Y14106D01*
X138855Y14682D01*
X135654Y17884D01*
Y37575D01*
X154528D01*
X155247Y37669D01*
X155917Y37947D01*
X156493Y38389D01*
X157477Y39373D01*
X157919Y39949D01*
X158197Y40619D01*
X158291Y41339D01*
Y55118D01*
X158197Y55838D01*
X157919Y56508D01*
X157477Y57084D01*
X151992Y62569D01*
Y65135D01*
X152151Y65342D01*
X152429Y66013D01*
X152524Y66732D01*
X152429Y67452D01*
X152151Y68122D01*
X151710Y68698D01*
X151332Y68988D01*
X151303Y69055D01*
Y69528D01*
X151332Y69595D01*
X151710Y69885D01*
X152151Y70461D01*
X152429Y71131D01*
X152524Y71850D01*
X152429Y72570D01*
X152151Y73240D01*
X151807Y73689D01*
X151988Y74189D01*
X155148D01*
X160606Y68730D01*
Y40521D01*
X150593Y30509D01*
X150152Y29933D01*
X149874Y29263D01*
X149779Y28543D01*
Y27362D01*
X148622D01*
Y21850D01*
X152378D01*
X152559Y21827D01*
X152740Y21850D01*
X156496D01*
Y27362D01*
X156016D01*
X155809Y27862D01*
X165351Y37405D01*
X165793Y37980D01*
X166071Y38651D01*
X166165Y39370D01*
Y69882D01*
X166071Y70601D01*
X165793Y71272D01*
X165351Y71847D01*
X158265Y78934D01*
X157689Y79376D01*
X157019Y79654D01*
X156299Y79748D01*
X148169D01*
X147450Y79654D01*
X146780Y79376D01*
X146204Y78934D01*
X145762Y78358D01*
X145484Y77688D01*
X145390Y76968D01*
X145484Y76249D01*
X145762Y75579D01*
X146204Y75003D01*
X146582Y74713D01*
X146611Y74646D01*
Y74173D01*
X146582Y74106D01*
X146204Y73816D01*
X145762Y73240D01*
X145484Y72570D01*
X145390Y71850D01*
X145484Y71131D01*
X145762Y70461D01*
X146106Y70012D01*
X145926Y69512D01*
X143080D01*
X140575Y72018D01*
Y80541D01*
X143868Y83834D01*
X235236D01*
X235956Y83929D01*
X236626Y84207D01*
X237202Y84649D01*
X241139Y88586D01*
X241581Y89161D01*
X241858Y89832D01*
X241953Y90551D01*
Y96630D01*
X244291D01*
X245011Y96724D01*
X245681Y97002D01*
X246257Y97444D01*
X249380Y100567D01*
X250984D01*
Y95079D01*
X252142D01*
Y92687D01*
X241959Y82504D01*
X202756D01*
X202036Y82409D01*
X201366Y82132D01*
X200790Y81690D01*
X198231Y79131D01*
X197790Y78555D01*
X197512Y77885D01*
X197417Y77165D01*
Y74606D01*
X196457D01*
Y67126D01*
X203068D01*
X203260Y66664D01*
X199418Y62822D01*
X185553D01*
X185354Y63304D01*
X184754Y64085D01*
X183973Y64684D01*
X183063Y65061D01*
X182087Y65190D01*
X181110Y65061D01*
X180200Y64684D01*
X179419Y64085D01*
X178820Y63304D01*
X178443Y62394D01*
X178314Y61417D01*
X178443Y60441D01*
X178820Y59531D01*
X179419Y58750D01*
X180200Y58150D01*
X181110Y57773D01*
X182087Y57645D01*
X183063Y57773D01*
X183973Y58150D01*
X184754Y58750D01*
X185354Y59531D01*
X185553Y60012D01*
X200000D01*
X200538Y60119D01*
X200993Y60424D01*
X206505Y65936D01*
X206580Y66047D01*
X207195Y66067D01*
X207372Y65836D01*
X208153Y65237D01*
X209063Y64860D01*
X210039Y64732D01*
X211016Y64860D01*
X211926Y65237D01*
X212707Y65836D01*
X213306Y66618D01*
X213683Y67528D01*
X213812Y68504D01*
X213683Y69480D01*
X213306Y70390D01*
X212707Y71171D01*
X211926Y71771D01*
X211016Y72148D01*
X210039Y72276D01*
X209063Y72148D01*
X208153Y71771D01*
X207417Y71206D01*
X207054Y71279D01*
X206917Y71326D01*
Y71859D01*
X208456Y73398D01*
X305914D01*
X316437Y62875D01*
X316238Y62394D01*
X316149Y61719D01*
X315621Y61540D01*
X314357Y62804D01*
X313901Y63109D01*
X313364Y63216D01*
X221380D01*
X221180Y63697D01*
X220581Y64478D01*
X219800Y65078D01*
X218890Y65455D01*
X217913Y65583D01*
X216937Y65455D01*
X216027Y65078D01*
X215246Y64478D01*
X214646Y63697D01*
X214269Y62787D01*
X214141Y61811D01*
X214269Y60835D01*
X214646Y59925D01*
X215246Y59144D01*
X215957Y58598D01*
X215931Y58337D01*
X215820Y58098D01*
X192520D01*
X191982Y57991D01*
X191526Y57686D01*
X187039Y53199D01*
X182164D01*
X181965Y53681D01*
X181365Y54462D01*
X180584Y55062D01*
X179674Y55438D01*
X178698Y55567D01*
X177721Y55438D01*
X176812Y55062D01*
X176030Y54462D01*
X175431Y53681D01*
X175054Y52771D01*
X174925Y51794D01*
X175054Y50818D01*
X175431Y49908D01*
X176030Y49127D01*
X176812Y48527D01*
X177721Y48151D01*
X178698Y48022D01*
X179674Y48151D01*
X180584Y48527D01*
X181365Y49127D01*
X181965Y49908D01*
X182164Y50389D01*
X187621D01*
X188159Y50496D01*
X188615Y50801D01*
X193102Y55288D01*
X219211D01*
X219381Y54788D01*
X219183Y54636D01*
X218583Y53855D01*
X218207Y52945D01*
X218078Y51968D01*
X218207Y50992D01*
X218583Y50082D01*
X219183Y49301D01*
X219894Y48755D01*
X219868Y48494D01*
X219757Y48255D01*
X185630D01*
X185092Y48148D01*
X184636Y47844D01*
X181576Y44783D01*
X181094Y44982D01*
X180118Y45111D01*
X179142Y44982D01*
X178232Y44606D01*
X177451Y44006D01*
X176851Y43225D01*
X176474Y42315D01*
X176346Y41339D01*
X176474Y40362D01*
X176851Y39452D01*
X177451Y38671D01*
X178232Y38072D01*
X179142Y37695D01*
X180118Y37566D01*
X181094Y37695D01*
X182004Y38072D01*
X182786Y38671D01*
X183385Y39452D01*
X183762Y40362D01*
X183890Y41339D01*
X183762Y42315D01*
X183563Y42796D01*
X186212Y45445D01*
X218576D01*
X218687Y45206D01*
X218713Y44945D01*
X218002Y44400D01*
X217402Y43619D01*
X217025Y42709D01*
X216897Y41732D01*
X217025Y40756D01*
X217402Y39846D01*
X217816Y39307D01*
X217570Y38807D01*
X209055D01*
X208518Y38700D01*
X208062Y38395D01*
X204142Y34476D01*
X189490D01*
X189291Y34957D01*
X188691Y35738D01*
X187910Y36338D01*
X187000Y36715D01*
X186024Y36843D01*
X185047Y36715D01*
X184137Y36338D01*
X183356Y35738D01*
X182757Y34957D01*
X182380Y34047D01*
X182251Y33071D01*
X182380Y32094D01*
X182757Y31185D01*
X183356Y30403D01*
X184137Y29804D01*
X185047Y29427D01*
X186024Y29298D01*
X187000Y29427D01*
X187910Y29804D01*
X188691Y30403D01*
X189291Y31185D01*
X189490Y31666D01*
X192985D01*
X193096Y31427D01*
X193122Y31166D01*
X192411Y30620D01*
X191812Y29839D01*
X191435Y28929D01*
X191306Y27953D01*
X191435Y26976D01*
X191812Y26066D01*
X192411Y25285D01*
X193193Y24686D01*
X194102Y24309D01*
X195079Y24180D01*
X196055Y24309D01*
X196536Y24508D01*
X204321Y16723D01*
X204777Y16419D01*
X205315Y16312D01*
X212205D01*
X212742Y16419D01*
X213198Y16723D01*
X222235Y25760D01*
X248046D01*
X248146Y25260D01*
X247626Y25045D01*
X247050Y24603D01*
X238022Y15575D01*
X152559D01*
X152378Y15551D01*
X148622D01*
Y10039D01*
X152378D01*
X152559Y10016D01*
X239173D01*
X239893Y10110D01*
X240563Y10388D01*
X241139Y10830D01*
X250167Y19858D01*
X263612D01*
X266816Y16654D01*
X266786Y16069D01*
X266619Y15940D01*
X265956Y15077D01*
X265540Y14071D01*
X265397Y12992D01*
X265540Y11913D01*
X265956Y10907D01*
X266619Y10044D01*
X267482Y9381D01*
X268488Y8965D01*
X269567Y8823D01*
X270646Y8965D01*
X271652Y9381D01*
X272515Y10044D01*
X273178Y10907D01*
X273594Y11913D01*
X273737Y12992D01*
X273594Y14071D01*
X273178Y15077D01*
X272544Y15904D01*
Y17638D01*
X272449Y18357D01*
X272171Y19028D01*
X271729Y19603D01*
X266729Y24603D01*
X266154Y25045D01*
X265634Y25260D01*
X265733Y25760D01*
X295847D01*
X299372Y22235D01*
X299828Y21930D01*
X300366Y21823D01*
X328150D01*
X328687Y21930D01*
X329143Y22235D01*
X331416Y24508D01*
X331898Y24309D01*
X332874Y24180D01*
X333850Y24309D01*
X334760Y24686D01*
X335542Y25285D01*
X336141Y26066D01*
X336518Y26976D01*
X336646Y27953D01*
X336518Y28929D01*
X336141Y29839D01*
X335542Y30620D01*
X334830Y31166D01*
X334856Y31427D01*
X334967Y31666D01*
X340471D01*
X340641Y31166D01*
X340443Y31014D01*
X339843Y30233D01*
X339466Y29323D01*
X339338Y28346D01*
X339466Y27370D01*
X339843Y26460D01*
X340443Y25679D01*
X341224Y25079D01*
X342134Y24702D01*
X343110Y24574D01*
X344087Y24702D01*
X344996Y25079D01*
X345778Y25679D01*
X346377Y26460D01*
X346754Y27370D01*
X346883Y28346D01*
X346754Y29323D01*
X346377Y30233D01*
X345778Y31014D01*
X345580Y31166D01*
X345749Y31666D01*
X349093D01*
X349292Y31185D01*
X349892Y30403D01*
X350673Y29804D01*
X351583Y29427D01*
X352559Y29298D01*
X353535Y29427D01*
X354445Y29804D01*
X355226Y30403D01*
X355826Y31185D01*
X356203Y32094D01*
X356331Y33071D01*
X356203Y34047D01*
X355826Y34957D01*
X355226Y35738D01*
X354445Y36338D01*
X353535Y36715D01*
X352559Y36843D01*
X351583Y36715D01*
X350673Y36338D01*
X349892Y35738D01*
X349292Y34957D01*
X349093Y34476D01*
X331496D01*
X330958Y34369D01*
X330503Y34064D01*
X327630Y31192D01*
X327206Y31475D01*
X327463Y32094D01*
X327591Y33071D01*
X327463Y34047D01*
X327086Y34957D01*
X326486Y35738D01*
X325705Y36338D01*
X324795Y36715D01*
X323819Y36843D01*
X323331Y36779D01*
X323098Y37253D01*
X326172Y40327D01*
X354998D01*
X355198Y39846D01*
X355797Y39065D01*
X356578Y38465D01*
X357488Y38088D01*
X358465Y37960D01*
X359441Y38088D01*
X360351Y38465D01*
X361132Y39065D01*
X361732Y39846D01*
X362108Y40756D01*
X362237Y41732D01*
X362108Y42709D01*
X361732Y43619D01*
X361132Y44400D01*
X360351Y44999D01*
X359441Y45376D01*
X358465Y45505D01*
X357488Y45376D01*
X356578Y44999D01*
X355797Y44400D01*
X355198Y43619D01*
X354998Y43137D01*
X325590D01*
X325053Y43030D01*
X324597Y42726D01*
X322081Y40210D01*
X321597Y40358D01*
X321562Y40398D01*
X321686Y41339D01*
X321557Y42315D01*
X321180Y43225D01*
X320581Y44006D01*
X320330Y44198D01*
X320455Y44733D01*
X320616Y44765D01*
X321072Y45070D01*
X326566Y50564D01*
X356179D01*
X356379Y50082D01*
X356978Y49301D01*
X357759Y48702D01*
X358669Y48325D01*
X359646Y48196D01*
X360622Y48325D01*
X361532Y48702D01*
X362313Y49301D01*
X362913Y50082D01*
X363289Y50992D01*
X363418Y51968D01*
X363289Y52945D01*
X362913Y53855D01*
X362313Y54636D01*
X361532Y55235D01*
X360622Y55612D01*
X359646Y55741D01*
X358669Y55612D01*
X357759Y55235D01*
X356978Y54636D01*
X356379Y53855D01*
X356179Y53373D01*
X325984D01*
X325447Y53267D01*
X324991Y52962D01*
X319497Y47468D01*
X313574D01*
X308080Y52962D01*
X307624Y53267D01*
X307087Y53373D01*
X225317D01*
X225117Y53855D01*
X224518Y54636D01*
X224320Y54788D01*
X224489Y55288D01*
X311013D01*
X313049Y53252D01*
X312849Y52771D01*
X312721Y51794D01*
X312849Y50818D01*
X313226Y49908D01*
X313826Y49127D01*
X314607Y48527D01*
X315517Y48151D01*
X316493Y48022D01*
X317469Y48151D01*
X318379Y48527D01*
X319161Y49127D01*
X319760Y49908D01*
X320137Y50818D01*
X320266Y51794D01*
X320137Y52771D01*
X319760Y53681D01*
X319213Y54394D01*
X319277Y54658D01*
X319419Y54894D01*
X350197D01*
X350734Y55001D01*
X351190Y55306D01*
X354251Y58367D01*
X354732Y58167D01*
X355709Y58039D01*
X356685Y58167D01*
X357595Y58544D01*
X358376Y59144D01*
X358976Y59925D01*
X359352Y60835D01*
X359481Y61811D01*
X359352Y62787D01*
X358976Y63697D01*
X358376Y64478D01*
X357595Y65078D01*
X356685Y65455D01*
X355709Y65583D01*
X354732Y65455D01*
X353822Y65078D01*
X353041Y64478D01*
X352442Y63697D01*
X352065Y62787D01*
X351936Y61811D01*
X352065Y60835D01*
X352264Y60353D01*
X349615Y57704D01*
X321975D01*
X321864Y57943D01*
X321838Y58204D01*
X322549Y58750D01*
X323149Y59531D01*
X323526Y60441D01*
X323654Y61417D01*
X323526Y62394D01*
X323149Y63304D01*
X322549Y64085D01*
X321768Y64684D01*
X320858Y65061D01*
X319882Y65190D01*
X318905Y65061D01*
X318424Y64862D01*
X307489Y75797D01*
X307034Y76101D01*
X306496Y76208D01*
X207874D01*
X207336Y76101D01*
X206881Y75797D01*
X204518Y73434D01*
X204437Y73313D01*
X203937Y73464D01*
Y74606D01*
X202976D01*
Y76014D01*
X203907Y76945D01*
X243110D01*
X243830Y77039D01*
X244500Y77317D01*
X245076Y77759D01*
X256887Y89570D01*
X257329Y90146D01*
X257606Y90816D01*
X257701Y91535D01*
Y95079D01*
X258858D01*
Y99746D01*
X259320Y99938D01*
X277562Y81696D01*
X278138Y81254D01*
X278808Y80976D01*
X279528Y80882D01*
X338605D01*
X338705Y80382D01*
X338177Y80163D01*
X337601Y79721D01*
X336027Y78147D01*
X335585Y77571D01*
X335307Y76901D01*
X335212Y76181D01*
Y74606D01*
X334252D01*
Y67126D01*
X341732D01*
Y74606D01*
X342046Y74976D01*
X374016D01*
X374735Y75071D01*
X375406Y75349D01*
X375981Y75790D01*
X381985Y81794D01*
X382427Y82370D01*
X382705Y83040D01*
X382799Y83760D01*
Y94882D01*
X383957D01*
Y100394D01*
X380200D01*
X380020Y100417D01*
X379839Y100394D01*
X376083D01*
Y94882D01*
X377240D01*
Y84911D01*
X372864Y80536D01*
X348993D01*
X348894Y81036D01*
X349421Y81254D01*
X349997Y81696D01*
X364789Y96488D01*
X365090Y96528D01*
X365760Y96805D01*
X366336Y97247D01*
X366777Y97823D01*
X367055Y98493D01*
X367150Y99213D01*
X367055Y99932D01*
X366777Y100602D01*
X366336Y101178D01*
X365958Y101468D01*
X365929Y101535D01*
Y102008D01*
X365958Y102075D01*
X366336Y102365D01*
X366777Y102941D01*
X367055Y103611D01*
X367150Y104331D01*
X367055Y105050D01*
X366777Y105720D01*
X366433Y106169D01*
X366614Y106669D01*
X379724D01*
X379905Y106693D01*
X383957D01*
Y112205D01*
X379905D01*
X379724Y112229D01*
X362795D01*
X362076Y112134D01*
X361405Y111856D01*
X360830Y111414D01*
X360388Y110839D01*
X360110Y110168D01*
X360016Y109449D01*
X360110Y108729D01*
X360388Y108059D01*
X360732Y107610D01*
X360552Y107110D01*
X355482D01*
X352359Y110233D01*
X351784Y110675D01*
X351113Y110953D01*
X350394Y111047D01*
X343307D01*
Y112205D01*
X337795D01*
Y108448D01*
X337772Y108268D01*
Y97441D01*
X337772Y97441D01*
X337795Y97260D01*
Y93504D01*
X343307D01*
Y97260D01*
X343331Y97441D01*
Y105488D01*
X349242D01*
X352365Y102365D01*
X352941Y101923D01*
X353611Y101646D01*
X354331Y101551D01*
X360552D01*
X360732Y101051D01*
X360388Y100602D01*
X360110Y99932D01*
X360071Y99632D01*
X346880Y86441D01*
X331201D01*
X330954Y86941D01*
X331147Y87193D01*
X331425Y87863D01*
X331520Y88583D01*
Y97441D01*
X331496Y97622D01*
Y101378D01*
X325984D01*
Y97622D01*
X325960Y97441D01*
Y89734D01*
X322668Y86441D01*
X280679D01*
X261808Y105312D01*
X261232Y105754D01*
X260562Y106031D01*
X259842Y106126D01*
X248228D01*
X247509Y106031D01*
X246838Y105754D01*
X246263Y105312D01*
X243140Y102189D01*
X242204D01*
X242024Y102689D01*
X242368Y103138D01*
X242646Y103808D01*
X242740Y104528D01*
X242646Y105247D01*
X242368Y105917D01*
X242024Y106366D01*
X242204Y106866D01*
X254921D01*
X255102Y106890D01*
X258858D01*
Y112402D01*
X255102D01*
X254921Y112425D01*
X238386D01*
X237666Y112331D01*
X236996Y112053D01*
X236420Y111611D01*
X235979Y111036D01*
X235701Y110365D01*
X235606Y109646D01*
X235701Y108926D01*
X235979Y108256D01*
X236323Y107807D01*
X236142Y107307D01*
X230285D01*
X226375Y111217D01*
X225799Y111659D01*
X225129Y111937D01*
X224410Y112032D01*
X218307D01*
Y113189D01*
D02*
G37*
G36*
X71102Y94914D02*
X70126Y94786D01*
X69216Y94409D01*
X68435Y93809D01*
X67835Y93028D01*
X67458Y92118D01*
X67330Y91142D01*
X67458Y90165D01*
X67835Y89255D01*
X68435Y88474D01*
X69216Y87875D01*
X70126Y87498D01*
X71102Y87369D01*
X72079Y87498D01*
X72989Y87875D01*
X73770Y88474D01*
X74369Y89255D01*
X74746Y90165D01*
X74875Y91142D01*
X74746Y92118D01*
X74369Y93028D01*
X73770Y93809D01*
X72989Y94409D01*
X72079Y94786D01*
X71102Y94914D01*
D02*
G37*
G36*
X112992Y87598D02*
X107480D01*
Y86441D01*
X103347D01*
X102627Y86346D01*
X101957Y86069D01*
X101381Y85627D01*
X79675Y63921D01*
X73624D01*
X72989Y64409D01*
X72079Y64786D01*
X71102Y64914D01*
X70126Y64786D01*
X69216Y64409D01*
X68435Y63809D01*
X67835Y63028D01*
X67458Y62118D01*
X67330Y61142D01*
X67458Y60165D01*
X67835Y59255D01*
X68435Y58474D01*
X69216Y57875D01*
X70126Y57498D01*
X71102Y57369D01*
X72079Y57498D01*
X72989Y57875D01*
X73624Y58362D01*
X80827D01*
X81546Y58457D01*
X82217Y58735D01*
X82792Y59176D01*
X104498Y80882D01*
X107480D01*
Y79724D01*
X112992D01*
Y83481D01*
X113016Y83661D01*
X112992Y83842D01*
Y87598D01*
D02*
G37*
G36*
X41102Y84914D02*
X40126Y84786D01*
X39216Y84409D01*
X38435Y83809D01*
X37835Y83028D01*
X37459Y82118D01*
X37330Y81142D01*
X37459Y80165D01*
X37835Y79255D01*
X38435Y78474D01*
X39216Y77875D01*
X40126Y77498D01*
X41102Y77369D01*
X42079Y77498D01*
X42989Y77875D01*
X43770Y78474D01*
X44369Y79255D01*
X44746Y80165D01*
X44875Y81142D01*
X44746Y82118D01*
X44369Y83028D01*
X43770Y83809D01*
X42989Y84409D01*
X42079Y84786D01*
X41102Y84914D01*
D02*
G37*
G36*
X28059Y78724D02*
Y75303D01*
X31480D01*
X31410Y75835D01*
X31012Y76797D01*
X30378Y77622D01*
X29553Y78256D01*
X28591Y78654D01*
X28059Y78724D01*
D02*
G37*
G36*
X71102Y84914D02*
X70126Y84786D01*
X69216Y84409D01*
X68435Y83809D01*
X67835Y83028D01*
X67458Y82118D01*
X67330Y81142D01*
X67458Y80165D01*
X67835Y79255D01*
X68435Y78474D01*
X69216Y77875D01*
X70126Y77498D01*
X71102Y77369D01*
X72079Y77498D01*
X72989Y77875D01*
X73770Y78474D01*
X74369Y79255D01*
X74746Y80165D01*
X74875Y81142D01*
X74746Y82118D01*
X74369Y83028D01*
X73770Y83809D01*
X72989Y84409D01*
X72079Y84786D01*
X71102Y84914D01*
D02*
G37*
G36*
X15145Y83004D02*
X11327D01*
Y79186D01*
X11961Y79269D01*
X13019Y79707D01*
X13927Y80404D01*
X14623Y81312D01*
X15061Y82369D01*
X15145Y83004D01*
D02*
G37*
G36*
X10327D02*
X6509D01*
X6592Y82369D01*
X7030Y81312D01*
X7727Y80404D01*
X8635Y79707D01*
X9692Y79269D01*
X10327Y79186D01*
Y83004D01*
D02*
G37*
G36*
X10327Y59436D02*
X9692Y59353D01*
X8635Y58915D01*
X7727Y58218D01*
X7030Y57310D01*
X6592Y56253D01*
X6509Y55618D01*
X10327D01*
Y59436D01*
D02*
G37*
G36*
X27772Y22138D02*
X24122D01*
Y19276D01*
X27772D01*
Y22138D01*
D02*
G37*
G36*
X23122D02*
X19473D01*
Y19276D01*
X23122D01*
Y22138D01*
D02*
G37*
G36*
X14961Y69252D02*
X6693D01*
Y60984D01*
X14961D01*
Y61164D01*
X15423Y61355D01*
X20842Y55935D01*
Y50787D01*
X19291D01*
Y42913D01*
X27953D01*
Y44071D01*
X33691D01*
X35606Y42156D01*
Y36302D01*
X35016Y35850D01*
X34259Y34863D01*
X33783Y33714D01*
X33621Y32480D01*
X33783Y31247D01*
X34259Y30098D01*
X35016Y29111D01*
X36003Y28354D01*
X37016Y27934D01*
X37053Y27713D01*
X37019Y27416D01*
X35896Y26950D01*
X34865Y26159D01*
X34073Y25128D01*
X33576Y23927D01*
X33472Y23138D01*
X38386D01*
X43300D01*
X43196Y23927D01*
X42698Y25128D01*
X41907Y26159D01*
X40876Y26950D01*
X39752Y27416D01*
X39719Y27713D01*
X39756Y27934D01*
X40768Y28354D01*
X41755Y29111D01*
X42513Y30098D01*
X42989Y31247D01*
X43151Y32480D01*
X42989Y33714D01*
X42513Y34863D01*
X41755Y35850D01*
X41166Y36302D01*
Y43307D01*
X41071Y44026D01*
X40793Y44697D01*
X40351Y45273D01*
X36808Y48816D01*
X36232Y49258D01*
X35562Y49535D01*
X34843Y49630D01*
X27953D01*
Y50787D01*
X26402D01*
Y57087D01*
X26307Y57806D01*
X26029Y58476D01*
X25588Y59052D01*
X17556Y67084D01*
X16980Y67525D01*
X16310Y67803D01*
X15590Y67898D01*
X14961D01*
Y69252D01*
D02*
G37*
G36*
X27772Y26000D02*
X24122D01*
Y23138D01*
X27772D01*
Y26000D01*
D02*
G37*
G36*
X23122D02*
X19473D01*
Y23138D01*
X23122D01*
Y26000D01*
D02*
G37*
G36*
X125819Y19972D02*
X122603D01*
X122639Y19697D01*
X122939Y18975D01*
X123414Y18355D01*
X124034Y17879D01*
X124757Y17580D01*
X125531Y17478D01*
X125819D01*
Y19972D01*
D02*
G37*
G36*
X130814Y6980D02*
X126996D01*
Y3162D01*
X127631Y3246D01*
X128688Y3684D01*
X129596Y4380D01*
X130293Y5288D01*
X130731Y6346D01*
X130814Y6980D01*
D02*
G37*
G36*
X125996D02*
X122178D01*
X122262Y6346D01*
X122699Y5288D01*
X123396Y4380D01*
X124304Y3684D01*
X125361Y3246D01*
X125996Y3162D01*
Y6980D01*
D02*
G37*
G36*
Y11798D02*
X125361Y11715D01*
X124304Y11277D01*
X123396Y10580D01*
X122699Y9672D01*
X122262Y8615D01*
X122178Y7980D01*
X125996D01*
Y11798D01*
D02*
G37*
G36*
X263701Y17126D02*
X255433D01*
Y8858D01*
X263701D01*
Y17126D01*
D02*
G37*
G36*
X126996Y11798D02*
Y7980D01*
X130814D01*
X130731Y8615D01*
X130293Y9672D01*
X129596Y10580D01*
X128688Y11277D01*
X127631Y11715D01*
X126996Y11798D01*
D02*
G37*
G36*
X10327Y35091D02*
X6509D01*
X6592Y34456D01*
X7030Y33399D01*
X7727Y32491D01*
X8635Y31794D01*
X9692Y31356D01*
X10327Y31272D01*
Y35091D01*
D02*
G37*
G36*
X41102Y54914D02*
X40126Y54786D01*
X39216Y54409D01*
X38435Y53809D01*
X37835Y53028D01*
X37459Y52118D01*
X37330Y51142D01*
X37459Y50165D01*
X37835Y49255D01*
X38435Y48474D01*
X39216Y47875D01*
X40126Y47498D01*
X41102Y47369D01*
X42079Y47498D01*
X42989Y47875D01*
X43770Y48474D01*
X44369Y49255D01*
X44746Y50165D01*
X44875Y51142D01*
X44746Y52118D01*
X44369Y53028D01*
X43770Y53809D01*
X42989Y54409D01*
X42079Y54786D01*
X41102Y54914D01*
D02*
G37*
G36*
X28165Y39976D02*
X24122D01*
Y36327D01*
X28165D01*
Y39976D01*
D02*
G37*
G36*
X71102Y54914D02*
X70126Y54786D01*
X69216Y54409D01*
X68435Y53809D01*
X67835Y53028D01*
X67458Y52118D01*
X67330Y51142D01*
X67458Y50165D01*
X67835Y49255D01*
X68435Y48474D01*
X69216Y47875D01*
X70126Y47498D01*
X71102Y47369D01*
X72079Y47498D01*
X72989Y47875D01*
X73770Y48474D01*
X74369Y49255D01*
X74746Y50165D01*
X74875Y51142D01*
X74746Y52118D01*
X74369Y53028D01*
X73770Y53809D01*
X72989Y54409D01*
X72079Y54786D01*
X71102Y54914D01*
D02*
G37*
G36*
X15145Y54618D02*
X11327D01*
Y50800D01*
X11961Y50884D01*
X13019Y51322D01*
X13927Y52018D01*
X14623Y52926D01*
X15061Y53983D01*
X15145Y54618D01*
D02*
G37*
G36*
X10327D02*
X6509D01*
X6592Y53983D01*
X7030Y52926D01*
X7727Y52018D01*
X8635Y51322D01*
X9692Y50884D01*
X10327Y50800D01*
Y54618D01*
D02*
G37*
G36*
X23122Y39976D02*
X19079D01*
Y36327D01*
X23122D01*
Y39976D01*
D02*
G37*
G36*
Y35327D02*
X19079D01*
Y31677D01*
X23122D01*
Y35327D01*
D02*
G37*
G36*
X15145Y35091D02*
X11327D01*
Y31272D01*
X11961Y31356D01*
X13019Y31794D01*
X13927Y32491D01*
X14623Y33399D01*
X15061Y34456D01*
X15145Y35091D01*
D02*
G37*
G36*
X28165Y35327D02*
X24122D01*
Y31677D01*
X28165D01*
Y35327D01*
D02*
G37*
G36*
X11327Y39909D02*
Y36090D01*
X15145D01*
X15061Y36725D01*
X14623Y37782D01*
X13927Y38691D01*
X13019Y39387D01*
X11961Y39825D01*
X11327Y39909D01*
D02*
G37*
G36*
X10327Y39909D02*
X9692Y39825D01*
X8635Y39387D01*
X7727Y38691D01*
X7030Y37782D01*
X6592Y36725D01*
X6509Y36090D01*
X10327D01*
Y39909D01*
D02*
G37*
G36*
X103331Y137295D02*
X99910D01*
Y133874D01*
X100441Y133944D01*
X101403Y134343D01*
X102229Y134976D01*
X102862Y135802D01*
X103260Y136763D01*
X103331Y137295D01*
D02*
G37*
G36*
X88567D02*
X85146D01*
Y133874D01*
X85677Y133944D01*
X86639Y134343D01*
X87465Y134976D01*
X88098Y135802D01*
X88497Y136763D01*
X88567Y137295D01*
D02*
G37*
G36*
X145169Y140366D02*
X142046D01*
X142106Y139911D01*
X142474Y139022D01*
X143061Y138258D01*
X143825Y137671D01*
X144714Y137303D01*
X145169Y137243D01*
Y140366D01*
D02*
G37*
G36*
X84146Y141716D02*
X83614Y141646D01*
X82652Y141248D01*
X81827Y140614D01*
X81193Y139789D01*
X80795Y138827D01*
X80725Y138295D01*
X84146D01*
Y141716D01*
D02*
G37*
G36*
X149293Y140366D02*
X146169D01*
Y137243D01*
X146624Y137303D01*
X147514Y137671D01*
X148278Y138258D01*
X148864Y139022D01*
X149233Y139911D01*
X149293Y140366D01*
D02*
G37*
G36*
X98909Y137295D02*
X95488D01*
X95558Y136763D01*
X95957Y135802D01*
X96590Y134976D01*
X97416Y134343D01*
X98378Y133944D01*
X98909Y133874D01*
Y137295D01*
D02*
G37*
G36*
X232402Y184878D02*
X231322Y184736D01*
X230317Y184320D01*
X229453Y183657D01*
X228791Y182793D01*
X228374Y181788D01*
X228232Y180709D01*
X228374Y179630D01*
X228791Y178624D01*
X229453Y177760D01*
X230317Y177098D01*
X230485Y177028D01*
Y173810D01*
X229339Y172665D01*
X207874D01*
X207336Y172558D01*
X206881Y172253D01*
X187607Y152980D01*
X153543D01*
X153006Y152873D01*
X152550Y152568D01*
X150739Y150757D01*
X150434Y150301D01*
X150327Y149764D01*
Y132271D01*
X148816D01*
X148678Y132603D01*
X148126Y133323D01*
X147407Y133875D01*
X146569Y134222D01*
X145669Y134341D01*
X144770Y134222D01*
X143932Y133875D01*
X143212Y133323D01*
X142660Y132603D01*
X142313Y131765D01*
X142195Y130866D01*
X142313Y129967D01*
X142660Y129129D01*
X143212Y128409D01*
X143932Y127857D01*
X144770Y127510D01*
X145669Y127392D01*
X146569Y127510D01*
X147407Y127857D01*
X148126Y128409D01*
X148678Y129129D01*
X148816Y129461D01*
X151732D01*
X152270Y129568D01*
X152726Y129873D01*
X153030Y130329D01*
X153137Y130866D01*
Y149182D01*
X154125Y150170D01*
X187814D01*
X188066Y149686D01*
X187937Y149497D01*
X187862Y149436D01*
X155905D01*
X155368Y149329D01*
X154912Y149025D01*
X154518Y148631D01*
X154214Y148176D01*
X154107Y147638D01*
Y124598D01*
X151780Y122271D01*
X148816D01*
X148678Y122603D01*
X148126Y123323D01*
X147407Y123875D01*
X146569Y124222D01*
X145669Y124341D01*
X144770Y124222D01*
X143932Y123875D01*
X143212Y123323D01*
X142660Y122603D01*
X142313Y121765D01*
X142195Y120866D01*
X142313Y119967D01*
X142660Y119129D01*
X143212Y118409D01*
X143932Y117857D01*
X144770Y117510D01*
X145669Y117392D01*
X146569Y117510D01*
X147407Y117857D01*
X148126Y118409D01*
X148678Y119129D01*
X148816Y119461D01*
X152362D01*
X152900Y119568D01*
X153356Y119873D01*
X156505Y123022D01*
X156810Y123478D01*
X156917Y124016D01*
Y146626D01*
X188583D01*
X189120Y146733D01*
X189576Y147038D01*
X208850Y166312D01*
X236378D01*
X236916Y166419D01*
X237371Y166723D01*
X243001Y172353D01*
X243306Y172809D01*
X243413Y173346D01*
Y176575D01*
X246535D01*
Y184843D01*
X238268D01*
Y176575D01*
X240603D01*
Y173928D01*
X235796Y169122D01*
X208642D01*
X208391Y169605D01*
X208520Y169794D01*
X208595Y169855D01*
X229921D01*
X230459Y169962D01*
X230915Y170266D01*
X232883Y172235D01*
X233188Y172691D01*
X233295Y173228D01*
Y176657D01*
X233481Y176681D01*
X234486Y177098D01*
X235350Y177760D01*
X236013Y178624D01*
X236429Y179630D01*
X236571Y180709D01*
X236429Y181788D01*
X236013Y182793D01*
X235350Y183657D01*
X234486Y184320D01*
X233481Y184736D01*
X232402Y184878D01*
D02*
G37*
G36*
X11327Y125539D02*
Y121720D01*
X15145D01*
X15061Y122355D01*
X14623Y123412D01*
X13927Y124320D01*
X13019Y125017D01*
X11961Y125455D01*
X11327Y125539D01*
D02*
G37*
G36*
X27059Y127937D02*
X26527Y127867D01*
X25566Y127469D01*
X24740Y126835D01*
X24106Y126009D01*
X23708Y125048D01*
X23638Y124516D01*
X27059D01*
Y127937D01*
D02*
G37*
G36*
X84146Y137295D02*
X80725D01*
X80795Y136763D01*
X81193Y135802D01*
X81827Y134976D01*
X82652Y134343D01*
X83614Y133944D01*
X84146Y133874D01*
Y137295D01*
D02*
G37*
G36*
X41102Y134914D02*
X40126Y134786D01*
X39216Y134409D01*
X38435Y133809D01*
X37835Y133028D01*
X37459Y132118D01*
X37330Y131142D01*
X37459Y130165D01*
X37835Y129255D01*
X38435Y128474D01*
X39216Y127875D01*
X40126Y127498D01*
X41102Y127369D01*
X42079Y127498D01*
X42989Y127875D01*
X43770Y128474D01*
X44369Y129255D01*
X44746Y130165D01*
X44875Y131142D01*
X44746Y132118D01*
X44369Y133028D01*
X43770Y133809D01*
X42989Y134409D01*
X42079Y134786D01*
X41102Y134914D01*
D02*
G37*
G36*
X98909Y141716D02*
X98378Y141646D01*
X97416Y141248D01*
X96590Y140614D01*
X95957Y139789D01*
X95558Y138827D01*
X95488Y138295D01*
X98909D01*
Y141716D01*
D02*
G37*
G36*
X41102Y174914D02*
X40126Y174786D01*
X39216Y174409D01*
X38435Y173809D01*
X37835Y173028D01*
X37459Y172118D01*
X37330Y171142D01*
X37459Y170165D01*
X37835Y169255D01*
X38435Y168474D01*
X39216Y167875D01*
X40126Y167498D01*
X41102Y167369D01*
X42079Y167498D01*
X42989Y167875D01*
X43770Y168474D01*
X44369Y169255D01*
X44746Y170165D01*
X44875Y171142D01*
X44746Y172118D01*
X44369Y173028D01*
X43770Y173809D01*
X42989Y174409D01*
X42079Y174786D01*
X41102Y174914D01*
D02*
G37*
G36*
X15945Y166693D02*
X7677D01*
Y158425D01*
X15945D01*
Y166693D01*
D02*
G37*
G36*
X256299Y192350D02*
X112205D01*
X111667Y192243D01*
X111211Y191938D01*
X106487Y187214D01*
X106182Y186758D01*
X106075Y186221D01*
Y173228D01*
X106182Y172691D01*
X106487Y172235D01*
X108849Y169873D01*
X109305Y169568D01*
X109843Y169461D01*
X112522D01*
X112660Y169129D01*
X113212Y168409D01*
X113685Y168047D01*
X113515Y167547D01*
X73382D01*
X73213Y168047D01*
X73770Y168474D01*
X74369Y169255D01*
X74746Y170165D01*
X74875Y171142D01*
X74746Y172118D01*
X74369Y173028D01*
X73770Y173809D01*
X72989Y174409D01*
X72079Y174786D01*
X71102Y174914D01*
X70126Y174786D01*
X69216Y174409D01*
X68435Y173809D01*
X67835Y173028D01*
X67458Y172118D01*
X67330Y171142D01*
X67458Y170165D01*
X67835Y169255D01*
X68435Y168474D01*
X68992Y168047D01*
X68822Y167547D01*
X68504D01*
X67966Y167440D01*
X67510Y167135D01*
X64361Y163986D01*
X64056Y163530D01*
X63949Y162992D01*
Y156693D01*
X64056Y156155D01*
X64361Y155700D01*
X67600Y152460D01*
X67458Y152118D01*
X67330Y151142D01*
X67458Y150165D01*
X67835Y149256D01*
X68435Y148474D01*
X69216Y147875D01*
X70126Y147498D01*
X71102Y147369D01*
X72079Y147498D01*
X72989Y147875D01*
X73770Y148474D01*
X74369Y149256D01*
X74746Y150165D01*
X74875Y151142D01*
X74746Y152118D01*
X74369Y153028D01*
X73770Y153809D01*
X72989Y154409D01*
X72079Y154786D01*
X71102Y154914D01*
X70126Y154786D01*
X69506Y154529D01*
X66759Y157275D01*
Y162410D01*
X67235Y162886D01*
X67659Y162603D01*
X67458Y162118D01*
X67330Y161142D01*
X67458Y160165D01*
X67835Y159256D01*
X68435Y158474D01*
X69216Y157875D01*
X70126Y157498D01*
X71102Y157369D01*
X72079Y157498D01*
X72989Y157875D01*
X73624Y158362D01*
X92431D01*
X101893Y148901D01*
X102468Y148459D01*
X103139Y148181D01*
X103858Y148087D01*
X113633D01*
X113932Y147857D01*
X114615Y147574D01*
X114515Y147074D01*
X75630D01*
X75092Y146967D01*
X74637Y146663D01*
X72560Y144586D01*
X72079Y144786D01*
X71102Y144914D01*
X70126Y144786D01*
X69216Y144409D01*
X68435Y143809D01*
X67835Y143028D01*
X67458Y142118D01*
X67330Y141142D01*
X67458Y140165D01*
X67835Y139255D01*
X68435Y138474D01*
X69216Y137875D01*
X70126Y137498D01*
X71102Y137369D01*
X72079Y137498D01*
X72989Y137875D01*
X73770Y138474D01*
X74369Y139255D01*
X74746Y140165D01*
X74875Y141142D01*
X74746Y142118D01*
X74547Y142599D01*
X76212Y144264D01*
X113618D01*
X113787Y143764D01*
X113212Y143323D01*
X112660Y142603D01*
X112313Y141765D01*
X112195Y140866D01*
X112313Y139967D01*
X112451Y139635D01*
X100205Y127389D01*
X73149D01*
X73003Y127840D01*
X73007Y127889D01*
X73770Y128474D01*
X74369Y129255D01*
X74746Y130165D01*
X74875Y131142D01*
X74746Y132118D01*
X74369Y133028D01*
X73770Y133809D01*
X72989Y134409D01*
X72079Y134786D01*
X71102Y134914D01*
X70126Y134786D01*
X69216Y134409D01*
X68435Y133809D01*
X67835Y133028D01*
X67458Y132118D01*
X67330Y131142D01*
X67458Y130165D01*
X67835Y129255D01*
X68435Y128474D01*
X69197Y127889D01*
X69202Y127840D01*
X69056Y127389D01*
X66535D01*
X65998Y127282D01*
X65542Y126978D01*
X61111Y122547D01*
X49692D01*
X49131Y123107D01*
X48555Y123549D01*
X47885Y123827D01*
X47165Y123921D01*
X46446Y123827D01*
X45775Y123549D01*
X45200Y123107D01*
X44991Y122835D01*
X44418Y122910D01*
X44369Y123028D01*
X43770Y123809D01*
X42989Y124409D01*
X42079Y124786D01*
X41102Y124914D01*
X40126Y124786D01*
X39216Y124409D01*
X38435Y123809D01*
X37835Y123028D01*
X37459Y122118D01*
X37330Y121142D01*
X37459Y120165D01*
X37835Y119255D01*
X38435Y118474D01*
X39216Y117875D01*
X40126Y117498D01*
X41102Y117369D01*
X42079Y117498D01*
X42989Y117875D01*
X43770Y118474D01*
X44369Y119255D01*
X44418Y119374D01*
X44991Y119449D01*
X45200Y119176D01*
X48401Y115975D01*
Y15575D01*
X42208D01*
X41755Y16165D01*
X40768Y16922D01*
X39756Y17341D01*
X39719Y17563D01*
X39752Y17860D01*
X40876Y18325D01*
X41907Y19117D01*
X42698Y20148D01*
X43196Y21349D01*
X43300Y22138D01*
X38386D01*
X33472D01*
X33576Y21349D01*
X34073Y20148D01*
X34865Y19117D01*
X35896Y18325D01*
X37019Y17860D01*
X37053Y17563D01*
X37016Y17341D01*
X36003Y16922D01*
X35016Y16165D01*
X34564Y15575D01*
X33632D01*
X32477Y16729D01*
X31902Y17171D01*
X31231Y17449D01*
X30512Y17544D01*
X27559D01*
Y17913D01*
X19685D01*
Y17544D01*
X16899D01*
X13607Y20836D01*
Y21457D01*
X14961D01*
Y29724D01*
X6693D01*
Y21457D01*
X8047D01*
Y19685D01*
X8142Y18966D01*
X8420Y18295D01*
X8861Y17719D01*
X13782Y12798D01*
X14358Y12357D01*
X15029Y12079D01*
X15748Y11984D01*
X19685D01*
Y11614D01*
X27559D01*
Y11984D01*
X29360D01*
X30515Y10830D01*
X31091Y10388D01*
X31761Y10110D01*
X32480Y10016D01*
X34564D01*
X35016Y9426D01*
X36003Y8669D01*
X37152Y8192D01*
X38386Y8030D01*
X39619Y8192D01*
X40768Y8669D01*
X41755Y9426D01*
X42208Y10016D01*
X60039D01*
X60759Y10110D01*
X61429Y10388D01*
X62005Y10830D01*
X87595Y36420D01*
X88037Y36996D01*
X88315Y37666D01*
X88410Y38386D01*
Y47282D01*
X88897Y47917D01*
X89274Y48827D01*
X89402Y49803D01*
X89274Y50779D01*
X88897Y51689D01*
X88297Y52471D01*
X87516Y53070D01*
X86606Y53447D01*
X85630Y53576D01*
X84654Y53447D01*
X83744Y53070D01*
X82962Y52471D01*
X82363Y51689D01*
X81986Y50779D01*
X81858Y49803D01*
X81986Y48827D01*
X82363Y47917D01*
X82850Y47282D01*
Y39537D01*
X58888Y15575D01*
X53961D01*
Y117126D01*
X53866Y117845D01*
X53588Y118516D01*
X53147Y119091D01*
X52963Y119275D01*
X53155Y119737D01*
X61693D01*
X62231Y119844D01*
X62686Y120148D01*
X67117Y124579D01*
X68311D01*
X68472Y124106D01*
X68283Y123961D01*
X67650Y123135D01*
X67251Y122174D01*
X67181Y121642D01*
X75023D01*
X74953Y122174D01*
X74555Y123135D01*
X73922Y123961D01*
X73733Y124106D01*
X73893Y124579D01*
X100787D01*
X101325Y124686D01*
X101781Y124991D01*
X114438Y137648D01*
X114770Y137510D01*
X115669Y137391D01*
X116569Y137510D01*
X117407Y137857D01*
X118126Y138409D01*
X118568Y138984D01*
X119068Y138815D01*
Y136251D01*
X116901Y134085D01*
X116569Y134222D01*
X115669Y134341D01*
X114770Y134222D01*
X113932Y133875D01*
X113212Y133323D01*
X112660Y132603D01*
X112313Y131765D01*
X112195Y130866D01*
X112313Y129967D01*
X112660Y129129D01*
X113212Y128409D01*
X113932Y127857D01*
X114770Y127510D01*
X115669Y127392D01*
X116569Y127510D01*
X117407Y127857D01*
X118126Y128409D01*
X118678Y129129D01*
X119026Y129967D01*
X119144Y130866D01*
X119026Y131765D01*
X118888Y132098D01*
X121466Y134676D01*
X121770Y135132D01*
X121877Y135669D01*
Y145276D01*
X121770Y145813D01*
X121466Y146269D01*
X121072Y146663D01*
X120616Y146967D01*
X120079Y147074D01*
X116823D01*
X116724Y147574D01*
X117407Y147857D01*
X118126Y148409D01*
X118678Y149129D01*
X119026Y149967D01*
X119144Y150866D01*
X119026Y151765D01*
X118678Y152603D01*
X118126Y153323D01*
X117407Y153875D01*
X116569Y154222D01*
X115669Y154341D01*
X114770Y154222D01*
X113932Y153875D01*
X113633Y153646D01*
X105010D01*
X95548Y163107D01*
X94972Y163549D01*
X94302Y163827D01*
X93583Y163921D01*
X73624D01*
X73213Y164237D01*
X73382Y164737D01*
X114847D01*
X114880Y164237D01*
X114770Y164222D01*
X113932Y163875D01*
X113212Y163323D01*
X112660Y162603D01*
X112313Y161765D01*
X112195Y160866D01*
X112313Y159967D01*
X112660Y159129D01*
X113212Y158409D01*
X113932Y157857D01*
X114770Y157510D01*
X115669Y157392D01*
X116569Y157510D01*
X117407Y157857D01*
X118126Y158409D01*
X118678Y159129D01*
X119026Y159967D01*
X119144Y160866D01*
X119026Y161765D01*
X118762Y162403D01*
X119185Y162686D01*
X122611Y159261D01*
Y129795D01*
X116901Y124085D01*
X116569Y124222D01*
X115669Y124341D01*
X114770Y124222D01*
X113932Y123875D01*
X113212Y123323D01*
X112660Y122603D01*
X112313Y121765D01*
X112195Y120866D01*
X112313Y119967D01*
X112660Y119129D01*
X113212Y118409D01*
X113932Y117857D01*
X114770Y117510D01*
X115669Y117392D01*
X116569Y117510D01*
X117407Y117857D01*
X118126Y118409D01*
X118678Y119129D01*
X119026Y119967D01*
X119144Y120866D01*
X119026Y121765D01*
X118888Y122098D01*
X125009Y128219D01*
X125314Y128675D01*
X125421Y129213D01*
Y159843D01*
X125314Y160380D01*
X125009Y160836D01*
X118710Y167135D01*
X118254Y167440D01*
X117801Y167530D01*
X117689Y167764D01*
X117654Y168047D01*
X118126Y168409D01*
X118678Y169129D01*
X119026Y169967D01*
X119144Y170866D01*
X119026Y171765D01*
X118678Y172603D01*
X118126Y173323D01*
X117407Y173875D01*
X116569Y174222D01*
X115669Y174341D01*
X114770Y174222D01*
X113932Y173875D01*
X113212Y173323D01*
X112660Y172603D01*
X112522Y172271D01*
X110424D01*
X108885Y173810D01*
Y185638D01*
X112787Y189540D01*
X121712D01*
X121864Y189040D01*
X121841Y189025D01*
X117127Y184311D01*
X112224D01*
Y177421D01*
X119114D01*
Y182324D01*
X123417Y186627D01*
X139444D01*
X139652Y186126D01*
X127944Y174419D01*
X127639Y173963D01*
X127532Y173425D01*
Y124716D01*
X116901Y114085D01*
X116569Y114222D01*
X115669Y114341D01*
X114770Y114222D01*
X113932Y113875D01*
X113212Y113323D01*
X112660Y112603D01*
X112313Y111765D01*
X112195Y110866D01*
X112313Y109967D01*
X112660Y109129D01*
X113212Y108409D01*
X113932Y107857D01*
X114770Y107510D01*
X115669Y107392D01*
X116569Y107510D01*
X117407Y107857D01*
X118126Y108409D01*
X118678Y109129D01*
X119026Y109967D01*
X119144Y110866D01*
X119026Y111765D01*
X118888Y112098D01*
X129930Y123140D01*
X130235Y123596D01*
X130257Y123708D01*
X130788Y123814D01*
X130896Y123652D01*
X142451Y112098D01*
X142313Y111765D01*
X142195Y110866D01*
X142313Y109967D01*
X142660Y109129D01*
X143212Y108409D01*
X143932Y107857D01*
X144770Y107510D01*
X145669Y107392D01*
X146569Y107510D01*
X147407Y107857D01*
X148126Y108409D01*
X148678Y109129D01*
X149025Y109967D01*
X149144Y110866D01*
X149025Y111765D01*
X148678Y112603D01*
X148126Y113323D01*
X147407Y113875D01*
X146569Y114222D01*
X145669Y114341D01*
X144770Y114222D01*
X144438Y114085D01*
X133295Y125228D01*
Y162016D01*
X135621Y164343D01*
X143549D01*
X143621Y164249D01*
X143535Y163571D01*
X143212Y163323D01*
X142660Y162603D01*
X142313Y161765D01*
X142195Y160866D01*
X142313Y159967D01*
X142660Y159129D01*
X143212Y158409D01*
X143932Y157857D01*
X144770Y157510D01*
X145669Y157392D01*
X146569Y157510D01*
X147407Y157857D01*
X148126Y158409D01*
X148678Y159129D01*
X148816Y159461D01*
X188031D01*
X188321Y159519D01*
X188567Y159058D01*
X187213Y157704D01*
X151102D01*
X150565Y157597D01*
X150109Y157293D01*
X146901Y154085D01*
X146569Y154222D01*
X145669Y154341D01*
X144770Y154222D01*
X143932Y153875D01*
X143212Y153323D01*
X142660Y152603D01*
X142313Y151765D01*
X142195Y150866D01*
X142313Y149967D01*
X142660Y149129D01*
X143212Y148409D01*
X143932Y147857D01*
X144770Y147510D01*
X145669Y147391D01*
X146569Y147510D01*
X147407Y147857D01*
X148126Y148409D01*
X148678Y149129D01*
X149025Y149967D01*
X149144Y150866D01*
X149025Y151765D01*
X148888Y152098D01*
X151684Y154894D01*
X187795D01*
X188333Y155001D01*
X188789Y155306D01*
X209379Y175896D01*
X209684Y176352D01*
X209775Y176810D01*
X210471Y177098D01*
X211334Y177760D01*
X211997Y178624D01*
X212413Y179630D01*
X212555Y180709D01*
X212413Y181788D01*
X211997Y182793D01*
X211334Y183657D01*
X210989Y183922D01*
X211159Y184422D01*
X212686D01*
X214252Y182856D01*
Y176575D01*
X222520D01*
Y184843D01*
X216239D01*
X214917Y186165D01*
X215108Y186627D01*
X250363D01*
X253091Y183898D01*
X253075Y183657D01*
X252413Y182793D01*
X251996Y181788D01*
X251854Y180709D01*
X251996Y179630D01*
X252413Y178624D01*
X253075Y177760D01*
X253939Y177098D01*
X254944Y176681D01*
X256024Y176539D01*
X257103Y176681D01*
X258108Y177098D01*
X258972Y177760D01*
X259634Y178624D01*
X260051Y179630D01*
X260193Y180709D01*
X260051Y181788D01*
X259634Y182793D01*
X258972Y183657D01*
X258108Y184320D01*
X257103Y184736D01*
X256094Y184869D01*
X251938Y189025D01*
X251916Y189040D01*
X252068Y189540D01*
X255717D01*
X261890Y183367D01*
Y176575D01*
X270158D01*
Y184843D01*
X264388D01*
X257293Y191938D01*
X256837Y192243D01*
X256299Y192350D01*
D02*
G37*
G36*
X44842Y184882D02*
X37362D01*
Y177402D01*
X44842D01*
Y184882D01*
D02*
G37*
G36*
X71102Y184914D02*
X70126Y184786D01*
X69216Y184409D01*
X68435Y183809D01*
X67835Y183028D01*
X67458Y182118D01*
X67330Y181142D01*
X67458Y180165D01*
X67835Y179255D01*
X68435Y178474D01*
X69216Y177875D01*
X70126Y177498D01*
X71102Y177369D01*
X72079Y177498D01*
X72989Y177875D01*
X73770Y178474D01*
X74369Y179255D01*
X74746Y180165D01*
X74875Y181142D01*
X74746Y182118D01*
X74369Y183028D01*
X73770Y183809D01*
X72989Y184409D01*
X72079Y184786D01*
X71102Y184914D01*
D02*
G37*
G36*
X41102Y164914D02*
X40126Y164786D01*
X39216Y164409D01*
X38435Y163809D01*
X37835Y163028D01*
X37459Y162118D01*
X37330Y161142D01*
X37459Y160165D01*
X37835Y159256D01*
X38435Y158474D01*
X39216Y157875D01*
X40126Y157498D01*
X41102Y157369D01*
X42079Y157498D01*
X42989Y157875D01*
X43770Y158474D01*
X44369Y159256D01*
X44746Y160165D01*
X44875Y161142D01*
X44746Y162118D01*
X44369Y163028D01*
X43770Y163809D01*
X42989Y164409D01*
X42079Y164786D01*
X41102Y164914D01*
D02*
G37*
G36*
X99910Y141716D02*
Y138295D01*
X103331D01*
X103260Y138827D01*
X102862Y139789D01*
X102229Y140614D01*
X101403Y141248D01*
X100441Y141646D01*
X99910Y141716D01*
D02*
G37*
G36*
X85146D02*
Y138295D01*
X88567D01*
X88497Y138827D01*
X88098Y139789D01*
X87465Y140614D01*
X86639Y141248D01*
X85677Y141646D01*
X85146Y141716D01*
D02*
G37*
G36*
X145169Y144489D02*
X144714Y144430D01*
X143825Y144061D01*
X143061Y143475D01*
X142474Y142711D01*
X142106Y141821D01*
X142046Y141366D01*
X145169D01*
Y144489D01*
D02*
G37*
G36*
X11811Y156729D02*
X10732Y156587D01*
X9726Y156170D01*
X8863Y155507D01*
X8200Y154644D01*
X7784Y153638D01*
X7642Y152559D01*
X7784Y151480D01*
X8200Y150474D01*
X8863Y149611D01*
X9726Y148948D01*
X10732Y148532D01*
X11811Y148389D01*
X12890Y148532D01*
X13896Y148948D01*
X14759Y149611D01*
X15422Y150474D01*
X15838Y151480D01*
X15980Y152559D01*
X15838Y153638D01*
X15422Y154644D01*
X14759Y155507D01*
X13896Y156170D01*
X12890Y156587D01*
X11811Y156729D01*
D02*
G37*
G36*
X146169Y144489D02*
Y141366D01*
X149293D01*
X149233Y141821D01*
X148864Y142711D01*
X148278Y143475D01*
X147514Y144061D01*
X146624Y144430D01*
X146169Y144489D01*
D02*
G37*
G36*
X10327Y125539D02*
X9692Y125455D01*
X8635Y125017D01*
X7727Y124320D01*
X7030Y123412D01*
X6592Y122355D01*
X6509Y121720D01*
X10327D01*
Y125539D01*
D02*
G37*
G36*
X281496Y120890D02*
X176181D01*
X175462Y120795D01*
X174791Y120518D01*
X174216Y120076D01*
X159282Y105142D01*
X132874D01*
X132155Y105047D01*
X131484Y104770D01*
X130909Y104328D01*
X124833Y98252D01*
X117913D01*
Y99409D01*
X112402D01*
Y95653D01*
X112378Y95472D01*
X112402Y95292D01*
Y91535D01*
X117913D01*
Y92693D01*
X125984D01*
X126704Y92787D01*
X127374Y93065D01*
X127950Y93507D01*
X134025Y99582D01*
X160433D01*
X161153Y99677D01*
X161823Y99955D01*
X162399Y100397D01*
X177332Y115331D01*
X280345D01*
X295082Y100593D01*
X295657Y100152D01*
X296328Y99874D01*
X297047Y99779D01*
X309627D01*
X309874Y99279D01*
X309612Y98938D01*
X309313Y98216D01*
X309276Y97941D01*
X312992D01*
X316708D01*
X316672Y98216D01*
X316372Y98938D01*
X315897Y99558D01*
X315557Y99819D01*
X315545Y100440D01*
X315745Y100593D01*
X316187Y101169D01*
X316464Y101840D01*
X316559Y102559D01*
X316464Y103279D01*
X316187Y103949D01*
X315843Y104397D01*
X316023Y104897D01*
X325984D01*
Y104331D01*
X331496D01*
Y108087D01*
X331520Y108268D01*
X331496Y108448D01*
Y112205D01*
X325984D01*
Y110457D01*
X312205D01*
X311485Y110362D01*
X310815Y110084D01*
X310239Y109643D01*
X309798Y109067D01*
X309520Y108397D01*
X309425Y107677D01*
X309520Y106958D01*
X309798Y106287D01*
X310142Y105839D01*
X309961Y105339D01*
X298199D01*
X283462Y120076D01*
X282886Y120518D01*
X282215Y120795D01*
X281496Y120890D01*
D02*
G37*
G36*
X71102Y104914D02*
X70126Y104786D01*
X69216Y104409D01*
X68435Y103809D01*
X67835Y103028D01*
X67458Y102118D01*
X67330Y101142D01*
X67458Y100165D01*
X67835Y99256D01*
X68435Y98474D01*
X69216Y97875D01*
X70126Y97498D01*
X71102Y97369D01*
X72079Y97498D01*
X72989Y97875D01*
X73770Y98474D01*
X74369Y99256D01*
X74746Y100165D01*
X74875Y101142D01*
X74746Y102118D01*
X74369Y103028D01*
X73770Y103809D01*
X72989Y104409D01*
X72079Y104786D01*
X71102Y104914D01*
D02*
G37*
G36*
X206496Y113189D02*
X200984D01*
Y112229D01*
X186614D01*
X185895Y112134D01*
X185224Y111856D01*
X184649Y111414D01*
X184207Y110839D01*
X183929Y110168D01*
X183835Y109449D01*
X183929Y108729D01*
X184207Y108059D01*
X184551Y107610D01*
X184371Y107110D01*
X176181D01*
X175462Y107016D01*
X174791Y106738D01*
X174216Y106296D01*
X165187Y97268D01*
X138779D01*
X138060Y97173D01*
X137390Y96895D01*
X136814Y96454D01*
X126801Y86441D01*
X124803D01*
Y87598D01*
X119291D01*
Y83842D01*
X119268Y83661D01*
X119291Y83481D01*
Y79724D01*
X124803D01*
Y80882D01*
X127953D01*
X128672Y80976D01*
X129343Y81254D01*
X129918Y81696D01*
X139931Y91708D01*
X166339D01*
X167058Y91803D01*
X167728Y92081D01*
X168304Y92523D01*
X177332Y101551D01*
X184037D01*
X184283Y101051D01*
X184021Y100710D01*
X183722Y99988D01*
X183686Y99713D01*
X187402D01*
X191117D01*
X191081Y99988D01*
X190782Y100710D01*
X190306Y101330D01*
X189966Y101591D01*
X189955Y102212D01*
X190155Y102365D01*
X190596Y102941D01*
X190874Y103611D01*
X190969Y104331D01*
X190874Y105050D01*
X190596Y105721D01*
X190252Y106169D01*
X190433Y106669D01*
X200984D01*
Y105315D01*
X206496D01*
Y109071D01*
X206520Y109252D01*
X206496Y109433D01*
Y113189D01*
D02*
G37*
G36*
X40602Y110642D02*
X37181D01*
X37251Y110110D01*
X37650Y109148D01*
X38283Y108323D01*
X39109Y107689D01*
X40071Y107291D01*
X40602Y107221D01*
Y110642D01*
D02*
G37*
G36*
X85630Y113418D02*
X84654Y113290D01*
X83744Y112913D01*
X82962Y112313D01*
X82363Y111532D01*
X81986Y110622D01*
X81858Y109646D01*
X81986Y108669D01*
X82363Y107759D01*
X82962Y106978D01*
X83744Y106379D01*
X84654Y106002D01*
X85630Y105873D01*
X86606Y106002D01*
X87516Y106379D01*
X88297Y106978D01*
X88897Y107759D01*
X89274Y108669D01*
X89402Y109646D01*
X89274Y110622D01*
X88897Y111532D01*
X88297Y112313D01*
X87516Y112913D01*
X86606Y113290D01*
X85630Y113418D01*
D02*
G37*
G36*
X41102Y104914D02*
X40126Y104786D01*
X39216Y104409D01*
X38435Y103809D01*
X37835Y103028D01*
X37459Y102118D01*
X37330Y101142D01*
X37459Y100165D01*
X37835Y99256D01*
X38435Y98474D01*
X39216Y97875D01*
X40126Y97498D01*
X41102Y97369D01*
X42079Y97498D01*
X42989Y97875D01*
X43770Y98474D01*
X44369Y99256D01*
X44746Y100165D01*
X44875Y101142D01*
X44746Y102118D01*
X44369Y103028D01*
X43770Y103809D01*
X42989Y104409D01*
X42079Y104786D01*
X41102Y104914D01*
D02*
G37*
G36*
X312492Y96941D02*
X309276D01*
X309313Y96666D01*
X309612Y95944D01*
X310088Y95324D01*
X310708Y94848D01*
X311430Y94549D01*
X312205Y94447D01*
X312492D01*
Y96941D01*
D02*
G37*
G36*
X106102Y99409D02*
X100591D01*
Y98252D01*
X98425D01*
X97706Y98157D01*
X97035Y97880D01*
X96460Y97438D01*
X73239Y74217D01*
X72989Y74409D01*
X72079Y74786D01*
X71102Y74914D01*
X70126Y74786D01*
X69216Y74409D01*
X68435Y73809D01*
X67835Y73028D01*
X67458Y72118D01*
X67330Y71142D01*
X67458Y70165D01*
X67835Y69256D01*
X68435Y68474D01*
X69216Y67875D01*
X70126Y67498D01*
X71102Y67369D01*
X72079Y67498D01*
X72989Y67875D01*
X73624Y68362D01*
X74094D01*
X74814Y68457D01*
X75484Y68735D01*
X76060Y69176D01*
X99577Y92693D01*
X100591D01*
Y91535D01*
X106102D01*
Y95292D01*
X106126Y95472D01*
X106102Y95653D01*
Y99409D01*
D02*
G37*
G36*
X316708Y96941D02*
X313492D01*
Y94447D01*
X313779D01*
X314555Y94549D01*
X315277Y94848D01*
X315897Y95324D01*
X316372Y95944D01*
X316672Y96666D01*
X316708Y96941D01*
D02*
G37*
G36*
X191117Y98713D02*
X187902D01*
Y96219D01*
X188189D01*
X188964Y96320D01*
X189686Y96620D01*
X190306Y97095D01*
X190782Y97716D01*
X191081Y98438D01*
X191117Y98713D01*
D02*
G37*
G36*
X186902D02*
X183686D01*
X183722Y98438D01*
X184021Y97716D01*
X184497Y97095D01*
X185117Y96620D01*
X185839Y96320D01*
X186614Y96219D01*
X186902D01*
Y98713D01*
D02*
G37*
G36*
X45023Y110642D02*
X41602D01*
Y107221D01*
X42134Y107291D01*
X43096Y107689D01*
X43922Y108323D01*
X44555Y109148D01*
X44953Y110110D01*
X45023Y110642D01*
D02*
G37*
G36*
X15145Y120720D02*
X11327D01*
Y116902D01*
X11961Y116986D01*
X13019Y117424D01*
X13927Y118121D01*
X14623Y119028D01*
X15061Y120086D01*
X15145Y120720D01*
D02*
G37*
G36*
X10327D02*
X6509D01*
X6592Y120086D01*
X7030Y119028D01*
X7727Y118121D01*
X8635Y117424D01*
X9692Y116986D01*
X10327Y116902D01*
Y120720D01*
D02*
G37*
G36*
X70602Y120642D02*
X67181D01*
X67251Y120110D01*
X67650Y119148D01*
X68283Y118323D01*
X69109Y117689D01*
X70070Y117291D01*
X70602Y117221D01*
Y120642D01*
D02*
G37*
G36*
X27059Y123516D02*
X23638D01*
X23708Y122984D01*
X24106Y122022D01*
X24740Y121197D01*
X25566Y120563D01*
X26527Y120165D01*
X27059Y120095D01*
Y123516D01*
D02*
G37*
G36*
X75023Y120642D02*
X71602D01*
Y117221D01*
X72134Y117291D01*
X73096Y117689D01*
X73922Y118323D01*
X74555Y119148D01*
X74953Y120110D01*
X75023Y120642D01*
D02*
G37*
G36*
X99409Y121883D02*
X98433Y121754D01*
X97523Y121377D01*
X96742Y120778D01*
X96142Y119997D01*
X95766Y119087D01*
X95637Y118110D01*
X95766Y117134D01*
X96142Y116224D01*
X96742Y115443D01*
X97523Y114843D01*
X98433Y114466D01*
X99409Y114338D01*
X100386Y114466D01*
X101296Y114843D01*
X102077Y115443D01*
X102676Y116224D01*
X103053Y117134D01*
X103182Y118110D01*
X103053Y119087D01*
X102676Y119997D01*
X102077Y120778D01*
X101296Y121377D01*
X100386Y121754D01*
X99409Y121883D01*
D02*
G37*
G36*
X40602Y115063D02*
X40071Y114993D01*
X39109Y114594D01*
X38283Y113961D01*
X37650Y113135D01*
X37251Y112174D01*
X37181Y111642D01*
X40602D01*
Y115063D01*
D02*
G37*
G36*
X71102Y114914D02*
X70126Y114786D01*
X69216Y114409D01*
X68435Y113809D01*
X67835Y113028D01*
X67458Y112118D01*
X67330Y111142D01*
X67458Y110165D01*
X67835Y109256D01*
X68435Y108474D01*
X69216Y107875D01*
X70126Y107498D01*
X71102Y107369D01*
X72079Y107498D01*
X72989Y107875D01*
X73770Y108474D01*
X74369Y109256D01*
X74746Y110165D01*
X74875Y111142D01*
X74746Y112118D01*
X74369Y113028D01*
X73770Y113809D01*
X72989Y114409D01*
X72079Y114786D01*
X71102Y114914D01*
D02*
G37*
G36*
X41602Y115063D02*
Y111642D01*
X45023D01*
X44953Y112174D01*
X44555Y113135D01*
X43922Y113961D01*
X43096Y114594D01*
X42134Y114993D01*
X41602Y115063D01*
D02*
G37*
G36*
X84646Y121883D02*
X83669Y121754D01*
X82759Y121377D01*
X81978Y120778D01*
X81379Y119997D01*
X81002Y119087D01*
X80873Y118110D01*
X81002Y117134D01*
X81379Y116224D01*
X81978Y115443D01*
X82759Y114843D01*
X83669Y114466D01*
X84646Y114338D01*
X85622Y114466D01*
X86532Y114843D01*
X87313Y115443D01*
X87913Y116224D01*
X88289Y117134D01*
X88418Y118110D01*
X88289Y119087D01*
X87913Y119997D01*
X87313Y120778D01*
X86532Y121377D01*
X85622Y121754D01*
X84646Y121883D01*
D02*
G37*
G36*
X41102Y154914D02*
X40126Y154786D01*
X39216Y154409D01*
X38435Y153809D01*
X37835Y153028D01*
X37459Y152118D01*
X37354Y151324D01*
X16735Y130706D01*
X16294Y130130D01*
X16016Y129460D01*
X15921Y128740D01*
Y114000D01*
X14961D01*
Y115354D01*
X6693D01*
Y107087D01*
X14961D01*
Y108441D01*
X17549D01*
X23625Y102365D01*
X24201Y101923D01*
X24871Y101646D01*
X24923Y101639D01*
X25673Y101064D01*
X26583Y100687D01*
X27559Y100558D01*
X28535Y100687D01*
X29445Y101064D01*
X30185Y101631D01*
X30507Y101568D01*
X30685Y101508D01*
Y98592D01*
X29673Y97580D01*
X29445Y97755D01*
X28535Y98132D01*
X27559Y98261D01*
X26583Y98132D01*
X25673Y97755D01*
X24892Y97156D01*
X24292Y96374D01*
X24254Y96284D01*
X14961D01*
Y97638D01*
X6693D01*
Y89370D01*
X14961D01*
Y90724D01*
X26575D01*
X27035Y90785D01*
X27559Y90716D01*
X28535Y90844D01*
X29445Y91221D01*
X30080Y91708D01*
X30512D01*
X31231Y91803D01*
X31902Y92081D01*
X32477Y92523D01*
X35430Y95475D01*
X35872Y96051D01*
X36149Y96722D01*
X36244Y97441D01*
Y132353D01*
X41285Y137393D01*
X42079Y137498D01*
X42989Y137875D01*
X43770Y138474D01*
X44369Y139255D01*
X44746Y140165D01*
X44875Y141142D01*
X44746Y142118D01*
X44369Y143028D01*
X43770Y143809D01*
X42989Y144409D01*
X42079Y144786D01*
X41102Y144914D01*
X40126Y144786D01*
X39216Y144409D01*
X38435Y143809D01*
X37835Y143028D01*
X37459Y142118D01*
X37354Y141324D01*
X31499Y135469D01*
X31057Y134894D01*
X30780Y134223D01*
X30685Y133504D01*
Y127228D01*
X30185Y126983D01*
X29553Y127469D01*
X28591Y127867D01*
X28059Y127937D01*
Y124016D01*
Y120095D01*
X28591Y120165D01*
X29553Y120563D01*
X30185Y121048D01*
X30685Y120804D01*
Y107154D01*
X30507Y107093D01*
X30185Y107030D01*
X29445Y107598D01*
X28535Y107975D01*
X27559Y108103D01*
X26583Y107975D01*
X26084Y107768D01*
X21481Y112372D01*
Y127589D01*
X41285Y147393D01*
X42079Y147498D01*
X42989Y147875D01*
X43770Y148474D01*
X44369Y149256D01*
X44746Y150165D01*
X44875Y151142D01*
X44746Y152118D01*
X44369Y153028D01*
X43770Y153809D01*
X42989Y154409D01*
X42079Y154786D01*
X41102Y154914D01*
D02*
G37*
%LPD*%
D10*
X23622Y22638D02*
D03*
Y14764D02*
D03*
D11*
Y35827D02*
D03*
Y46850D02*
D03*
D12*
X380020Y97638D02*
D03*
Y109449D02*
D03*
X122047Y40354D02*
D03*
Y52165D02*
D03*
X132874D02*
D03*
Y40354D02*
D03*
X152559Y12795D02*
D03*
Y24606D02*
D03*
X254921Y97835D02*
D03*
Y109646D02*
D03*
D13*
X110236Y83661D02*
D03*
X122047D02*
D03*
X103347Y95472D02*
D03*
X115157D02*
D03*
X215551Y98425D02*
D03*
X203740D02*
D03*
Y109252D02*
D03*
X215551D02*
D03*
X340551Y97441D02*
D03*
X328740D02*
D03*
X328740Y108268D02*
D03*
X340551D02*
D03*
D14*
X23622Y14764D02*
X30512D01*
X15748D02*
X23622D01*
X110433Y25394D02*
Y60630D01*
X23622Y22638D02*
Y35827D01*
Y22638D02*
X38386D01*
X11063Y35827D02*
X23622D01*
Y46850D02*
X34843D01*
X47165Y121142D02*
X51181Y117126D01*
X10827Y19685D02*
X15748Y14764D01*
X32480Y12795D02*
X38386D01*
X30512Y14764D02*
X32480Y12795D01*
X10827Y19685D02*
Y25591D01*
X170748Y173701D02*
Y180709D01*
X149213Y61417D02*
Y66732D01*
X10827Y35591D02*
X11063Y35827D01*
X10827Y35591D02*
Y55118D01*
Y65118D02*
X15590D01*
X23622Y57087D01*
Y46850D02*
Y57087D01*
X34843Y46850D02*
X38386Y43307D01*
Y32480D02*
Y43307D01*
X60039Y12795D02*
X85630Y38386D01*
Y49803D01*
X5906Y55118D02*
X10827D01*
X3937Y57087D02*
X5906Y55118D01*
X3937Y57087D02*
Y76614D01*
X10827Y83504D01*
X18858D01*
X27559Y74803D01*
X10827Y93504D02*
X26575D01*
X27559Y94488D01*
X18701Y128740D02*
X41102Y151142D01*
X18701Y111221D02*
Y128740D01*
X10827Y111221D02*
X18701D01*
X25591Y104331D02*
X27559D01*
X18701Y111221D02*
X25591Y104331D01*
X27559Y94488D02*
X30512D01*
X33465Y97441D01*
Y133504D01*
X41102Y141142D01*
X51181Y12795D02*
X60039D01*
X51181D02*
Y117126D01*
X136890Y7874D02*
Y12717D01*
X132874Y16732D02*
X136890Y12717D01*
X132874Y16732D02*
Y40354D01*
X126890Y7874D02*
Y20157D01*
X126575Y20472D02*
X126890Y20157D01*
X110433Y25394D02*
X115354Y20472D01*
X122047Y35236D02*
Y40354D01*
Y52165D02*
X132874D01*
X139567Y45472D01*
X152559Y12795D02*
X239173D01*
X249016Y22638D01*
X264764D01*
X269764Y17638D01*
X152559Y24606D02*
Y28543D01*
X149213Y76968D02*
X156299D01*
X149213Y61417D02*
X155512Y55118D01*
Y41339D02*
Y55118D01*
X154528Y40354D02*
X155512Y41339D01*
X148366Y40354D02*
X154528D01*
X152559Y28543D02*
X163386Y39370D01*
Y69882D01*
X156299Y76968D02*
X163386Y69882D01*
X145669Y180866D02*
X145827Y180709D01*
X145669Y170866D02*
X167913D01*
X71102Y161142D02*
X93583D01*
X103858Y150866D01*
X115669D01*
X167913Y170866D02*
X170748Y173701D01*
X145827Y180709D02*
X160748D01*
X38386Y12795D02*
X51181D01*
X115354Y20472D02*
X126319D01*
X126575D01*
X122047Y35236D02*
X126575Y30709D01*
X132874Y40354D02*
X148366D01*
X139567Y45472D02*
X148366D01*
X148622D01*
X269764Y12795D02*
Y17638D01*
X103347Y83661D02*
X110236D01*
X80827Y61142D02*
X103347Y83661D01*
X71102Y61142D02*
X80827D01*
X98425Y95472D02*
X103347D01*
X74094Y71142D02*
X98425Y95472D01*
X71102Y71142D02*
X74094D01*
X141929Y66732D02*
X148957D01*
X137795Y70866D02*
X141929Y66732D01*
X137795Y70866D02*
Y81693D01*
X142717Y86614D01*
X203740Y87598D02*
Y98425D01*
X142717Y86614D02*
X202756D01*
X203740Y87598D01*
X122047Y83661D02*
X127953D01*
X138779Y94488D01*
X166339D01*
X176181Y104331D01*
X187402D01*
Y109449D02*
X203543D01*
X203740Y109252D01*
X215551Y98425D02*
Y109252D01*
X239173Y90551D02*
Y99410D01*
X235236Y86614D02*
X239173Y90551D01*
X202756Y86614D02*
X235236D01*
X229134Y104528D02*
X239173D01*
X224410Y109252D02*
X229134Y104528D01*
X215551Y109252D02*
X224410D01*
X239173Y109646D02*
X254921D01*
Y91535D02*
Y97835D01*
X243110Y79724D02*
X254921Y91535D01*
X202756Y79724D02*
X243110D01*
X200197Y77165D02*
X202756Y79724D01*
X200197Y70866D02*
Y77165D01*
X115157Y95472D02*
X125984D01*
X132874Y102362D01*
X160433D01*
X176181Y118110D01*
X281496D01*
X297047Y102559D01*
X312992D01*
Y107677D02*
X328150D01*
X328740Y108268D01*
X340551Y97441D02*
Y108268D01*
X340551Y97441D02*
X340551Y97441D01*
X328740Y88583D02*
Y97441D01*
X323819Y83661D02*
X328740Y88583D01*
X279528Y83661D02*
X323819D01*
X259842Y103347D02*
X279528Y83661D01*
X248228Y103347D02*
X259842D01*
X239173Y99410D02*
X244291D01*
X248228Y103347D01*
X354331Y104331D02*
X363583D01*
X350394Y108268D02*
X354331Y104331D01*
X340551Y108268D02*
X350394D01*
X363583Y109449D02*
X379724D01*
X380020Y83760D02*
Y97638D01*
X374016Y77756D02*
X380020Y83760D01*
X339567Y77756D02*
X374016D01*
X337992Y76181D02*
X339567Y77756D01*
X337992Y70866D02*
Y76181D01*
X348031Y83661D02*
X363583Y99213D01*
X323819Y83661D02*
X348031D01*
D15*
X41102Y121142D02*
X47165D01*
X61693D01*
X265630Y180709D02*
Y181614D01*
X255630Y180709D02*
Y183346D01*
X242008Y173346D02*
Y180709D01*
X61693Y121142D02*
X66535Y125984D01*
X100787D01*
X115669Y140866D01*
X70906Y151142D02*
X71102D01*
X65354Y156693D02*
X70906Y151142D01*
X65354Y156693D02*
Y162992D01*
X68504Y166142D01*
X117717D01*
X115669Y120866D02*
X124016Y129213D01*
Y159843D01*
X117717Y166142D02*
X124016Y159843D01*
X115669Y130866D02*
X120472Y135669D01*
Y145276D01*
X120079Y145669D02*
X120472Y145276D01*
X75630Y145669D02*
X120079D01*
X71102Y141142D02*
X75630Y145669D01*
X115669Y110866D02*
X128937Y124134D01*
X115669Y180866D02*
X122835Y188031D01*
X250945D02*
X255630Y183346D01*
X256299Y190945D02*
X265630Y181614D01*
X107480Y186221D02*
X112205Y190945D01*
X107480Y173228D02*
Y186221D01*
Y173228D02*
X109843Y170866D01*
X115669D01*
X112205Y190945D02*
X256299D01*
X122835Y188031D02*
X250945D01*
X180039Y185433D02*
X184764Y180709D01*
X140945Y185433D02*
X180039D01*
X128937Y124134D02*
Y173425D01*
X140945Y185433D01*
X131890Y124646D02*
Y162598D01*
X145669Y160866D02*
X188031D01*
X201575Y174409D01*
X213268Y185827D02*
X218386Y180709D01*
X201575Y174409D02*
Y182677D01*
X204724Y185827D01*
X213268D01*
X231890Y180591D02*
X232008Y180709D01*
X231890Y173228D02*
Y180591D01*
X229921Y171260D02*
X231890Y173228D01*
X145669Y130866D02*
X151732D01*
X194764Y173346D02*
Y180709D01*
X207874Y171260D02*
X229921D01*
X151732Y130866D02*
Y149764D01*
X131890Y162598D02*
X135039Y165748D01*
X187165D01*
X194764Y173346D01*
X145669Y150866D02*
X151102Y156299D01*
X187795D01*
X208386Y176890D01*
X151732Y149764D02*
X153543Y151575D01*
X188189D01*
X207874Y171260D01*
X236378Y167717D02*
X242008Y173346D01*
X208268Y167717D02*
X236378D01*
X131890Y124646D02*
X145669Y110866D01*
X155512Y124016D02*
Y147638D01*
X152362Y120866D02*
X155512Y124016D01*
X145669Y120866D02*
X152362D01*
X188583Y148031D02*
X208268Y167717D01*
X155905Y148031D02*
X188583D01*
X155512Y147638D02*
X155905Y148031D01*
X208386Y176890D02*
Y180709D01*
X182087Y61417D02*
X200000D01*
X205512Y66929D01*
Y72441D01*
X207874Y74803D01*
X306496D01*
X319882Y61417D01*
X350197Y56299D02*
X355709Y61811D01*
X313364D02*
X318875Y56299D01*
X350197D01*
X217913Y61811D02*
X313364D01*
X325984Y51968D02*
X359646D01*
X221850D02*
X307087D01*
X312992Y46063D01*
X311595Y56693D02*
X316493Y51794D01*
X178698D02*
X187621D01*
X192520Y56693D01*
X311595D01*
X180118Y41339D02*
X185630Y46850D01*
X300000D01*
X305512Y41339D01*
X317913D01*
X312992Y46063D02*
X320079D01*
X325984Y51968D01*
X220669Y41732D02*
X298031D01*
X305512Y34252D01*
X318110D01*
X325590Y41732D01*
X358465D01*
X303543Y29528D02*
X320276D01*
X323819Y33071D01*
X186024D02*
X204724D01*
X209055Y37402D01*
X295669D01*
X303543Y29528D01*
X214764Y33071D02*
X293307D01*
X301181Y25197D01*
X323622D01*
X331496Y33071D01*
X352559D01*
X195079Y27953D02*
X205315Y17717D01*
X296429Y27165D02*
X300366Y23228D01*
X328150D01*
X332874Y27953D01*
X205315Y17717D02*
X212205D01*
X221654Y27165D01*
X296429D01*
D16*
X319882Y61417D02*
D03*
X327756Y68110D02*
D03*
X316493Y51794D02*
D03*
X317913Y41339D02*
D03*
X323819Y33071D02*
D03*
X332874Y27953D02*
D03*
X343110Y28346D02*
D03*
X352559Y33071D02*
D03*
X358465Y41732D02*
D03*
X359646Y51968D02*
D03*
X355709Y61811D02*
D03*
X347835Y68504D02*
D03*
X182087Y61417D02*
D03*
X189961Y68110D02*
D03*
X178698Y51794D02*
D03*
X180118Y41339D02*
D03*
X186024Y33071D02*
D03*
X195079Y27953D02*
D03*
X205315Y28346D02*
D03*
X214764Y33071D02*
D03*
X220669Y41732D02*
D03*
X221850Y51968D02*
D03*
X217913Y61811D02*
D03*
X210039Y68504D02*
D03*
X71102Y51142D02*
D03*
Y61142D02*
D03*
Y71142D02*
D03*
Y81142D02*
D03*
Y91142D02*
D03*
Y101142D02*
D03*
Y111142D02*
D03*
Y121142D02*
D03*
Y131142D02*
D03*
Y141142D02*
D03*
Y151142D02*
D03*
Y161142D02*
D03*
Y171142D02*
D03*
Y181142D02*
D03*
X41102Y51142D02*
D03*
Y61142D02*
D03*
Y71142D02*
D03*
Y81142D02*
D03*
Y91142D02*
D03*
Y101142D02*
D03*
Y111142D02*
D03*
Y121142D02*
D03*
Y131142D02*
D03*
Y141142D02*
D03*
Y151142D02*
D03*
Y161142D02*
D03*
Y171142D02*
D03*
X84646Y137795D02*
D03*
Y118110D02*
D03*
X99409Y137795D02*
D03*
Y118110D02*
D03*
X385827Y7874D02*
D03*
X7874D02*
D03*
X85630Y49803D02*
D03*
Y109646D02*
D03*
X27559Y104331D02*
D03*
Y124016D02*
D03*
Y94488D02*
D03*
Y74803D02*
D03*
X7874Y188976D02*
D03*
X385827D02*
D03*
D17*
X337992Y70866D02*
D03*
X200197D02*
D03*
D18*
X41102Y181142D02*
D03*
D19*
X363583Y99213D02*
D03*
Y104331D02*
D03*
Y109449D02*
D03*
X312992Y97441D02*
D03*
Y102559D02*
D03*
Y107677D02*
D03*
X148957Y66732D02*
D03*
Y71850D02*
D03*
Y76968D02*
D03*
X126319Y20472D02*
D03*
Y25591D02*
D03*
Y30709D02*
D03*
X148366Y40354D02*
D03*
Y45472D02*
D03*
Y50591D02*
D03*
X187402Y99213D02*
D03*
Y104331D02*
D03*
Y109449D02*
D03*
X239173Y99410D02*
D03*
Y104528D02*
D03*
Y109646D02*
D03*
D20*
X145669Y180866D02*
D03*
Y170866D02*
D03*
Y160866D02*
D03*
Y150866D02*
D03*
Y140866D02*
D03*
Y130866D02*
D03*
Y120866D02*
D03*
Y110866D02*
D03*
X115669D02*
D03*
Y120866D02*
D03*
Y130866D02*
D03*
Y140866D02*
D03*
Y150866D02*
D03*
Y160866D02*
D03*
Y170866D02*
D03*
D21*
Y180866D02*
D03*
D22*
X38386Y12795D02*
D03*
Y22638D02*
D03*
Y32480D02*
D03*
D23*
X110236Y60236D02*
D03*
X105118D02*
D03*
X100000D02*
D03*
D24*
X10827Y111221D02*
D03*
Y93504D02*
D03*
Y25591D02*
D03*
Y65118D02*
D03*
X11811Y162559D02*
D03*
D25*
X10827Y121221D02*
D03*
Y83504D02*
D03*
Y35591D02*
D03*
Y55118D02*
D03*
X269567Y12992D02*
D03*
X11811Y152559D02*
D03*
X126496Y7480D02*
D03*
X161142Y180709D02*
D03*
X184764D02*
D03*
X208386D02*
D03*
X232402D02*
D03*
X256024D02*
D03*
D26*
X259567Y12992D02*
D03*
X136496Y7480D02*
D03*
X171142Y180709D02*
D03*
X194764D02*
D03*
X218386D02*
D03*
X242402D02*
D03*
X266024D02*
D03*
M02*
