G04 Layer_Color=16711935*
%FSLAX25Y25*%
%MOIN*%
G70*
G01*
G75*
%ADD27C,0.00787*%
%ADD45C,0.00394*%
D27*
X71850Y47638D02*
Y82185D01*
Y148130D02*
Y184252D01*
X40354D02*
X71850D01*
X40354Y49213D02*
Y184252D01*
Y47638D02*
Y49213D01*
Y47638D02*
X71850D01*
Y82185D02*
Y148130D01*
X146161Y107283D02*
Y186023D01*
X115177Y107283D02*
X146161D01*
X115177D02*
Y186023D01*
X146161D01*
D45*
X357185Y97441D02*
G03*
X357185Y111221I6367J6890D01*
G01*
X306594Y95669D02*
G03*
X306594Y109449I6367J6890D01*
G01*
X142559Y64961D02*
G03*
X142559Y78740I6367J6890D01*
G01*
X112008Y53839D02*
G03*
X98228Y53839I-6890J6367D01*
G01*
X119921Y18701D02*
G03*
X119921Y32480I6367J6890D01*
G01*
X141969Y38583D02*
G03*
X141969Y52362I6367J6890D01*
G01*
X181004Y97441D02*
G03*
X181004Y111221I6367J6890D01*
G01*
X232776Y97638D02*
G03*
X232776Y111417I6367J6890D01*
G01*
X26772Y35039D02*
Y47638D01*
X20472Y35039D02*
Y47638D01*
Y35039D02*
X26772D01*
X20472Y47638D02*
X26772D01*
X377530Y5906D02*
Y88780D01*
X298454D02*
X377530D01*
X298454Y5906D02*
Y88780D01*
Y5906D02*
X377530D01*
X239735D02*
Y88780D01*
X160659D02*
X239735D01*
X160659Y5906D02*
Y88780D01*
Y5906D02*
X239735D01*
X357185Y97441D02*
Y111221D01*
X306594Y95669D02*
Y109449D01*
X142559Y64961D02*
Y78740D01*
X78741Y116928D02*
Y138983D01*
X90560D01*
Y116928D02*
Y138983D01*
X78741Y116928D02*
X90560D01*
X93505D02*
Y138983D01*
X105324D01*
Y116928D02*
Y138983D01*
X93505Y116928D02*
X105324D01*
X376870Y97244D02*
Y109843D01*
X383169D01*
Y97244D02*
Y109843D01*
X376870Y97244D02*
X383169D01*
X118897Y39961D02*
Y52559D01*
X125196D01*
Y39961D02*
Y52559D01*
X118897Y39961D02*
X125196D01*
X136024Y39960D02*
Y52559D01*
X129725Y39960D02*
X136024D01*
X129725D02*
Y52559D01*
X136024D01*
X93110Y22441D02*
X105709D01*
Y28740D01*
X93110D02*
X105709D01*
X93110Y22441D02*
Y28740D01*
Y33267D02*
X105709D01*
Y39566D01*
X93110D02*
X105709D01*
X93110Y33267D02*
Y39566D01*
X136024Y39961D02*
Y52559D01*
X129725D02*
X136024D01*
X129725Y39961D02*
Y52559D01*
Y39961D02*
X136024D01*
X118897Y39961D02*
Y52559D01*
Y39961D02*
X125196D01*
Y52559D01*
X118897D02*
X125196D01*
X149409Y12402D02*
Y25000D01*
X155708D01*
Y12402D02*
Y25000D01*
X149409Y12402D02*
X155708D01*
X155709D02*
Y25000D01*
X149410D02*
X155709D01*
X149410Y12402D02*
Y25000D01*
Y12402D02*
X155709D01*
X109843Y86812D02*
X122441D01*
Y80512D02*
Y86812D01*
X109843Y80512D02*
X122441D01*
X109843D02*
Y86812D01*
X102953Y98623D02*
X115551D01*
Y92323D02*
Y98623D01*
X102953Y92323D02*
X115551D01*
X102953D02*
Y98623D01*
X30512Y43110D02*
X115157D01*
X115551Y2165D02*
Y43110D01*
X30512Y2165D02*
X115157D01*
X30512D02*
Y43110D01*
X115157Y2165D02*
Y43110D01*
X114764Y2165D02*
Y43110D01*
X114370Y2165D02*
Y43110D01*
X79724Y48622D02*
X91535D01*
X79724D02*
Y110827D01*
X91535D01*
Y48622D02*
Y110827D01*
X33464Y103143D02*
Y125198D01*
X21645Y103143D02*
X33464D01*
X21645D02*
Y125198D01*
X33464D01*
X21654Y73620D02*
Y95676D01*
X33473D01*
Y73620D02*
Y95676D01*
X21654Y73620D02*
X33473D01*
X98228Y53839D02*
X112008D01*
X119921Y18701D02*
Y32480D01*
X141969Y38583D02*
Y52362D01*
X181004Y97441D02*
Y111221D01*
X15945Y106614D02*
Y126614D01*
X5945Y106614D02*
X15945D01*
X5945D02*
Y126614D01*
X15945D01*
X5709Y78110D02*
Y98110D01*
X15709D01*
Y78110D02*
Y98110D01*
X5709Y78110D02*
X15709D01*
X15945Y20984D02*
Y40984D01*
X5945Y20984D02*
X15945D01*
X5945D02*
Y40984D01*
X15945D01*
X5709Y49724D02*
Y69724D01*
X15709D01*
Y49724D02*
Y69724D01*
X5709Y49724D02*
X15709D01*
X254961Y7874D02*
X274961D01*
X254961D02*
Y17874D01*
X274961D01*
Y7874D02*
Y17874D01*
X6693Y147165D02*
Y167165D01*
X16693D01*
Y147165D02*
Y167165D01*
X6693Y147165D02*
X16693D01*
X121102Y12598D02*
X141102D01*
Y2598D02*
Y12598D01*
X121102Y2598D02*
X141102D01*
X121102D02*
Y12598D01*
X155748Y185827D02*
X175748D01*
Y175827D02*
Y185827D01*
X155748Y175827D02*
X175748D01*
X155748D02*
Y185827D01*
X179370D02*
X199370D01*
Y175827D02*
Y185827D01*
X179370Y175827D02*
X199370D01*
X179370D02*
Y185827D01*
X202992D02*
X222992D01*
Y175827D02*
Y185827D01*
X202992Y175827D02*
X222992D01*
X202992D02*
Y185827D01*
X227008D02*
X247008D01*
Y175827D02*
Y185827D01*
X227008Y175827D02*
X247008D01*
X227008D02*
Y185827D01*
X250630D02*
X270630D01*
Y175827D02*
Y185827D01*
X250630Y175827D02*
X270630D01*
X250630D02*
Y185827D01*
X203346Y95275D02*
X215945D01*
X203346D02*
Y101574D01*
X215945D01*
Y95275D02*
Y101574D01*
X203347Y112402D02*
X215945D01*
Y106103D02*
Y112402D01*
X203347Y106103D02*
X215945D01*
X203347D02*
Y112402D01*
X232776Y97638D02*
Y111417D01*
X251771Y97441D02*
Y110040D01*
X258070D01*
Y97441D02*
Y110040D01*
X251771Y97441D02*
X258070D01*
X328346Y94291D02*
X340945D01*
X328346D02*
Y100590D01*
X340945D01*
Y94291D02*
Y100590D01*
X328347Y111418D02*
X340945D01*
Y105119D02*
Y111418D01*
X328347Y105119D02*
X340945D01*
X328347D02*
Y111418D01*
M02*
